SairaStencil.ufo
<glyph name="exclam" format="1">
  <advance width="363"/>
  <unicode hex="0021"/>
  <note>
    exclam
  </note>
  <outline>
    <contour>
      <point x="120" y="246" type="line"/>
      <point x="263" y="246" type="line"/>
      <point x="283" y="447" type="line" smooth="yes"/>
      <point x="286" y="473"/>
      <point x="288" y="499"/>
      <point x="291" y="524" type="curve" smooth="yes"/>
      <point x="297" y="592" type="line" smooth="yes"/>
      <point x="299" y="613"/>
      <point x="301" y="630"/>
      <point x="302" y="645" type="curve" smooth="yes"/>
      <point x="303" y="660"/>
      <point x="303" y="669"/>
      <point x="303" y="673" type="curve" smooth="yes"/>
      <point x="303" y="688" type="line"/>
      <point x="80" y="688" type="line"/>
      <point x="80" y="673" type="line"/>
      <point x="82" y="645" type="line" smooth="yes"/>
      <point x="83" y="630"/>
      <point x="84" y="613"/>
      <point x="86" y="592" type="curve" smooth="yes"/>
      <point x="88" y="571"/>
      <point x="90" y="549"/>
      <point x="93" y="524" type="curve"/>
      <point x="95" y="499"/>
      <point x="97" y="473"/>
      <point x="100" y="447" type="curve" smooth="yes"/>
    </contour>
    <contour>
      <point x="90" y="0" type="line"/>
      <point x="292" y="0" type="line"/>
      <point x="292" y="163" type="line"/>
      <point x="90" y="163" type="line"/>
    </contour>
  </outline>
</glyph>
<glyph name="numbersign" format="1">
  <advance width="700"/>
  <unicode hex="0023"/>
  <note>
    numbersign
  </note>
  <outline>
    <contour>
      <point x="176" y="364" type="line"/>
      <point x="301" y="364" type="line"/>
      <point x="310" y="404" type="line"/>
      <point x="418" y="404" type="line"/>
      <point x="409" y="364" type="line"/>
      <point x="534" y="364" type="line"/>
      <point x="543" y="404" type="line"/>
      <point x="653" y="404" type="line"/>
      <point x="653" y="518" type="line"/>
      <point x="570" y="518" type="line"/>
      <point x="609" y="688" type="line"/>
      <point x="484" y="688" type="line"/>
      <point x="445" y="518" type="line"/>
      <point x="337" y="518" type="line"/>
      <point x="376" y="688" type="line"/>
      <point x="251" y="688" type="line"/>
      <point x="212" y="518" type="line"/>
      <point x="84" y="518" type="line"/>
      <point x="84" y="404" type="line"/>
      <point x="185" y="404" type="line"/>
    </contour>
    <contour>
      <point x="92" y="0" type="line"/>
      <point x="217" y="0" type="line"/>
      <point x="256" y="170" type="line"/>
      <point x="364" y="170" type="line"/>
      <point x="325" y="0" type="line"/>
      <point x="450" y="0" type="line"/>
      <point x="489" y="170" type="line"/>
      <point x="616" y="170" type="line"/>
      <point x="616" y="284" type="line"/>
      <point x="516" y="284" type="line"/>
      <point x="525" y="324" type="line"/>
      <point x="400" y="324" type="line"/>
      <point x="391" y="284" type="line"/>
      <point x="283" y="284" type="line"/>
      <point x="292" y="324" type="line"/>
      <point x="167" y="324" type="line"/>
      <point x="158" y="284" type="line"/>
      <point x="47" y="284" type="line"/>
      <point x="47" y="170" type="line"/>
      <point x="131" y="170" type="line"/>
    </contour>
  </outline>
</glyph>
<glyph name="ampersand" format="1">
  <advance width="739"/>
  <unicode hex="0026"/>
  <note>
    ampersand
  </note>
  <outline>
    <contour>
      <point x="363" y="-8" type="curve" smooth="yes"/>
      <point x="390" y="-8" type="line"/>
      <point x="390" y="137" type="line"/>
      <point x="363" y="137" type="line" smooth="yes"/>
      <point x="310" y="137"/>
      <point x="280" y="140"/>
      <point x="262" y="150" type="curve" smooth="yes"/>
      <point x="244" y="160"/>
      <point x="239" y="176"/>
      <point x="239" y="207" type="curve" smooth="yes"/>
      <point x="239" y="238"/>
      <point x="242" y="256"/>
      <point x="254" y="266" type="curve" smooth="yes"/>
      <point x="266" y="276"/>
      <point x="286" y="277"/>
      <point x="318" y="277" type="curve" smooth="yes"/>
      <point x="369" y="277" type="line"/>
      <point x="369" y="418" type="line"/>
      <point x="318" y="418" type="line" smooth="yes"/>
      <point x="286" y="418"/>
      <point x="268" y="420"/>
      <point x="258" y="429" type="curve" smooth="yes"/>
      <point x="248" y="438"/>
      <point x="245" y="455"/>
      <point x="245" y="483" type="curve" smooth="yes"/>
      <point x="245" y="690" type="line"/>
      <point x="169" y="681"/>
      <point x="120" y="661"/>
      <point x="92" y="632" type="curve" smooth="yes"/>
      <point x="63" y="603"/>
      <point x="53" y="563"/>
      <point x="53" y="515" type="curve" smooth="yes"/>
      <point x="53" y="415"/>
      <point x="92" y="372"/>
      <point x="172" y="353" type="curve"/>
      <point x="172" y="349" type="line"/>
      <point x="132" y="340"/>
      <point x="100" y="326"/>
      <point x="79" y="302" type="curve" smooth="yes"/>
      <point x="58" y="277"/>
      <point x="47" y="240"/>
      <point x="47" y="184" type="curve" smooth="yes"/>
      <point x="47" y="124"/>
      <point x="57" y="76"/>
      <point x="102" y="43" type="curve" smooth="yes"/>
      <point x="146" y="10"/>
      <point x="226" y="-8"/>
    </contour>
    <contour>
      <point x="432" y="-6" type="line"/>
      <point x="457" y="-5"/>
      <point x="481" y="-3"/>
      <point x="503" y="0" type="curve"/>
      <point x="547" y="4"/>
      <point x="584" y="9"/>
      <point x="617" y="16" type="curve"/>
      <point x="617" y="277" type="line"/>
      <point x="719" y="277" type="line"/>
      <point x="719" y="418" type="line"/>
      <point x="432" y="418" type="line"/>
    </contour>
    <contour>
      <point x="613" y="537" type="curve"/>
      <point x="613" y="672" type="line"/>
      <point x="588" y="677"/>
      <point x="562" y="681"/>
      <point x="535" y="684" type="curve"/>
      <point x="488" y="691"/>
      <point x="426" y="696"/>
      <point x="362" y="696" type="curve" smooth="yes"/>
      <point x="335" y="696"/>
      <point x="310" y="695"/>
      <point x="287" y="693" type="curve"/>
      <point x="287" y="545" type="line"/>
      <point x="310" y="549"/>
      <point x="342" y="551"/>
      <point x="393" y="551" type="curve" smooth="yes"/>
      <point x="421" y="551"/>
      <point x="448" y="550"/>
      <point x="474" y="549" type="curve"/>
      <point x="526" y="545"/>
      <point x="569" y="541"/>
    </contour>
  </outline>
</glyph>
<glyph name="quotesingle" format="1">
  <advance width="300"/>
  <unicode hex="0027"/>
  <note>
    quotesingle
  </note>
  <outline>
    <contour>
      <point x="85" y="424" type="line"/>
      <point x="215" y="424" type="line"/>
      <point x="235" y="639" type="line"/>
      <point x="235" y="688" type="line"/>
      <point x="65" y="688" type="line"/>
      <point x="65" y="639" type="line"/>
    </contour>
  </outline>
</glyph>
<glyph name="parenleft" format="1">
  <advance width="374"/>
  <unicode hex="0028"/>
  <note>
    parenleft
  </note>
  <outline>
    <contour>
      <point x="230" y="-150" type="curve"/>
      <point x="353" y="-150" type="line"/>
      <point x="328" y="-117"/>
      <point x="306" y="-89"/>
      <point x="289" y="-57" type="curve" smooth="yes"/>
      <point x="272" y="-26"/>
      <point x="258" y="11"/>
      <point x="250" y="63" type="curve" smooth="yes"/>
      <point x="241" y="115"/>
      <point x="236" y="184"/>
      <point x="235" y="277" type="curve"/>
      <point x="58" y="277" type="line"/>
      <point x="58" y="194"/>
      <point x="64" y="135"/>
      <point x="76" y="87" type="curve" smooth="yes"/>
      <point x="87" y="38"/>
      <point x="105" y="1"/>
      <point x="130" y="-35" type="curve" smooth="yes"/>
      <point x="155" y="-71"/>
      <point x="189" y="-106"/>
    </contour>
    <contour>
      <point x="58" y="317" type="curve"/>
      <point x="235" y="317" type="line"/>
      <point x="235" y="410"/>
      <point x="241" y="478"/>
      <point x="250" y="530" type="curve" smooth="yes"/>
      <point x="258" y="582"/>
      <point x="272" y="619"/>
      <point x="289" y="651" type="curve" smooth="yes"/>
      <point x="306" y="682"/>
      <point x="328" y="710"/>
      <point x="353" y="743" type="curve"/>
      <point x="230" y="743" type="line"/>
      <point x="167" y="682"/>
      <point x="125" y="636"/>
      <point x="98" y="576" type="curve" smooth="yes"/>
      <point x="71" y="515"/>
      <point x="59" y="440"/>
    </contour>
  </outline>
</glyph>
<glyph name="parenright" format="1">
  <advance width="374"/>
  <unicode hex="0029"/>
  <note>
    parenright
  </note>
  <outline>
    <contour>
      <point x="21" y="-150" type="curve"/>
      <point x="144" y="-150" type="line"/>
      <point x="185" y="-106"/>
      <point x="218" y="-71"/>
      <point x="243" y="-35" type="curve" smooth="yes"/>
      <point x="268" y="1"/>
      <point x="286" y="38"/>
      <point x="298" y="87" type="curve" smooth="yes"/>
      <point x="310" y="135"/>
      <point x="316" y="196"/>
      <point x="316" y="277" type="curve"/>
      <point x="139" y="277" type="line"/>
      <point x="138" y="136"/>
      <point x="127" y="54"/>
      <point x="107" y="-5" type="curve" smooth="yes"/>
      <point x="87" y="-64"/>
      <point x="58" y="-101"/>
    </contour>
    <contour>
      <point x="139" y="317" type="curve"/>
      <point x="316" y="317" type="line"/>
      <point x="315" y="440"/>
      <point x="303" y="515"/>
      <point x="276" y="576" type="curve" smooth="yes"/>
      <point x="248" y="636"/>
      <point x="205" y="682"/>
      <point x="144" y="743" type="curve"/>
      <point x="21" y="743" type="line"/>
      <point x="58" y="694"/>
      <point x="87" y="657"/>
      <point x="107" y="598" type="curve" smooth="yes"/>
      <point x="127" y="539"/>
      <point x="138" y="457"/>
    </contour>
  </outline>
</glyph>
<glyph name="asterisk" format="1">
  <advance width="454"/>
  <unicode hex="002A"/>
  <note>
    asterisk
  </note>
  <outline>
    <contour>
      <point x="180" y="320" type="line"/>
      <point x="274" y="320" type="line"/>
      <point x="262" y="443" type="line"/>
      <point x="365" y="370" type="line"/>
      <point x="412" y="452" type="line"/>
      <point x="297" y="503" type="line"/>
      <point x="412" y="556" type="line"/>
      <point x="365" y="638" type="line"/>
      <point x="262" y="566" type="line"/>
      <point x="274" y="688" type="line"/>
      <point x="180" y="688" type="line"/>
      <point x="192" y="565" type="line"/>
      <point x="89" y="638" type="line"/>
      <point x="42" y="556" type="line"/>
      <point x="156" y="503" type="line"/>
      <point x="42" y="452" type="line"/>
      <point x="89" y="370" type="line"/>
      <point x="192" y="443" type="line"/>
    </contour>
  </outline>
</glyph>
<glyph name="plus" format="1">
  <advance width="540"/>
  <unicode hex="002B"/>
  <note>
    plus
  </note>
  <outline>
    <contour>
      <point x="203" y="53" type="line"/>
      <point x="337" y="53" type="line"/>
      <point x="337" y="186" type="line"/>
      <point x="470" y="186" type="line"/>
      <point x="470" y="320" type="line"/>
      <point x="337" y="320" type="line"/>
      <point x="337" y="453" type="line"/>
      <point x="203" y="453" type="line"/>
      <point x="203" y="320" type="line"/>
      <point x="70" y="320" type="line"/>
      <point x="70" y="186" type="line"/>
      <point x="203" y="186" type="line"/>
    </contour>
  </outline>
</glyph>
<glyph name="hyphen" format="1">
  <advance width="379"/>
  <unicode hex="002D"/>
  <note>
    hyphen
  </note>
  <outline>
    <contour>
      <point x="47" y="210" type="line"/>
      <point x="332" y="210" type="line"/>
      <point x="332" y="359" type="line"/>
      <point x="47" y="359" type="line"/>
    </contour>
  </outline>
</glyph>
<glyph name="period" format="1">
  <advance width="330"/>
  <unicode hex="002E"/>
  <note>
    period
  </note>
  <outline>
    <contour>
      <point x="64" y="0" type="line"/>
      <point x="266" y="0" type="line"/>
      <point x="266" y="163" type="line"/>
      <point x="64" y="163" type="line"/>
    </contour>
  </outline>
</glyph>
<glyph name="slash" format="1">
  <advance width="429"/>
  <unicode hex="002F"/>
  <note>
    slash
  </note>
  <outline>
    <contour>
      <point x="-11" y="-55" type="line"/>
      <point x="149" y="-55" type="line"/>
      <point x="440" y="743" type="line"/>
      <point x="279" y="743" type="line"/>
    </contour>
  </outline>
</glyph>
<glyph name="two" format="1">
  <advance width="614"/>
  <unicode hex="0032"/>
  <note>
    two
  </note>
  <outline>
    <contour>
      <point x="47" y="0" type="line"/>
      <point x="240" y="0" type="line"/>
      <point x="240" y="158" type="line" smooth="yes"/>
      <point x="240" y="183"/>
      <point x="240" y="198"/>
      <point x="247" y="207" type="curve" smooth="yes"/>
      <point x="254" y="216"/>
      <point x="266" y="221"/>
      <point x="293" y="232" type="curve" smooth="yes"/>
      <point x="435" y="287" type="line" smooth="yes"/>
      <point x="478" y="303"/>
      <point x="511" y="324"/>
      <point x="533" y="357" type="curve" smooth="yes"/>
      <point x="555" y="389"/>
      <point x="565" y="435"/>
      <point x="565" y="500" type="curve" smooth="yes"/>
      <point x="565" y="580"/>
      <point x="543" y="628"/>
      <point x="507" y="656" type="curve" smooth="yes"/>
      <point x="471" y="684"/>
      <point x="421" y="692"/>
      <point x="365" y="695" type="curve"/>
      <point x="365" y="491" type="line" smooth="yes"/>
      <point x="365" y="468"/>
      <point x="363" y="457"/>
      <point x="354" y="447" type="curve" smooth="yes"/>
      <point x="345" y="437"/>
      <point x="326" y="429"/>
      <point x="294" y="416" type="curve" smooth="yes"/>
      <point x="177" y="369" type="line" smooth="yes"/>
      <point x="117" y="345"/>
      <point x="86" y="316"/>
      <point x="68" y="275" type="curve" smooth="yes"/>
      <point x="50" y="234"/>
      <point x="47" y="178"/>
      <point x="47" y="101" type="curve" smooth="yes"/>
    </contour>
    <contour>
      <point x="282" y="0" type="line"/>
      <point x="565" y="0" type="line"/>
      <point x="565" y="156" type="line"/>
      <point x="282" y="156" type="line"/>
    </contour>
    <contour>
      <point x="61" y="527" type="line"/>
      <point x="81" y="530"/>
      <point x="102" y="532"/>
      <point x="123" y="535" type="curve" smooth="yes"/>
      <point x="159" y="539"/>
      <point x="205" y="543"/>
      <point x="244" y="543" type="curve" smooth="yes"/>
      <point x="279" y="543"/>
      <point x="304" y="543"/>
      <point x="323" y="540" type="curve"/>
      <point x="323" y="696" type="line"/>
      <point x="226" y="698"/>
      <point x="139" y="688"/>
      <point x="61" y="671" type="curve"/>
    </contour>
  </outline>
</glyph>
<glyph name="four" format="1">
  <advance width="654"/>
  <unicode hex="0034"/>
  <note>
    four
  </note>
  <outline>
    <contour>
      <point x="30" y="133" type="line"/>
      <point x="161" y="133" type="line"/>
      <point x="472" y="688" type="line"/>
      <point x="254" y="688" type="line"/>
      <point x="30" y="269" type="line"/>
    </contour>
    <contour>
      <point x="349" y="0" type="line"/>
      <point x="545" y="0" type="line"/>
      <point x="545" y="133" type="line"/>
      <point x="629" y="133" type="line"/>
      <point x="629" y="286" type="line"/>
      <point x="545" y="286" type="line"/>
      <point x="545" y="423" type="line"/>
      <point x="425" y="423" type="line"/>
      <point x="350" y="286" type="line"/>
      <point x="295" y="286" type="line"/>
      <point x="209" y="133" type="line"/>
      <point x="349" y="133" type="line"/>
    </contour>
  </outline>
</glyph>
<glyph name="five" format="1">
  <advance width="628"/>
  <unicode hex="0035"/>
  <note>
    five
  </note>
  <outline>
    <contour>
      <point x="377" y="-4" type="line"/>
      <point x="458" y="4"/>
      <point x="511" y="25"/>
      <point x="541" y="63" type="curve" smooth="yes"/>
      <point x="571" y="101"/>
      <point x="581" y="155"/>
      <point x="581" y="230" type="curve" smooth="yes"/>
      <point x="581" y="294"/>
      <point x="572" y="347"/>
      <point x="541" y="383" type="curve" smooth="yes"/>
      <point x="510" y="419"/>
      <point x="458" y="440"/>
      <point x="373" y="440" type="curve" smooth="yes"/>
      <point x="330" y="440"/>
      <point x="298" y="438"/>
      <point x="275" y="437" type="curve"/>
      <point x="242" y="434" type="line"/>
      <point x="242" y="688" type="line"/>
      <point x="73" y="688" type="line"/>
      <point x="73" y="276" type="line"/>
      <point x="92" y="277"/>
      <point x="112" y="279"/>
      <point x="134" y="281" type="curve" smooth="yes"/>
      <point x="171" y="284"/>
      <point x="221" y="287"/>
      <point x="274" y="287" type="curve" smooth="yes"/>
      <point x="318" y="287"/>
      <point x="344" y="285"/>
      <point x="359" y="275" type="curve" smooth="yes"/>
      <point x="374" y="265"/>
      <point x="377" y="247"/>
      <point x="377" y="215" type="curve" smooth="yes"/>
    </contour>
    <contour>
      <point x="287" y="-8" type="curve" smooth="yes"/>
      <point x="303" y="-8"/>
      <point x="319" y="-8"/>
      <point x="335" y="-7" type="curve"/>
      <point x="335" y="148" type="line"/>
      <point x="312" y="146"/>
      <point x="288" y="146"/>
      <point x="265" y="146" type="curve" smooth="yes"/>
      <point x="195" y="146"/>
      <point x="127" y="152"/>
      <point x="65" y="159" type="curve"/>
      <point x="65" y="16" type="line"/>
      <point x="115" y="4"/>
      <point x="200" y="-8"/>
    </contour>
    <contour>
      <point x="284" y="533" type="line"/>
      <point x="530" y="533" type="line"/>
      <point x="530" y="688" type="line"/>
      <point x="284" y="688" type="line"/>
    </contour>
  </outline>
</glyph>
<glyph name="seven" format="1">
  <advance width="576"/>
  <unicode hex="0037"/>
  <note>
    seven
  </note>
  <outline>
    <contour>
      <point x="89" y="0" type="line"/>
      <point x="308" y="0" type="line"/>
      <point x="522" y="493" type="line"/>
      <point x="314" y="493" type="line"/>
    </contour>
    <contour>
      <point x="31" y="533" type="line"/>
      <point x="540" y="533" type="line"/>
      <point x="546" y="547" type="line"/>
      <point x="546" y="688" type="line"/>
      <point x="31" y="688" type="line"/>
    </contour>
  </outline>
</glyph>
<glyph name="eight" format="1">
  <advance width="676"/>
  <unicode hex="0038"/>
  <note>
    eight
  </note>
  <outline>
    <contour>
      <point x="338" y="-8" type="curve" smooth="yes"/>
      <point x="361" y="-8" type="line" smooth="yes"/>
      <point x="368" y="-8"/>
      <point x="376" y="-8"/>
      <point x="383" y="-7" type="curve"/>
      <point x="383" y="139" type="line"/>
      <point x="377" y="138"/>
      <point x="370" y="137"/>
      <point x="363" y="137" type="curve" smooth="yes"/>
      <point x="338" y="137" type="line" smooth="yes"/>
      <point x="302" y="137"/>
      <point x="281" y="139"/>
      <point x="268" y="149" type="curve" smooth="yes"/>
      <point x="255" y="159"/>
      <point x="251" y="175"/>
      <point x="251" y="207" type="curve" smooth="yes"/>
      <point x="251" y="239"/>
      <point x="255" y="258"/>
      <point x="268" y="268" type="curve" smooth="yes"/>
      <point x="281" y="278"/>
      <point x="302" y="279"/>
      <point x="338" y="279" type="curve" smooth="yes"/>
      <point x="374" y="279"/>
      <point x="395" y="278"/>
      <point x="408" y="268" type="curve" smooth="yes"/>
      <point x="421" y="258"/>
      <point x="425" y="239"/>
      <point x="425" y="207" type="curve" smooth="yes"/>
      <point x="425" y="-4" type="line"/>
      <point x="506" y="4"/>
      <point x="557" y="25"/>
      <point x="588" y="57" type="curve" smooth="yes"/>
      <point x="619" y="89"/>
      <point x="629" y="132"/>
      <point x="629" y="184" type="curve" smooth="yes"/>
      <point x="629" y="240"/>
      <point x="618" y="277"/>
      <point x="597" y="302" type="curve" smooth="yes"/>
      <point x="576" y="326"/>
      <point x="544" y="340"/>
      <point x="504" y="349" type="curve"/>
      <point x="504" y="353" type="line"/>
      <point x="584" y="372"/>
      <point x="623" y="415"/>
      <point x="623" y="515" type="curve" smooth="yes"/>
      <point x="623" y="575"/>
      <point x="607" y="619"/>
      <point x="563" y="650" type="curve" smooth="yes"/>
      <point x="519" y="681"/>
      <point x="447" y="696"/>
      <point x="338" y="696" type="curve" smooth="yes"/>
      <point x="318" y="696" type="line" smooth="yes"/>
      <point x="311" y="696"/>
      <point x="305" y="696"/>
      <point x="299" y="695" type="curve"/>
      <point x="299" y="549" type="line"/>
      <point x="304" y="550"/>
      <point x="310" y="551"/>
      <point x="317" y="551" type="curve" smooth="yes"/>
      <point x="338" y="551" type="line" smooth="yes"/>
      <point x="374" y="551"/>
      <point x="394" y="550"/>
      <point x="406" y="540" type="curve"/>
      <point x="417" y="530"/>
      <point x="419" y="512"/>
      <point x="419" y="483" type="curve" smooth="yes"/>
      <point x="419" y="452"/>
      <point x="417" y="436"/>
      <point x="406" y="427" type="curve"/>
      <point x="394" y="418"/>
      <point x="374" y="416"/>
      <point x="338" y="416" type="curve" smooth="yes"/>
      <point x="302" y="416"/>
      <point x="282" y="418"/>
      <point x="271" y="427" type="curve"/>
      <point x="259" y="436"/>
      <point x="257" y="452"/>
      <point x="257" y="483" type="curve" smooth="yes"/>
      <point x="257" y="692" type="line"/>
      <point x="180" y="685"/>
      <point x="129" y="666"/>
      <point x="97" y="637" type="curve" smooth="yes"/>
      <point x="65" y="608"/>
      <point x="53" y="567"/>
      <point x="53" y="515" type="curve" smooth="yes"/>
      <point x="53" y="415"/>
      <point x="92" y="372"/>
      <point x="172" y="353" type="curve"/>
      <point x="172" y="349" type="line"/>
      <point x="132" y="340"/>
      <point x="100" y="326"/>
      <point x="79" y="302" type="curve" smooth="yes"/>
      <point x="58" y="277"/>
      <point x="47" y="240"/>
      <point x="47" y="184" type="curve" smooth="yes"/>
      <point x="47" y="124"/>
      <point x="60" y="76"/>
      <point x="104" y="43" type="curve" smooth="yes"/>
      <point x="147" y="10"/>
      <point x="219" y="-8"/>
    </contour>
  </outline>
</glyph>
<glyph name="nine" format="1">
  <advance width="662"/>
  <unicode hex="0039"/>
  <note>
    nine
  </note>
  <outline>
    <contour>
      <point x="411" y="-3" type="line"/>
      <point x="494" y="6"/>
      <point x="546" y="31"/>
      <point x="576" y="85" type="curve" smooth="yes"/>
      <point x="606" y="139"/>
      <point x="615" y="220"/>
      <point x="615" y="344" type="curve" smooth="yes"/>
      <point x="615" y="505"/>
      <point x="601" y="594"/>
      <point x="557" y="642" type="curve" smooth="yes"/>
      <point x="513" y="689"/>
      <point x="440" y="696"/>
      <point x="320" y="696" type="curve" smooth="yes"/>
      <point x="301" y="696" type="line" smooth="yes"/>
      <point x="295" y="696"/>
      <point x="289" y="696"/>
      <point x="283" y="695" type="curve"/>
      <point x="283" y="541" type="line"/>
      <point x="289" y="542"/>
      <point x="296" y="543"/>
      <point x="303" y="543" type="curve" smooth="yes"/>
      <point x="328" y="543" type="line" smooth="yes"/>
      <point x="357" y="543"/>
      <point x="379" y="544"/>
      <point x="392" y="534" type="curve" smooth="yes"/>
      <point x="405" y="524"/>
      <point x="411" y="505"/>
      <point x="411" y="466" type="curve" smooth="yes"/>
    </contour>
    <contour>
      <point x="369" y="-7" type="curve"/>
      <point x="369" y="158" type="line"/>
      <point x="349" y="147"/>
      <point x="319" y="145"/>
      <point x="275" y="145" type="curve" smooth="yes"/>
      <point x="236" y="145"/>
      <point x="141" y="153"/>
      <point x="85" y="159" type="curve"/>
      <point x="85" y="16" type="line"/>
      <point x="156" y="2"/>
      <point x="264" y="-9"/>
    </contour>
    <contour>
      <point x="263" y="248" type="curve" smooth="yes"/>
      <point x="314" y="248"/>
      <point x="346" y="258"/>
      <point x="369" y="269" type="curve"/>
      <point x="369" y="404" type="line"/>
      <point x="358" y="402"/>
      <point x="344" y="401"/>
      <point x="328" y="401" type="curve" smooth="yes"/>
      <point x="292" y="401"/>
      <point x="271" y="403"/>
      <point x="258" y="413" type="curve" smooth="yes"/>
      <point x="245" y="423"/>
      <point x="241" y="441"/>
      <point x="241" y="473" type="curve" smooth="yes"/>
      <point x="241" y="693" type="line"/>
      <point x="162" y="686"/>
      <point x="114" y="667"/>
      <point x="86" y="629" type="curve" smooth="yes"/>
      <point x="57" y="591"/>
      <point x="47" y="534"/>
      <point x="47" y="454" type="curve" smooth="yes"/>
      <point x="47" y="362"/>
      <point x="67" y="310"/>
      <point x="104" y="282" type="curve" smooth="yes"/>
      <point x="140" y="253"/>
      <point x="194" y="248"/>
    </contour>
  </outline>
</glyph>
<glyph name="A" format="1">
  <advance width="687"/>
  <unicode hex="0041"/>
  <note>
    A
  </note>
  <outline>
    <contour>
      <point x="481" y="0" type="line"/>
      <point x="685" y="0" type="line"/>
      <point x="466" y="688" type="line"/>
      <point x="283" y="688" type="line"/>
      <point x="401" y="276" type="line"/>
      <point x="321" y="276" type="line"/>
      <point x="279" y="122" type="line"/>
      <point x="446" y="122" type="line"/>
    </contour>
    <contour>
      <point x="2" y="0" type="line"/>
      <point x="202" y="0" type="line"/>
      <point x="317" y="414" type="line"/>
      <point x="238" y="688" type="line"/>
      <point x="221" y="688" type="line"/>
    </contour>
    <contour>
      <point x="343" y="0" type="move" name="bottom"/>
    </contour>
    <contour>
      <point x="597" y="-4" type="move" name="ogonek"/>
    </contour>
    <contour>
      <point x="340" y="688" type="move" name="top"/>
    </contour>
  </outline>
</glyph>
<glyph name="I" format="1">
  <advance width="330"/>
  <unicode hex="0049"/>
  <note>
    I
  </note>
  <outline>
    <contour>
      <point x="65" y="0" type="line"/>
      <point x="265" y="0" type="line"/>
      <point x="265" y="688" type="line"/>
      <point x="65" y="688" type="line"/>
    </contour>
    <contour>
      <point x="168" y="0" type="move" name="bottom"/>
    </contour>
    <contour>
      <point x="177" y="-4" type="move" name="ogonek"/>
    </contour>
    <contour>
      <point x="164" y="688" type="move" name="top"/>
    </contour>
  </outline>
</glyph>
<glyph name="M" format="1">
  <advance width="885"/>
  <unicode hex="004D"/>
  <note>
    M
  </note>
  <outline>
    <contour>
      <point x="374" y="0" type="line"/>
      <point x="504" y="0" type="line"/>
      <point x="537" y="76" type="line"/>
      <point x="249" y="688" type="line"/>
      <point x="65" y="688" type="line"/>
      <point x="65" y="658" type="line"/>
    </contour>
    <contour>
      <point x="65" y="0" type="line"/>
      <point x="249" y="0" type="line"/>
      <point x="249" y="167" type="line"/>
      <point x="65" y="559" type="line"/>
    </contour>
    <contour>
      <point x="630" y="0" type="line"/>
      <point x="820" y="0" type="line"/>
      <point x="820" y="688" type="line"/>
      <point x="630" y="688" type="line"/>
      <point x="473" y="311" type="line"/>
      <point x="559" y="127" type="line"/>
      <point x="626" y="289" type="line"/>
      <point x="630" y="289" type="line"/>
    </contour>
  </outline>
</glyph>
<glyph name="Q" format="1">
  <advance width="698"/>
  <unicode hex="0051"/>
  <note>
    Q
  </note>
  <outline>
    <contour>
      <point x="512" y="-115" type="line"/>
      <point x="736" y="-115" type="line"/>
      <point x="736" y="-109" type="line"/>
      <point x="604" y="69" type="line"/>
      <point x="647" y="128"/>
      <point x="651" y="219"/>
      <point x="651" y="344" type="curve" smooth="yes"/>
      <point x="651" y="477"/>
      <point x="650" y="567"/>
      <point x="612" y="621" type="curve" smooth="yes"/>
      <point x="574" y="675"/>
      <point x="497" y="696"/>
      <point x="349" y="696" type="curve" smooth="yes"/>
      <point x="320" y="696" type="line" smooth="yes"/>
      <point x="311" y="696"/>
      <point x="302" y="696"/>
      <point x="293" y="695" type="curve"/>
      <point x="293" y="539" type="line"/>
      <point x="306" y="543"/>
      <point x="325" y="543"/>
      <point x="349" y="543" type="curve" smooth="yes"/>
      <point x="374" y="543"/>
      <point x="393" y="542"/>
      <point x="406" y="540" type="curve" smooth="yes"/>
      <point x="433" y="535"/>
      <point x="444" y="512"/>
      <point x="446" y="458" type="curve" smooth="yes"/>
      <point x="447" y="431"/>
      <point x="447" y="393"/>
      <point x="447" y="344" type="curve" smooth="yes"/>
      <point x="447" y="-2" type="line"/>
    </contour>
    <contour>
      <point x="349" y="-8" type="curve" smooth="yes"/>
      <point x="369" y="-8"/>
      <point x="386" y="-7"/>
      <point x="405" y="-6" type="curve"/>
      <point x="405" y="148" type="line"/>
      <point x="390" y="145"/>
      <point x="373" y="145"/>
      <point x="349" y="145" type="curve" smooth="yes"/>
      <point x="324" y="145"/>
      <point x="305" y="146"/>
      <point x="292" y="149" type="curve"/>
      <point x="265" y="153"/>
      <point x="255" y="177"/>
      <point x="253" y="231" type="curve" smooth="yes"/>
      <point x="252" y="258"/>
      <point x="251" y="295"/>
      <point x="251" y="344" type="curve" smooth="yes"/>
      <point x="251" y="692" type="line"/>
      <point x="151" y="681"/>
      <point x="100" y="654"/>
      <point x="74" y="599" type="curve" smooth="yes"/>
      <point x="48" y="543"/>
      <point x="47" y="461"/>
      <point x="47" y="344" type="curve" smooth="yes"/>
      <point x="47" y="255"/>
      <point x="47" y="186"/>
      <point x="59" y="134" type="curve" smooth="yes"/>
      <point x="71" y="82"/>
      <point x="94" y="46"/>
      <point x="139" y="24" type="curve" smooth="yes"/>
      <point x="183" y="2"/>
      <point x="250" y="-8"/>
    </contour>
  </outline>
</glyph>
<glyph name="R" format="1">
  <advance width="674"/>
  <unicode hex="0052"/>
  <note>
    R
  </note>
  <outline>
    <contour>
      <point x="435" y="0" type="line"/>
      <point x="645" y="0" type="line"/>
      <point x="541" y="257" type="line"/>
      <point x="580" y="274"/>
      <point x="602" y="301"/>
      <point x="615" y="336" type="curve" smooth="yes"/>
      <point x="627" y="371"/>
      <point x="630" y="413"/>
      <point x="630" y="461" type="curve" smooth="yes"/>
      <point x="630" y="536"/>
      <point x="624" y="593"/>
      <point x="593" y="631" type="curve" smooth="yes"/>
      <point x="561" y="669"/>
      <point x="506" y="688"/>
      <point x="410" y="688" type="curve" smooth="yes"/>
      <point x="307" y="688" type="line"/>
      <point x="307" y="535" type="line"/>
      <point x="341" y="535" type="line" smooth="yes"/>
      <point x="380" y="535"/>
      <point x="401" y="534"/>
      <point x="413" y="524" type="curve" smooth="yes"/>
      <point x="425" y="514"/>
      <point x="427" y="494"/>
      <point x="427" y="461" type="curve" smooth="yes"/>
      <point x="427" y="428"/>
      <point x="425" y="409"/>
      <point x="413" y="399" type="curve" smooth="yes"/>
      <point x="401" y="389"/>
      <point x="380" y="387"/>
      <point x="341" y="387" type="curve" smooth="yes"/>
      <point x="307" y="387" type="line"/>
      <point x="307" y="234" type="line"/>
      <point x="347" y="234" type="line"/>
    </contour>
    <contour>
      <point x="65" y="0" type="line"/>
      <point x="265" y="0" type="line"/>
      <point x="265" y="688" type="line"/>
      <point x="65" y="688" type="line"/>
    </contour>
    <contour>
      <point x="334" y="0" type="move" name="bottom"/>
    </contour>
    <contour>
      <point x="330" y="688" type="move" name="top"/>
    </contour>
  </outline>
</glyph>
<glyph name="W" format="1">
  <advance width="996"/>
  <unicode hex="0057"/>
  <note>
    W
  </note>
  <outline>
    <contour>
      <point x="393" y="0" type="line"/>
      <point x="404" y="0" type="line" smooth="yes"/>
      <point x="404" y="0"/>
      <point x="407" y="11"/>
      <point x="412" y="33" type="curve" smooth="yes"/>
      <point x="417" y="54"/>
      <point x="423" y="83"/>
      <point x="432" y="120" type="curve" smooth="yes"/>
      <point x="441" y="157"/>
      <point x="450" y="199"/>
      <point x="461" y="247" type="curve" smooth="yes"/>
      <point x="495" y="398" type="line"/>
      <point x="501" y="398" type="line"/>
      <point x="513" y="345"/>
      <point x="525" y="295"/>
      <point x="537" y="247" type="curve" smooth="yes"/>
      <point x="548" y="199"/>
      <point x="558" y="157"/>
      <point x="567" y="120" type="curve" smooth="yes"/>
      <point x="588" y="33" type="line" smooth="yes"/>
      <point x="593" y="11"/>
      <point x="596" y="0"/>
      <point x="596" y="0" type="curve" smooth="yes"/>
      <point x="767" y="0" type="line"/>
      <point x="603" y="688" type="line"/>
      <point x="398" y="688" type="line"/>
      <point x="323" y="344" type="line"/>
    </contour>
    <contour>
      <point x="173" y="0" type="curve" smooth="yes"/>
      <point x="351" y="0" type="line"/>
      <point x="209" y="688" type="line"/>
      <point x="10" y="688" type="line"/>
      <point x="91" y="343" type="line" smooth="yes"/>
      <point x="101" y="300"/>
      <point x="111" y="258"/>
      <point x="121" y="217" type="curve" smooth="yes"/>
      <point x="148" y="107" type="line" smooth="yes"/>
      <point x="155" y="74"/>
      <point x="161" y="48"/>
      <point x="166" y="29" type="curve" smooth="yes"/>
      <point x="171" y="10"/>
      <point x="173" y="0"/>
    </contour>
    <contour>
      <point x="810" y="0" type="line"/>
      <point x="822" y="0" type="line" smooth="yes"/>
      <point x="822" y="0"/>
      <point x="824" y="10"/>
      <point x="829" y="29" type="curve" smooth="yes"/>
      <point x="834" y="48"/>
      <point x="840" y="74"/>
      <point x="848" y="107" type="curve" smooth="yes"/>
      <point x="855" y="139"/>
      <point x="864" y="176"/>
      <point x="874" y="217" type="curve" smooth="yes"/>
      <point x="904" y="343" type="line" smooth="yes"/>
      <point x="928" y="444"/>
      <point x="955" y="559"/>
      <point x="986" y="688" type="curve"/>
      <point x="787" y="688" type="line"/>
      <point x="727" y="350" type="line"/>
    </contour>
    <contour>
      <point x="495" y="688" type="move" name="top"/>
    </contour>
  </outline>
</glyph>
<glyph name="X" format="1">
  <advance width="678"/>
  <unicode hex="0058"/>
  <note>
    X
  </note>
  <outline>
    <contour>
      <point x="445" y="0" type="line"/>
      <point x="673" y="0" type="line"/>
      <point x="236" y="688" type="line"/>
      <point x="9" y="688" type="line"/>
    </contour>
    <contour>
      <point x="5" y="0" type="line"/>
      <point x="224" y="0" type="line"/>
      <point x="301" y="147" type="line"/>
      <point x="197" y="312" type="line"/>
    </contour>
    <contour>
      <point x="480" y="382" type="line"/>
      <point x="670" y="688" type="line"/>
      <point x="451" y="688" type="line"/>
      <point x="375" y="548" type="line"/>
    </contour>
  </outline>
</glyph>
<glyph name="Y" format="1">
  <advance width="633"/>
  <unicode hex="0059"/>
  <note>
    Y
  </note>
  <outline>
    <contour>
      <point x="216" y="0" type="line"/>
      <point x="416" y="0" type="line"/>
      <point x="416" y="226" type="line"/>
      <point x="199" y="688" type="line"/>
      <point x="-5" y="688" type="line"/>
      <point x="36" y="601"/>
      <point x="73" y="524"/>
      <point x="105" y="457" type="curve" smooth="yes"/>
      <point x="146" y="372" type="line" smooth="yes"/>
      <point x="159" y="344"/>
      <point x="170" y="319"/>
      <point x="181" y="298" type="curve" smooth="yes"/>
      <point x="192" y="277"/>
      <point x="200" y="260"/>
      <point x="207" y="247" type="curve"/>
      <point x="216" y="227" type="line"/>
    </contour>
    <contour>
      <point x="439" y="275" type="line"/>
      <point x="446" y="290"/>
      <point x="454" y="307"/>
      <point x="464" y="327" type="curve" smooth="yes"/>
      <point x="527" y="458" type="line" smooth="yes"/>
      <point x="538" y="481"/>
      <point x="549" y="504"/>
      <point x="560" y="526" type="curve" smooth="yes"/>
      <point x="585" y="577"/>
      <point x="611" y="631"/>
      <point x="638" y="688" type="curve"/>
      <point x="438" y="688" type="line"/>
      <point x="345" y="475" type="line"/>
    </contour>
    <contour>
      <point x="312" y="0" type="move" name="bottom"/>
    </contour>
    <contour>
      <point x="326" y="688" type="move" name="top"/>
    </contour>
  </outline>
</glyph>
<glyph name="Z" format="1">
  <advance width="618"/>
  <unicode hex="005A"/>
  <note>
    Z
  </note>
  <outline>
    <contour>
      <point x="40" y="0" type="line"/>
      <point x="172" y="0" type="line"/>
      <point x="540" y="495" type="line"/>
      <point x="298" y="495" type="line"/>
      <point x="40" y="147" type="line"/>
    </contour>
    <contour>
      <point x="224" y="0" type="line"/>
      <point x="578" y="0" type="line"/>
      <point x="578" y="153" type="line"/>
      <point x="338" y="153" type="line"/>
    </contour>
    <contour>
      <point x="51" y="535" type="line"/>
      <point x="570" y="535" type="line"/>
      <point x="578" y="546" type="line"/>
      <point x="578" y="688" type="line"/>
      <point x="51" y="688" type="line"/>
    </contour>
    <contour>
      <point x="317" y="688" type="move" name="top"/>
    </contour>
  </outline>
</glyph>
<glyph name="asciicircum" format="1">
  <advance width="426"/>
  <unicode hex="005E"/>
  <note>
    asciicircum
  </note>
  <outline>
    <contour>
      <point x="5" y="444" type="line"/>
      <point x="139" y="444" type="line"/>
      <point x="213" y="629" type="line"/>
      <point x="287" y="444" type="line"/>
      <point x="421" y="444" type="line"/>
      <point x="394" y="501"/>
      <point x="371" y="552"/>
      <point x="350" y="597" type="curve" smooth="yes"/>
      <point x="331" y="636"/>
      <point x="314" y="672"/>
      <point x="301" y="701" type="curve" smooth="yes"/>
      <point x="294" y="718"/>
      <point x="286" y="734"/>
      <point x="279" y="749" type="curve"/>
      <point x="147" y="749" type="line"/>
    </contour>
  </outline>
</glyph>
<glyph name="grave" format="1">
  <advance width="311"/>
  <unicode hex="0060"/>
  <note>
    grave
  </note>
  <outline>
    <contour>
      <point x="155" y="596" type="line"/>
      <point x="291" y="596" type="line"/>
      <point x="291" y="601" type="line"/>
      <point x="203" y="743" type="line"/>
      <point x="20" y="743" type="line"/>
      <point x="20" y="738" type="line"/>
    </contour>
    <contour>
      <point x="212" y="510" type="move" name="_top"/>
    </contour>
  </outline>
</glyph>
<glyph name="c" format="1">
  <advance width="465"/>
  <unicode hex="0063"/>
  <note>
    c
  </note>
  <outline>
    <contour>
      <point x="265" y="-8" type="curve" smooth="yes"/>
      <point x="333" y="-8"/>
      <point x="386" y="1"/>
      <point x="423" y="10" type="curve"/>
      <point x="423" y="140" type="line"/>
      <point x="412" y="139"/>
      <point x="401" y="137"/>
      <point x="389" y="136" type="curve"/>
      <point x="369" y="133"/>
      <point x="343" y="133"/>
      <point x="316" y="133" type="curve" smooth="yes"/>
      <point x="276" y="133"/>
      <point x="255" y="138"/>
      <point x="243" y="155" type="curve" smooth="yes"/>
      <point x="231" y="172"/>
      <point x="230" y="203"/>
      <point x="230" y="255" type="curve" smooth="yes"/>
      <point x="230" y="516" type="line"/>
      <point x="139" y="509"/>
      <point x="92" y="480"/>
      <point x="68" y="433" type="curve" smooth="yes"/>
      <point x="44" y="386"/>
      <point x="42" y="323"/>
      <point x="42" y="254" type="curve" smooth="yes"/>
      <point x="42" y="179"/>
      <point x="44" y="114"/>
      <point x="73" y="67" type="curve" smooth="yes"/>
      <point x="101" y="20"/>
      <point x="157" y="-8"/>
    </contour>
    <contour>
      <point x="419" y="370" type="line"/>
      <point x="419" y="500" type="line"/>
      <point x="383" y="508"/>
      <point x="336" y="517"/>
      <point x="272" y="518" type="curve"/>
      <point x="272" y="373" type="line"/>
      <point x="282" y="376"/>
      <point x="297" y="377"/>
      <point x="316" y="377" type="curve" smooth="yes"/>
      <point x="343" y="377"/>
      <point x="369" y="376"/>
      <point x="388" y="373" type="curve"/>
    </contour>
    <contour>
      <point x="211" y="0" type="move" name="bottom"/>
    </contour>
    <contour>
      <point x="254" y="510" type="move" name="top"/>
    </contour>
  </outline>
</glyph>
<glyph name="e" format="1">
  <advance width="557"/>
  <unicode hex="0065"/>
  <note>
    e
  </note>
  <outline>
    <contour>
      <point x="302" y="-8" type="curve" smooth="yes"/>
      <point x="332" y="-8"/>
      <point x="359" y="-7"/>
      <point x="382" y="-5" type="curve" smooth="yes"/>
      <point x="429" y="-2"/>
      <point x="464" y="3"/>
      <point x="492" y="11" type="curve"/>
      <point x="492" y="140" type="line"/>
      <point x="475" y="139"/>
      <point x="458" y="137"/>
      <point x="441" y="136" type="curve"/>
      <point x="412" y="133"/>
      <point x="376" y="133"/>
      <point x="348" y="133" type="curve" smooth="yes"/>
      <point x="319" y="133"/>
      <point x="296" y="134"/>
      <point x="280" y="135" type="curve" smooth="yes"/>
      <point x="263" y="136"/>
      <point x="251" y="139"/>
      <point x="243" y="144" type="curve" smooth="yes"/>
      <point x="227" y="154"/>
      <point x="226" y="174"/>
      <point x="226" y="214" type="curve" smooth="yes"/>
      <point x="226" y="516" type="line"/>
      <point x="138" y="509"/>
      <point x="92" y="484"/>
      <point x="68" y="441" type="curve" smooth="yes"/>
      <point x="44" y="397"/>
      <point x="42" y="335"/>
      <point x="42" y="254" type="curve" smooth="yes"/>
      <point x="42" y="165"/>
      <point x="45" y="100"/>
      <point x="79" y="57" type="curve" smooth="yes"/>
      <point x="113" y="13"/>
      <point x="178" y="-8"/>
    </contour>
    <contour>
      <point x="268" y="214" type="line"/>
      <point x="512" y="214" type="line"/>
      <point x="512" y="254" type="line" smooth="yes"/>
      <point x="512" y="349"/>
      <point x="512" y="416"/>
      <point x="483" y="458" type="curve" smooth="yes"/>
      <point x="454" y="500"/>
      <point x="397" y="518"/>
      <point x="282" y="518" type="curve" smooth="yes"/>
      <point x="268" y="518" type="line"/>
      <point x="268" y="391" type="line"/>
      <point x="282" y="391" type="line" smooth="yes"/>
      <point x="306" y="391"/>
      <point x="319" y="389"/>
      <point x="327" y="377" type="curve" smooth="yes"/>
      <point x="335" y="365"/>
      <point x="338" y="344"/>
      <point x="338" y="305" type="curve"/>
      <point x="268" y="305" type="line"/>
    </contour>
    <contour>
      <point x="284" y="0" type="move" name="bottom"/>
    </contour>
    <contour>
      <point x="404" y="7" type="move" name="ogonek"/>
    </contour>
    <contour>
      <point x="290" y="510" type="move" name="top"/>
    </contour>
  </outline>
</glyph>
<glyph name="k" format="1">
  <advance width="576"/>
  <unicode hex="006B"/>
  <note>
    k
  </note>
  <outline>
    <contour>
      <point x="367" y="0" type="line"/>
      <point x="569" y="0" type="line"/>
      <point x="416" y="268" type="line"/>
      <point x="566" y="510" type="line"/>
      <point x="371" y="510" type="line"/>
      <point x="284" y="358" type="line"/>
      <point x="284" y="146" type="line"/>
    </contour>
    <contour>
      <point x="57" y="0" type="line"/>
      <point x="242" y="0" type="line"/>
      <point x="242" y="743" type="line"/>
      <point x="57" y="743" type="line"/>
    </contour>
    <contour>
      <point x="290" y="0" type="move" name="bottom"/>
    </contour>
  </outline>
</glyph>
<glyph name="l" format="1">
  <advance width="299"/>
  <unicode hex="006C"/>
  <note>
    l
  </note>
  <outline>
    <contour>
      <point x="57" y="0" type="line"/>
      <point x="242" y="0" type="line"/>
      <point x="242" y="743" type="line"/>
      <point x="57" y="743" type="line"/>
    </contour>
    <contour>
      <point x="147" y="0" type="move" name="bottom"/>
    </contour>
    <contour>
      <point x="151" y="369" type="move" name="center"/>
    </contour>
    <contour>
      <point x="149" y="750" type="move" name="top"/>
    </contour>
  </outline>
</glyph>
<glyph name="m" format="1">
  <advance width="857"/>
  <unicode hex="006D"/>
  <note>
    m
  </note>
  <outline>
    <contour>
      <point x="615" y="0" type="line"/>
      <point x="800" y="0" type="line"/>
      <point x="800" y="319" type="line" smooth="yes"/>
      <point x="800" y="378"/>
      <point x="796" y="427"/>
      <point x="776" y="462" type="curve" smooth="yes"/>
      <point x="756" y="497"/>
      <point x="721" y="517"/>
      <point x="660" y="517" type="curve" smooth="yes"/>
      <point x="617" y="517"/>
      <point x="572" y="507"/>
      <point x="540" y="475" type="curve"/>
      <point x="548" y="459"/>
      <point x="553" y="437"/>
      <point x="557" y="417" type="curve"/>
      <point x="560" y="396"/>
      <point x="562" y="376"/>
      <point x="563" y="363" type="curve"/>
      <point x="568" y="363" type="line" smooth="yes"/>
      <point x="592" y="363"/>
      <point x="604" y="363"/>
      <point x="610" y="348" type="curve" smooth="yes"/>
      <point x="613" y="340"/>
      <point x="615" y="328"/>
      <point x="615" y="311" type="curve" smooth="yes"/>
      <point x="615" y="241" type="line"/>
    </contour>
    <contour>
      <point x="57" y="0" type="line"/>
      <point x="242" y="0" type="line"/>
      <point x="242" y="510" type="line"/>
      <point x="57" y="510" type="line"/>
    </contour>
    <contour>
      <point x="336" y="0" type="line"/>
      <point x="521" y="0" type="line"/>
      <point x="521" y="319" type="line" smooth="yes"/>
      <point x="521" y="406"/>
      <point x="508" y="455"/>
      <point x="485" y="483" type="curve" smooth="yes"/>
      <point x="462" y="511"/>
      <point x="429" y="517"/>
      <point x="392" y="517" type="curve" smooth="yes"/>
      <point x="355" y="517"/>
      <point x="316" y="512"/>
      <point x="284" y="488" type="curve"/>
      <point x="284" y="363" type="line"/>
      <point x="289" y="363" type="line" smooth="yes"/>
      <point x="313" y="363"/>
      <point x="325" y="363"/>
      <point x="331" y="348" type="curve" smooth="yes"/>
      <point x="334" y="340"/>
      <point x="336" y="328"/>
      <point x="336" y="311" type="curve" smooth="yes"/>
      <point x="336" y="241" type="line"/>
    </contour>
  </outline>
</glyph>
<glyph name="n" format="1">
  <advance width="588"/>
  <unicode hex="006E"/>
  <note>
    n
  </note>
  <outline>
    <contour>
      <point x="346" y="0" type="line"/>
      <point x="531" y="0" type="line"/>
      <point x="531" y="319" type="line" smooth="yes"/>
      <point x="531" y="378"/>
      <point x="527" y="427"/>
      <point x="507" y="462" type="curve" smooth="yes"/>
      <point x="487" y="497"/>
      <point x="450" y="517"/>
      <point x="386" y="517" type="curve" smooth="yes"/>
      <point x="351" y="517"/>
      <point x="315" y="511"/>
      <point x="284" y="488" type="curve"/>
      <point x="284" y="363" type="line"/>
      <point x="294" y="363" type="line" smooth="yes"/>
      <point x="319" y="363"/>
      <point x="334" y="363"/>
      <point x="340" y="348" type="curve" smooth="yes"/>
      <point x="343" y="340"/>
      <point x="344" y="328"/>
      <point x="345" y="311" type="curve" smooth="yes"/>
      <point x="346" y="294"/>
      <point x="346" y="271"/>
      <point x="346" y="241" type="curve" smooth="yes"/>
    </contour>
    <contour>
      <point x="57" y="0" type="line"/>
      <point x="242" y="0" type="line"/>
      <point x="242" y="510" type="line"/>
      <point x="57" y="510" type="line"/>
    </contour>
    <contour>
      <point x="291" y="0" type="move" name="bottom"/>
    </contour>
    <contour>
      <point x="298" y="510" type="move" name="top"/>
    </contour>
  </outline>
</glyph>
<glyph name="o" format="1">
  <advance width="572"/>
  <unicode hex="006F"/>
  <note>
    o
  </note>
  <outline>
    <contour>
      <point x="342" y="-6" type="line"/>
      <point x="431" y="-1"/>
      <point x="479" y="19"/>
      <point x="504" y="60" type="curve" smooth="yes"/>
      <point x="528" y="101"/>
      <point x="530" y="163"/>
      <point x="530" y="254" type="curve" smooth="yes"/>
      <point x="530" y="353"/>
      <point x="527" y="419"/>
      <point x="495" y="460" type="curve" smooth="yes"/>
      <point x="463" y="501"/>
      <point x="402" y="518"/>
      <point x="286" y="518" type="curve" smooth="yes"/>
      <point x="272" y="518" type="line"/>
      <point x="272" y="377" type="line"/>
      <point x="286" y="377" type="line" smooth="yes"/>
      <point x="300" y="377"/>
      <point x="311" y="376"/>
      <point x="319" y="374" type="curve" smooth="yes"/>
      <point x="334" y="370"/>
      <point x="340" y="354"/>
      <point x="341" y="322" type="curve" smooth="yes"/>
      <point x="342" y="305"/>
      <point x="342" y="283"/>
      <point x="342" y="254" type="curve" smooth="yes"/>
    </contour>
    <contour>
      <point x="286" y="-8" type="curve" smooth="yes"/>
      <point x="300" y="-8" type="line"/>
      <point x="300" y="133" type="line"/>
      <point x="286" y="133" type="line" smooth="yes"/>
      <point x="272" y="133"/>
      <point x="261" y="134"/>
      <point x="254" y="136" type="curve" smooth="yes"/>
      <point x="238" y="140"/>
      <point x="232" y="155"/>
      <point x="231" y="187" type="curve" smooth="yes"/>
      <point x="230" y="203"/>
      <point x="230" y="225"/>
      <point x="230" y="254" type="curve" smooth="yes"/>
      <point x="230" y="516" type="line"/>
      <point x="141" y="511"/>
      <point x="93" y="491"/>
      <point x="69" y="449" type="curve" smooth="yes"/>
      <point x="44" y="407"/>
      <point x="42" y="343"/>
      <point x="42" y="254" type="curve" smooth="yes"/>
      <point x="42" y="155"/>
      <point x="45" y="90"/>
      <point x="77" y="49" type="curve" smooth="yes"/>
      <point x="109" y="8"/>
      <point x="170" y="-8"/>
    </contour>
    <contour>
      <point x="287" y="0" type="move" name="bottom"/>
    </contour>
    <contour>
      <point x="285" y="231" type="move" name="center"/>
    </contour>
    <contour>
      <point x="212" y="-12" type="move" name="ogonek"/>
    </contour>
    <contour>
      <point x="290" y="510" type="move" name="top"/>
    </contour>
    <contour>
      <point x="328" y="510" type="move" name="topright"/>
    </contour>
  </outline>
</glyph>
<glyph name="p" format="1">
  <advance width="578"/>
  <unicode hex="0070"/>
  <note>
    p
  </note>
  <outline>
    <contour>
      <point x="386" y="-7" type="curve" smooth="yes"/>
      <point x="438" y="-7"/>
      <point x="476" y="10"/>
      <point x="501" y="51" type="curve" smooth="yes"/>
      <point x="525" y="92"/>
      <point x="536" y="158"/>
      <point x="536" y="257" type="curve" smooth="yes"/>
      <point x="536" y="357"/>
      <point x="525" y="422"/>
      <point x="501" y="462" type="curve" smooth="yes"/>
      <point x="476" y="502"/>
      <point x="438" y="517"/>
      <point x="386" y="517" type="curve" smooth="yes"/>
      <point x="345" y="517"/>
      <point x="312" y="511"/>
      <point x="284" y="490" type="curve"/>
      <point x="284" y="363" type="line"/>
      <point x="295" y="363" type="line" smooth="yes"/>
      <point x="308" y="363"/>
      <point x="319" y="362"/>
      <point x="326" y="361" type="curve"/>
      <point x="340" y="358"/>
      <point x="346" y="346"/>
      <point x="347" y="317" type="curve" smooth="yes"/>
      <point x="348" y="302"/>
      <point x="348" y="282"/>
      <point x="348" y="255" type="curve" smooth="yes"/>
      <point x="348" y="228"/>
      <point x="348" y="208"/>
      <point x="347" y="193" type="curve" smooth="yes"/>
      <point x="346" y="178"/>
      <point x="344" y="168"/>
      <point x="341" y="161" type="curve"/>
      <point x="334" y="148"/>
      <point x="322" y="147"/>
      <point x="295" y="147" type="curve" smooth="yes"/>
      <point x="284" y="147" type="line"/>
      <point x="284" y="20" type="line"/>
      <point x="312" y="-3"/>
      <point x="343" y="-7"/>
    </contour>
    <contour>
      <point x="57" y="-199" type="line"/>
      <point x="242" y="-199" type="line"/>
      <point x="242" y="510" type="line"/>
      <point x="57" y="510" type="line"/>
    </contour>
  </outline>
</glyph>
<glyph name="q" format="1">
  <advance width="578"/>
  <unicode hex="0071"/>
  <note>
    q
  </note>
  <outline>
    <contour>
      <point x="192" y="-7" type="curve" smooth="yes"/>
      <point x="235" y="-7"/>
      <point x="266" y="-3"/>
      <point x="294" y="20" type="curve"/>
      <point x="294" y="147" type="line"/>
      <point x="283" y="147" type="line" smooth="yes"/>
      <point x="270" y="147"/>
      <point x="260" y="148"/>
      <point x="253" y="149" type="curve"/>
      <point x="239" y="152"/>
      <point x="232" y="164"/>
      <point x="231" y="193" type="curve" smooth="yes"/>
      <point x="230" y="208"/>
      <point x="230" y="228"/>
      <point x="230" y="255" type="curve" smooth="yes"/>
      <point x="230" y="282"/>
      <point x="230" y="302"/>
      <point x="231" y="317" type="curve" smooth="yes"/>
      <point x="232" y="332"/>
      <point x="234" y="342"/>
      <point x="237" y="349" type="curve"/>
      <point x="244" y="362"/>
      <point x="256" y="363"/>
      <point x="283" y="363" type="curve" smooth="yes"/>
      <point x="294" y="363" type="line"/>
      <point x="294" y="490" type="line"/>
      <point x="266" y="511"/>
      <point x="233" y="517"/>
      <point x="192" y="517" type="curve" smooth="yes"/>
      <point x="140" y="517"/>
      <point x="102" y="502"/>
      <point x="78" y="462" type="curve" smooth="yes"/>
      <point x="53" y="422"/>
      <point x="42" y="357"/>
      <point x="42" y="257" type="curve" smooth="yes"/>
      <point x="42" y="158"/>
      <point x="53" y="92"/>
      <point x="78" y="51" type="curve" smooth="yes"/>
      <point x="102" y="10"/>
      <point x="140" y="-7"/>
    </contour>
    <contour>
      <point x="336" y="-199" type="line"/>
      <point x="521" y="-199" type="line"/>
      <point x="521" y="510" type="line"/>
      <point x="336" y="510" type="line"/>
    </contour>
  </outline>
</glyph>
<glyph name="r" format="1">
  <advance width="425"/>
  <unicode hex="0072"/>
  <note>
    r
  </note>
  <outline>
    <contour>
      <point x="57" y="0" type="line"/>
      <point x="242" y="0" type="line"/>
      <point x="242" y="510" type="line"/>
      <point x="57" y="510" type="line"/>
    </contour>
    <contour>
      <point x="284" y="324" type="line"/>
      <point x="309" y="345"/>
      <point x="348" y="351"/>
      <point x="404" y="351" type="curve"/>
      <point x="404" y="518" type="line"/>
      <point x="349" y="518"/>
      <point x="312" y="508"/>
      <point x="284" y="481" type="curve"/>
    </contour>
    <contour>
      <point x="146" y="0" type="move" name="bottom"/>
    </contour>
    <contour>
      <point x="216" y="510" type="move" name="top"/>
    </contour>
  </outline>
</glyph>
<glyph name="t" format="1">
  <advance width="427"/>
  <unicode hex="0074"/>
  <note>
    t
  </note>
  <outline>
    <contour>
      <point x="18" y="369" type="line"/>
      <point x="409" y="369" type="line"/>
      <point x="409" y="510" type="line"/>
      <point x="297" y="510" type="line"/>
      <point x="297" y="658" type="line"/>
      <point x="112" y="658" type="line"/>
      <point x="112" y="510" type="line"/>
      <point x="18" y="510" type="line"/>
    </contour>
    <contour>
      <point x="112" y="0" type="line"/>
      <point x="297" y="0" type="line"/>
      <point x="297" y="329" type="line"/>
      <point x="112" y="329" type="line"/>
    </contour>
    <contour>
      <point x="206" y="0" type="move" name="bottom"/>
    </contour>
    <contour>
      <point x="212" y="190" type="move" name="center"/>
    </contour>
    <contour>
      <point x="102" y="510" type="move" name="topright"/>
    </contour>
  </outline>
</glyph>
<glyph name="x" format="1">
  <advance width="566"/>
  <unicode hex="0078"/>
  <note>
    x
  </note>
  <outline>
    <contour>
      <point x="357" y="0" type="line"/>
      <point x="559" y="0" type="line"/>
      <point x="215" y="510" type="line"/>
      <point x="13" y="510" type="line"/>
    </contour>
    <contour>
      <point x="7" y="0" type="line"/>
      <point x="197" y="0" type="line"/>
      <point x="245" y="90" type="line"/>
      <point x="150" y="231" type="line"/>
    </contour>
    <contour>
      <point x="415" y="289" type="line"/>
      <point x="552" y="510" type="line"/>
      <point x="362" y="510" type="line"/>
      <point x="320" y="430" type="line"/>
    </contour>
  </outline>
</glyph>
<glyph name="y" format="1">
  <advance width="588"/>
  <unicode hex="0079"/>
  <note>
    y
  </note>
  <outline>
    <contour>
      <point x="271" y="-206" type="curve" smooth="yes"/>
      <point x="395" y="-206"/>
      <point x="461" y="-185"/>
      <point x="495" y="-141" type="curve" smooth="yes"/>
      <point x="529" y="-98"/>
      <point x="531" y="-33"/>
      <point x="531" y="56" type="curve" smooth="yes"/>
      <point x="531" y="510" type="line"/>
      <point x="346" y="510" type="line"/>
      <point x="346" y="23" type="line" smooth="yes"/>
      <point x="346" y="1"/>
      <point x="345" y="-16"/>
      <point x="344" y="-28" type="curve"/>
      <point x="341" y="-52"/>
      <point x="327" y="-61"/>
      <point x="295" y="-63" type="curve" smooth="yes"/>
      <point x="278" y="-64"/>
      <point x="255" y="-65"/>
      <point x="225" y="-65" type="curve" smooth="yes"/>
      <point x="91" y="-65" type="line"/>
      <point x="91" y="-194" type="line"/>
      <point x="149" y="-200" type="line" smooth="yes"/>
      <point x="184" y="-203"/>
      <point x="228" y="-206"/>
    </contour>
    <contour>
      <point x="202" y="3" type="curve" smooth="yes"/>
      <point x="237" y="3"/>
      <point x="273" y="10"/>
      <point x="304" y="33" type="curve"/>
      <point x="304" y="157" type="line"/>
      <point x="294" y="157" type="line" smooth="yes"/>
      <point x="267" y="157"/>
      <point x="255" y="157"/>
      <point x="249" y="173" type="curve"/>
      <point x="246" y="180"/>
      <point x="244" y="192"/>
      <point x="243" y="209" type="curve" smooth="yes"/>
      <point x="242" y="226"/>
      <point x="242" y="249"/>
      <point x="242" y="279" type="curve" smooth="yes"/>
      <point x="242" y="510" type="line"/>
      <point x="57" y="510" type="line"/>
      <point x="57" y="201" type="line" smooth="yes"/>
      <point x="57" y="142"/>
      <point x="61" y="93"/>
      <point x="81" y="58" type="curve" smooth="yes"/>
      <point x="101" y="23"/>
      <point x="138" y="3"/>
    </contour>
    <contour>
      <point x="306" y="-156" type="move" name="bottom"/>
    </contour>
    <contour>
      <point x="300" y="510" type="move" name="top"/>
    </contour>
  </outline>
</glyph>
<glyph name="bar" format="1">
  <advance width="305"/>
  <unicode hex="007C"/>
  <note>
    bar
  </note>
  <outline>
    <contour>
      <point x="70" y="-161" type="line"/>
      <point x="235" y="-161" type="line"/>
      <point x="235" y="743" type="line"/>
      <point x="70" y="743" type="line"/>
    </contour>
  </outline>
</glyph>
<glyph name="asciitilde" format="1">
  <advance width="497"/>
  <unicode hex="007E"/>
  <note>
    asciitilde
  </note>
  <outline>
    <contour>
      <point x="47" y="222" type="curve"/>
      <point x="140" y="222" type="line"/>
      <point x="140" y="251"/>
      <point x="140" y="262"/>
      <point x="163" y="262" type="curve" smooth="yes"/>
      <point x="173" y="262"/>
      <point x="185" y="261"/>
      <point x="199" y="258" type="curve" smooth="yes"/>
      <point x="213" y="255"/>
      <point x="228" y="251"/>
      <point x="245" y="248" type="curve" smooth="yes"/>
      <point x="278" y="241"/>
      <point x="315" y="234"/>
      <point x="350" y="234" type="curve" smooth="yes"/>
      <point x="399" y="234"/>
      <point x="425" y="249"/>
      <point x="438" y="275" type="curve" smooth="yes"/>
      <point x="450" y="301"/>
      <point x="450" y="338"/>
      <point x="450" y="386" type="curve"/>
      <point x="357" y="386" type="line"/>
      <point x="357" y="357"/>
      <point x="357" y="346"/>
      <point x="334" y="346" type="curve" smooth="yes"/>
      <point x="324" y="346"/>
      <point x="312" y="348"/>
      <point x="298" y="351" type="curve" smooth="yes"/>
      <point x="284" y="354"/>
      <point x="269" y="357"/>
      <point x="252" y="360" type="curve" smooth="yes"/>
      <point x="219" y="367"/>
      <point x="182" y="374"/>
      <point x="147" y="374" type="curve" smooth="yes"/>
      <point x="98" y="374"/>
      <point x="72" y="360"/>
      <point x="60" y="334" type="curve" smooth="yes"/>
      <point x="47" y="308"/>
      <point x="47" y="270"/>
    </contour>
  </outline>
</glyph>
<glyph name="cent" format="1">
  <advance width="469"/>
  <unicode hex="00A2"/>
  <note>
    cent
  </note>
  <outline>
    <contour>
      <point x="190" y="-8" type="line"/>
      <point x="237" y="-8" type="line"/>
      <point x="237" y="696" type="line"/>
      <point x="190" y="696" type="line"/>
      <point x="190" y="612" type="line"/>
      <point x="119" y="597"/>
      <point x="84" y="563"/>
      <point x="65" y="516" type="curve" smooth="yes"/>
      <point x="46" y="468"/>
      <point x="45" y="407"/>
      <point x="45" y="342" type="curve" smooth="yes"/>
      <point x="45" y="275"/>
      <point x="46" y="216"/>
      <point x="65" y="169" type="curve" smooth="yes"/>
      <point x="84" y="122"/>
      <point x="119" y="87"/>
      <point x="190" y="74" type="curve"/>
    </contour>
    <contour>
      <point x="279" y="-8" type="line"/>
      <point x="326" y="-8" type="line"/>
      <point x="326" y="69" type="line"/>
      <point x="365" y="72"/>
      <point x="397" y="79"/>
      <point x="424" y="86" type="curve"/>
      <point x="424" y="222" type="line"/>
      <point x="414" y="221"/>
      <point x="403" y="219"/>
      <point x="392" y="218" type="curve"/>
      <point x="373" y="215"/>
      <point x="347" y="215"/>
      <point x="322" y="215" type="curve" smooth="yes"/>
      <point x="304" y="215"/>
      <point x="290" y="216"/>
      <point x="279" y="218" type="curve"/>
    </contour>
    <contour>
      <point x="420" y="464" type="line"/>
      <point x="420" y="600" type="line"/>
      <point x="393" y="607"/>
      <point x="365" y="613"/>
      <point x="326" y="616" type="curve"/>
      <point x="326" y="696" type="line"/>
      <point x="279" y="696" type="line"/>
      <point x="279" y="467" type="line"/>
      <point x="289" y="470"/>
      <point x="303" y="471"/>
      <point x="322" y="471" type="curve" smooth="yes"/>
      <point x="347" y="471"/>
      <point x="371" y="470"/>
      <point x="390" y="467" type="curve"/>
    </contour>
  </outline>
</glyph>
<glyph name="yen" format="1">
  <advance width="633"/>
  <unicode hex="00A5"/>
  <note>
    yen
  </note>
  <outline>
    <contour>
      <point x="41" y="350" type="line"/>
      <point x="591" y="350" type="line"/>
      <point x="591" y="447" type="line"/>
      <point x="509" y="447" type="line"/>
      <point x="618" y="688" type="line"/>
      <point x="418" y="688" type="line"/>
      <point x="322" y="420" type="line"/>
      <point x="315" y="420" type="line"/>
      <point x="219" y="688" type="line"/>
      <point x="15" y="688" type="line"/>
      <point x="36" y="639"/>
      <point x="58" y="590"/>
      <point x="84" y="534" type="curve" smooth="yes"/>
      <point x="123" y="447" type="line"/>
      <point x="41" y="447" type="line"/>
    </contour>
    <contour>
      <point x="216" y="0" type="line"/>
      <point x="416" y="0" type="line"/>
      <point x="416" y="213" type="line"/>
      <point x="591" y="213" type="line"/>
      <point x="591" y="310" type="line"/>
      <point x="41" y="310" type="line"/>
      <point x="41" y="213" type="line"/>
      <point x="216" y="213" type="line"/>
    </contour>
  </outline>
</glyph>
<glyph name="threesuperior" format="1">
  <advance width="381"/>
  <unicode hex="00B3"/>
  <note>
    uni00B3
  </note>
  <outline>
    <contour>
      <point x="211" y="407" type="line"/>
      <point x="262" y="411"/>
      <point x="292" y="422"/>
      <point x="311" y="441" type="curve" smooth="yes"/>
      <point x="330" y="460"/>
      <point x="336" y="485"/>
      <point x="336" y="516" type="curve" smooth="yes"/>
      <point x="336" y="567"/>
      <point x="314" y="591"/>
      <point x="277" y="602" type="curve"/>
      <point x="277" y="606" type="line"/>
      <point x="314" y="621"/>
      <point x="332" y="645"/>
      <point x="332" y="693" type="curve" smooth="yes"/>
      <point x="332" y="753"/>
      <point x="300" y="788"/>
      <point x="208" y="795" type="curve"/>
      <point x="208" y="671" type="line" smooth="yes"/>
      <point x="208" y="646"/>
      <point x="204" y="643"/>
      <point x="175" y="643" type="curve" smooth="yes"/>
      <point x="108" y="643" type="line"/>
      <point x="108" y="562" type="line"/>
      <point x="175" y="562" type="line" smooth="yes"/>
      <point x="206" y="562"/>
      <point x="211" y="559"/>
      <point x="211" y="532" type="curve" smooth="yes"/>
    </contour>
    <contour>
      <point x="174" y="406" type="curve"/>
      <point x="174" y="503" type="line"/>
      <point x="164" y="503" type="line" smooth="yes"/>
      <point x="140" y="503"/>
      <point x="111" y="504"/>
      <point x="87" y="507" type="curve"/>
      <point x="73" y="508"/>
      <point x="59" y="510"/>
      <point x="45" y="511" type="curve"/>
      <point x="45" y="419" type="line"/>
      <point x="58" y="416"/>
      <point x="71" y="414"/>
      <point x="85" y="412" type="curve" smooth="yes"/>
      <point x="109" y="409"/>
      <point x="141" y="406"/>
    </contour>
    <contour>
      <point x="47" y="691" type="line"/>
      <point x="59" y="692"/>
      <point x="71" y="694"/>
      <point x="83" y="695" type="curve"/>
      <point x="104" y="698"/>
      <point x="131" y="699"/>
      <point x="158" y="699" type="curve" smooth="yes"/>
      <point x="171" y="699" type="line"/>
      <point x="171" y="796" type="line"/>
      <point x="125" y="793" type="line" smooth="yes"/>
      <point x="95" y="791"/>
      <point x="71" y="787"/>
      <point x="47" y="783" type="curve"/>
    </contour>
  </outline>
</glyph>
<glyph name="paragraph" format="1">
  <advance width="657"/>
  <unicode hex="00B6"/>
  <note>
    paragraph
  </note>
  <outline>
    <contour>
      <point x="286" y="-144" type="line"/>
      <point x="406" y="-144" type="line"/>
      <point x="406" y="688" type="line"/>
      <point x="286" y="688" type="line" smooth="yes"/>
      <point x="170" y="688"/>
      <point x="109" y="680"/>
      <point x="77" y="647" type="curve" smooth="yes"/>
      <point x="45" y="614"/>
      <point x="42" y="555"/>
      <point x="42" y="454" type="curve" smooth="yes"/>
      <point x="42" y="386"/>
      <point x="44" y="338"/>
      <point x="54" y="304" type="curve" smooth="yes"/>
      <point x="64" y="270"/>
      <point x="83" y="249"/>
      <point x="119" y="237" type="curve" smooth="yes"/>
      <point x="155" y="225"/>
      <point x="209" y="222"/>
      <point x="286" y="222" type="curve"/>
    </contour>
    <contour>
      <point x="472" y="-144" type="line"/>
      <point x="592" y="-144" type="line"/>
      <point x="592" y="688" type="line"/>
      <point x="472" y="688" type="line"/>
    </contour>
  </outline>
</glyph>
<glyph name="cedilla" format="1">
  <advance width="247"/>
  <unicode hex="00B8"/>
  <note>
    cedilla
  </note>
  <outline>
    <contour>
      <point x="20" y="-189" type="line"/>
      <point x="193" y="-189" type="line"/>
      <point x="227" y="3" type="line"/>
      <point x="227" y="8" type="line"/>
      <point x="101" y="8" type="line"/>
      <point x="20" y="-184" type="line"/>
    </contour>
    <contour>
      <point x="118" y="0" type="move" name="_bottom"/>
    </contour>
  </outline>
</glyph>
<glyph name="guillemetright" format="1">
  <advance width="515"/>
  <unicode hex="00BB"/>
  <note>
    guillemotright
  </note>
  <outline>
    <contour>
      <point x="248" y="99" type="line"/>
      <point x="369" y="99" type="line"/>
      <point x="501" y="304" type="line"/>
      <point x="369" y="510" type="line"/>
      <point x="248" y="510" type="line"/>
      <point x="349" y="304" type="line"/>
    </contour>
    <contour>
      <point x="45" y="99" type="line"/>
      <point x="166" y="99" type="line"/>
      <point x="298" y="304" type="line"/>
      <point x="166" y="510" type="line"/>
      <point x="45" y="510" type="line"/>
      <point x="146" y="304" type="line"/>
    </contour>
  </outline>
</glyph>
<glyph name="onehalf" format="1">
  <advance width="811"/>
  <unicode hex="00BD"/>
  <note>
    onehalf
  </note>
  <outline>
    <contour>
      <point x="75" y="0" type="line"/>
      <point x="192" y="0" type="line"/>
      <point x="641" y="688" type="line"/>
      <point x="524" y="688" type="line"/>
    </contour>
    <contour>
      <point x="97" y="314" type="line"/>
      <point x="219" y="314" type="line"/>
      <point x="219" y="688" type="line"/>
      <point x="140" y="688" type="line"/>
      <point x="30" y="636" type="line"/>
      <point x="30" y="537" type="line"/>
      <point x="97" y="562" type="line"/>
    </contour>
    <contour>
      <point x="631" y="0" type="line"/>
      <point x="766" y="0" type="line"/>
      <point x="766" y="101" type="line"/>
      <point x="631" y="101" type="line"/>
    </contour>
    <contour>
      <point x="475" y="0" type="line"/>
      <point x="594" y="0" type="line"/>
      <point x="594" y="101" type="line" smooth="yes"/>
      <point x="594" y="120"/>
      <point x="598" y="123"/>
      <point x="617" y="130" type="curve"/>
      <point x="692" y="153" type="line" smooth="yes"/>
      <point x="743" y="168"/>
      <point x="766" y="199"/>
      <point x="766" y="271" type="curve" smooth="yes"/>
      <point x="766" y="319"/>
      <point x="753" y="346"/>
      <point x="731" y="362" type="curve" smooth="yes"/>
      <point x="709" y="377"/>
      <point x="677" y="381"/>
      <point x="644" y="382" type="curve"/>
      <point x="644" y="266" type="line" smooth="yes"/>
      <point x="644" y="246"/>
      <point x="640" y="244"/>
      <point x="611" y="232" type="curve" smooth="yes"/>
      <point x="549" y="208" type="line" smooth="yes"/>
      <point x="514" y="195"/>
      <point x="497" y="179"/>
      <point x="487" y="156" type="curve" smooth="yes"/>
      <point x="477" y="133"/>
      <point x="475" y="102"/>
      <point x="475" y="61" type="curve" smooth="yes"/>
    </contour>
    <contour>
      <point x="482" y="275" type="line"/>
      <point x="494" y="276"/>
      <point x="506" y="278"/>
      <point x="518" y="280" type="curve" smooth="yes"/>
      <point x="539" y="283"/>
      <point x="565" y="285"/>
      <point x="588" y="285" type="curve" smooth="yes"/>
      <point x="607" y="285" type="line"/>
      <point x="607" y="382" type="line"/>
      <point x="559" y="379" type="line"/>
      <point x="529" y="376"/>
      <point x="505" y="373"/>
      <point x="482" y="369" type="curve"/>
    </contour>
  </outline>
</glyph>
<glyph name="threequarters" format="1">
  <advance width="850"/>
  <unicode hex="00BE"/>
  <note>
    threequarters
  </note>
  <outline>
    <contour>
      <point x="152" y="0" type="line"/>
      <point x="269" y="0" type="line"/>
      <point x="718" y="688" type="line"/>
      <point x="601" y="688" type="line"/>
    </contour>
    <contour>
      <point x="174" y="306" type="curve"/>
      <point x="174" y="403" type="line"/>
      <point x="164" y="403" type="line" smooth="yes"/>
      <point x="140" y="403"/>
      <point x="111" y="404"/>
      <point x="87" y="407" type="curve"/>
      <point x="73" y="408"/>
      <point x="59" y="410"/>
      <point x="45" y="411" type="curve"/>
      <point x="45" y="319" type="line"/>
      <point x="58" y="316"/>
      <point x="71" y="314"/>
      <point x="85" y="312" type="curve" smooth="yes"/>
      <point x="109" y="309"/>
      <point x="141" y="306"/>
    </contour>
    <contour>
      <point x="211" y="307" type="line"/>
      <point x="262" y="311"/>
      <point x="292" y="322"/>
      <point x="311" y="341" type="curve" smooth="yes"/>
      <point x="330" y="360"/>
      <point x="336" y="385"/>
      <point x="336" y="416" type="curve" smooth="yes"/>
      <point x="336" y="467"/>
      <point x="314" y="491"/>
      <point x="277" y="502" type="curve"/>
      <point x="277" y="506" type="line"/>
      <point x="314" y="521"/>
      <point x="332" y="545"/>
      <point x="332" y="593" type="curve" smooth="yes"/>
      <point x="332" y="653"/>
      <point x="300" y="688"/>
      <point x="208" y="695" type="curve"/>
      <point x="208" y="571" type="line" smooth="yes"/>
      <point x="208" y="546"/>
      <point x="204" y="543"/>
      <point x="175" y="543" type="curve" smooth="yes"/>
      <point x="108" y="543" type="line"/>
      <point x="108" y="462" type="line"/>
      <point x="175" y="462" type="line" smooth="yes"/>
      <point x="206" y="462"/>
      <point x="211" y="459"/>
      <point x="211" y="432" type="curve" smooth="yes"/>
    </contour>
    <contour>
      <point x="47" y="591" type="line"/>
      <point x="59" y="592"/>
      <point x="71" y="594"/>
      <point x="83" y="595" type="curve"/>
      <point x="104" y="598"/>
      <point x="131" y="599"/>
      <point x="158" y="599" type="curve" smooth="yes"/>
      <point x="171" y="599" type="line"/>
      <point x="171" y="696" type="line"/>
      <point x="125" y="693" type="line" smooth="yes"/>
      <point x="95" y="690"/>
      <point x="71" y="687"/>
      <point x="47" y="683" type="curve"/>
    </contour>
    <contour>
      <point x="640" y="0" type="line"/>
      <point x="760" y="0" type="line"/>
      <point x="760" y="67" type="line"/>
      <point x="805" y="67" type="line"/>
      <point x="805" y="164" type="line"/>
      <point x="760" y="164" type="line"/>
      <point x="760" y="237" type="line"/>
      <point x="702" y="237" type="line"/>
      <point x="654" y="164" type="line"/>
      <point x="638" y="164" type="line"/>
      <point x="579" y="67" type="line"/>
      <point x="640" y="67" type="line"/>
    </contour>
    <contour>
      <point x="470" y="67" type="line"/>
      <point x="538" y="67" type="line"/>
      <point x="727" y="378" type="line"/>
      <point x="593" y="378" type="line"/>
      <point x="470" y="149" type="line"/>
    </contour>
  </outline>
</glyph>
<glyph name="questiondown" format="1">
  <advance width="466"/>
  <unicode hex="00BF"/>
  <note>
    questiondown
  </note>
  <outline>
    <contour>
      <point x="250" y="-186" type="curve"/>
      <point x="250" y="19" type="line" smooth="yes"/>
      <point x="250" y="36"/>
      <point x="251" y="47"/>
      <point x="258" y="55" type="curve" smooth="yes"/>
      <point x="265" y="63"/>
      <point x="278" y="68"/>
      <point x="302" y="76" type="curve" smooth="yes"/>
      <point x="326" y="84"/>
      <point x="348" y="91"/>
      <point x="364" y="108" type="curve" smooth="yes"/>
      <point x="380" y="124"/>
      <point x="390" y="151"/>
      <point x="390" y="199" type="curve" smooth="yes"/>
      <point x="390" y="264" type="line"/>
      <point x="220" y="264" type="line"/>
      <point x="220" y="245" type="line"/>
      <point x="220" y="213" type="line"/>
      <point x="219" y="205"/>
      <point x="218" y="199"/>
      <point x="217" y="195" type="curve"/>
      <point x="213" y="186"/>
      <point x="205" y="183"/>
      <point x="192" y="178" type="curve"/>
      <point x="142" y="161" type="line" smooth="yes"/>
      <point x="115" y="152"/>
      <point x="92" y="141"/>
      <point x="76" y="118" type="curve" smooth="yes"/>
      <point x="60" y="95"/>
      <point x="50" y="59"/>
      <point x="50" y="0" type="curve" smooth="yes"/>
      <point x="50" y="-79"/>
      <point x="73" y="-124"/>
      <point x="110" y="-151" type="curve" smooth="yes"/>
      <point x="146" y="-178"/>
      <point x="195" y="-185"/>
    </contour>
    <contour>
      <point x="292" y="-186" type="line"/>
      <point x="347" y="-185"/>
      <point x="394" y="-180"/>
      <point x="429" y="-176" type="curve" smooth="yes"/>
      <point x="450" y="-173"/>
      <point x="469" y="-171"/>
      <point x="486" y="-169" type="curve"/>
      <point x="486" y="-25" type="line"/>
      <point x="468" y="-26"/>
      <point x="450" y="-28"/>
      <point x="432" y="-29" type="curve"/>
      <point x="401" y="-32"/>
      <point x="363" y="-33"/>
      <point x="328" y="-33" type="curve" smooth="yes"/>
      <point x="309" y="-33" type="line" smooth="yes"/>
      <point x="303" y="-33"/>
      <point x="297" y="-33"/>
      <point x="292" y="-32" type="curve"/>
    </contour>
    <contour>
      <point x="203" y="347" type="line"/>
      <point x="405" y="347" type="line"/>
      <point x="405" y="510" type="line"/>
      <point x="203" y="510" type="line"/>
    </contour>
  </outline>
</glyph>
<glyph name="multiply" format="1">
  <advance width="518"/>
  <unicode hex="00D7"/>
  <note>
    multiply
  </note>
  <outline>
    <contour>
      <point x="165" y="64" type="line"/>
      <point x="259" y="158" type="line"/>
      <point x="353" y="64" type="line"/>
      <point x="448" y="159" type="line"/>
      <point x="354" y="253" type="line"/>
      <point x="448" y="347" type="line"/>
      <point x="353" y="442" type="line"/>
      <point x="259" y="348" type="line"/>
      <point x="165" y="442" type="line"/>
      <point x="70" y="347" type="line"/>
      <point x="164" y="253" type="line"/>
      <point x="70" y="159" type="line"/>
    </contour>
  </outline>
</glyph>
<glyph name="germandbls" format="1">
  <advance width="595"/>
  <unicode hex="00DF"/>
  <note>
    germandbls
  </note>
  <outline>
    <contour>
      <point x="286" y="0" type="line"/>
      <point x="318" y="0" type="line" smooth="yes"/>
      <point x="418" y="0"/>
      <point x="478" y="17"/>
      <point x="511" y="53" type="curve" smooth="yes"/>
      <point x="544" y="89"/>
      <point x="553" y="145"/>
      <point x="553" y="225" type="curve" smooth="yes"/>
      <point x="553" y="286"/>
      <point x="542" y="328"/>
      <point x="521" y="356" type="curve" smooth="yes"/>
      <point x="500" y="384"/>
      <point x="469" y="399"/>
      <point x="428" y="406" type="curve"/>
      <point x="428" y="410" type="line"/>
      <point x="508" y="425"/>
      <point x="544" y="469"/>
      <point x="544" y="558" type="curve" smooth="yes"/>
      <point x="544" y="617"/>
      <point x="532" y="665"/>
      <point x="496" y="698" type="curve" smooth="yes"/>
      <point x="459" y="731"/>
      <point x="398" y="750"/>
      <point x="301" y="750" type="curve" smooth="yes"/>
      <point x="285" y="750" type="line"/>
      <point x="285" y="609" type="line"/>
      <point x="288" y="610"/>
      <point x="294" y="610"/>
      <point x="301" y="610" type="curve" smooth="yes"/>
      <point x="322" y="610"/>
      <point x="336" y="608"/>
      <point x="344" y="599" type="curve" smooth="yes"/>
      <point x="352" y="590"/>
      <point x="355" y="573"/>
      <point x="355" y="542" type="curve" smooth="yes"/>
      <point x="355" y="511"/>
      <point x="355" y="496"/>
      <point x="348" y="486" type="curve"/>
      <point x="340" y="476"/>
      <point x="325" y="474"/>
      <point x="296" y="474" type="curve" smooth="yes"/>
      <point x="286" y="474" type="line"/>
      <point x="286" y="333" type="line"/>
      <point x="296" y="333" type="line" smooth="yes"/>
      <point x="310" y="333"/>
      <point x="322" y="333"/>
      <point x="331" y="332" type="curve" smooth="yes"/>
      <point x="349" y="330"/>
      <point x="358" y="319"/>
      <point x="362" y="293" type="curve" smooth="yes"/>
      <point x="364" y="280"/>
      <point x="365" y="261"/>
      <point x="365" y="237" type="curve" smooth="yes"/>
      <point x="365" y="213"/>
      <point x="364" y="195"/>
      <point x="363" y="182" type="curve"/>
      <point x="361" y="169"/>
      <point x="358" y="159"/>
      <point x="353" y="153" type="curve"/>
      <point x="344" y="141"/>
      <point x="326" y="141"/>
      <point x="298" y="141" type="curve" smooth="yes"/>
      <point x="286" y="141" type="line"/>
    </contour>
    <contour>
      <point x="57" y="0" type="line"/>
      <point x="243" y="0" type="line"/>
      <point x="243" y="747" type="line"/>
      <point x="172" y="740"/>
      <point x="126" y="722"/>
      <point x="97" y="690" type="curve" smooth="yes"/>
      <point x="68" y="657"/>
      <point x="57" y="611"/>
      <point x="57" y="551" type="curve" smooth="yes"/>
    </contour>
  </outline>
</glyph>
<glyph name="ae" format="1">
  <advance width="834"/>
  <unicode hex="00E6"/>
  <note>
    ae
  </note>
  <outline>
    <contour>
      <point x="579" y="-8" type="curve" smooth="yes"/>
      <point x="609" y="-8"/>
      <point x="636" y="-7"/>
      <point x="659" y="-5" type="curve" smooth="yes"/>
      <point x="706" y="-2"/>
      <point x="741" y="3"/>
      <point x="769" y="11" type="curve"/>
      <point x="769" y="140" type="line"/>
      <point x="752" y="139"/>
      <point x="735" y="137"/>
      <point x="718" y="136" type="curve"/>
      <point x="689" y="133"/>
      <point x="653" y="133"/>
      <point x="625" y="133" type="curve" smooth="yes"/>
      <point x="596" y="133"/>
      <point x="573" y="134"/>
      <point x="557" y="135" type="curve" smooth="yes"/>
      <point x="540" y="136"/>
      <point x="528" y="139"/>
      <point x="520" y="144" type="curve" smooth="yes"/>
      <point x="504" y="154"/>
      <point x="503" y="174"/>
      <point x="503" y="214" type="curve" smooth="yes"/>
      <point x="503" y="515" type="line"/>
      <point x="468" y="510"/>
      <point x="440" y="502"/>
      <point x="417" y="489" type="curve"/>
      <point x="384" y="508"/>
      <point x="334" y="518"/>
      <point x="266" y="518" type="curve" smooth="yes"/>
      <point x="181" y="518"/>
      <point x="110" y="509"/>
      <point x="63" y="500" type="curve"/>
      <point x="63" y="370" type="line"/>
      <point x="116" y="373" type="line"/>
      <point x="147" y="376"/>
      <point x="181" y="377"/>
      <point x="205" y="377" type="curve" smooth="yes"/>
      <point x="233" y="377"/>
      <point x="255" y="377"/>
      <point x="270" y="376" type="curve" smooth="yes"/>
      <point x="285" y="375"/>
      <point x="297" y="373"/>
      <point x="304" y="369" type="curve" smooth="yes"/>
      <point x="318" y="361"/>
      <point x="318" y="345"/>
      <point x="318" y="316" type="curve" smooth="yes"/>
      <point x="318" y="0" type="line"/>
      <point x="343" y="5"/>
      <point x="366" y="15"/>
      <point x="386" y="28" type="curve"/>
      <point x="425" y="4"/>
      <point x="484" y="-8"/>
    </contour>
    <contour>
      <point x="230" y="-8" type="curve" smooth="yes"/>
      <point x="245" y="-8"/>
      <point x="261" y="-7"/>
      <point x="276" y="-6" type="curve"/>
      <point x="276" y="123" type="line"/>
      <point x="266" y="123" type="line" smooth="yes"/>
      <point x="253" y="123"/>
      <point x="243" y="124"/>
      <point x="236" y="125" type="curve" smooth="yes"/>
      <point x="229" y="126"/>
      <point x="224" y="129"/>
      <point x="221" y="133" type="curve"/>
      <point x="215" y="140"/>
      <point x="214" y="150"/>
      <point x="214" y="169" type="curve" smooth="yes"/>
      <point x="214" y="180"/>
      <point x="214" y="188"/>
      <point x="215" y="194" type="curve"/>
      <point x="216" y="206"/>
      <point x="222" y="212"/>
      <point x="236" y="213" type="curve"/>
      <point x="243" y="214"/>
      <point x="253" y="214"/>
      <point x="266" y="214" type="curve" smooth="yes"/>
      <point x="276" y="214" type="line"/>
      <point x="276" y="303" type="line"/>
      <point x="245" y="304"/>
      <point x="209" y="305"/>
      <point x="192" y="305" type="curve" smooth="yes"/>
      <point x="128" y="305"/>
      <point x="89" y="296"/>
      <point x="66" y="272" type="curve" smooth="yes"/>
      <point x="42" y="248"/>
      <point x="35" y="209"/>
      <point x="35" y="148" type="curve" smooth="yes"/>
      <point x="35" y="92"/>
      <point x="45" y="53"/>
      <point x="74" y="28" type="curve" smooth="yes"/>
      <point x="103" y="3"/>
      <point x="151" y="-8"/>
    </contour>
    <contour>
      <point x="545" y="214" type="line"/>
      <point x="789" y="214" type="line"/>
      <point x="789" y="254" type="line" smooth="yes"/>
      <point x="789" y="349"/>
      <point x="789" y="416"/>
      <point x="760" y="458" type="curve" smooth="yes"/>
      <point x="731" y="500"/>
      <point x="674" y="518"/>
      <point x="559" y="518" type="curve" smooth="yes"/>
      <point x="545" y="518" type="line"/>
      <point x="545" y="391" type="line"/>
      <point x="559" y="391" type="line" smooth="yes"/>
      <point x="583" y="391"/>
      <point x="596" y="389"/>
      <point x="604" y="377" type="curve" smooth="yes"/>
      <point x="612" y="365"/>
      <point x="615" y="344"/>
      <point x="615" y="305" type="curve"/>
      <point x="545" y="305" type="line"/>
    </contour>
    <contour>
      <point x="415" y="510" type="move" name="top"/>
    </contour>
  </outline>
</glyph>
<glyph name="divide" format="1">
  <advance width="540"/>
  <unicode hex="00F7"/>
  <note>
    divide
  </note>
  <outline>
    <contour>
      <point x="70" y="186" type="line"/>
      <point x="470" y="186" type="line"/>
      <point x="470" y="320" type="line"/>
      <point x="70" y="320" type="line"/>
    </contour>
    <contour>
      <point x="203" y="16" type="line"/>
      <point x="337" y="16" type="line"/>
      <point x="337" y="126" type="line"/>
      <point x="203" y="126" type="line"/>
    </contour>
    <contour>
      <point x="203" y="380" type="line"/>
      <point x="337" y="380" type="line"/>
      <point x="337" y="490" type="line"/>
      <point x="203" y="490" type="line"/>
    </contour>
  </outline>
</glyph>
<glyph name="OE" format="1">
  <advance width="1031"/>
  <unicode hex="0152"/>
  <note>
    OE
  </note>
  <outline>
    <contour>
      <point x="447" y="4" type="line"/>
      <point x="547" y="13"/>
      <point x="598" y="41"/>
      <point x="624" y="95" type="curve" smooth="yes"/>
      <point x="650" y="149"/>
      <point x="651" y="229"/>
      <point x="651" y="344" type="curve" smooth="yes"/>
      <point x="651" y="475"/>
      <point x="650" y="561"/>
      <point x="612" y="614" type="curve" smooth="yes"/>
      <point x="574" y="667"/>
      <point x="497" y="688"/>
      <point x="349" y="688" type="curve" smooth="yes"/>
      <point x="320" y="688" type="line" smooth="yes"/>
      <point x="311" y="688"/>
      <point x="302" y="688"/>
      <point x="293" y="687" type="curve"/>
      <point x="293" y="531" type="line"/>
      <point x="306" y="534"/>
      <point x="325" y="535"/>
      <point x="349" y="535" type="curve" smooth="yes"/>
      <point x="374" y="535"/>
      <point x="393" y="534"/>
      <point x="406" y="532" type="curve" smooth="yes"/>
      <point x="433" y="527"/>
      <point x="444" y="504"/>
      <point x="446" y="453" type="curve" smooth="yes"/>
      <point x="447" y="427"/>
      <point x="447" y="391"/>
      <point x="447" y="344" type="curve" smooth="yes"/>
    </contour>
    <contour>
      <point x="349" y="0" type="curve" smooth="yes"/>
      <point x="370" y="0" type="line"/>
      <point x="388" y="0" type="line" smooth="yes"/>
      <point x="394" y="0"/>
      <point x="400" y="0"/>
      <point x="405" y="1" type="curve"/>
      <point x="405" y="156" type="line"/>
      <point x="390" y="153"/>
      <point x="373" y="153"/>
      <point x="349" y="153" type="curve" smooth="yes"/>
      <point x="324" y="153"/>
      <point x="305" y="154"/>
      <point x="292" y="157" type="curve"/>
      <point x="265" y="161"/>
      <point x="255" y="184"/>
      <point x="253" y="236" type="curve" smooth="yes"/>
      <point x="252" y="261"/>
      <point x="251" y="297"/>
      <point x="251" y="344" type="curve" smooth="yes"/>
      <point x="251" y="684" type="line"/>
      <point x="151" y="673"/>
      <point x="100" y="647"/>
      <point x="74" y="593" type="curve" smooth="yes"/>
      <point x="48" y="539"/>
      <point x="47" y="459"/>
      <point x="47" y="344" type="curve" smooth="yes"/>
      <point x="47" y="213"/>
      <point x="49" y="127"/>
      <point x="87" y="74" type="curve" smooth="yes"/>
      <point x="125" y="21"/>
      <point x="201" y="0"/>
    </contour>
    <contour>
      <point x="602" y="0" type="curve"/>
      <point x="976" y="0" type="line"/>
      <point x="976" y="153" type="line"/>
      <point x="686" y="153" type="line"/>
      <point x="675" y="78"/>
      <point x="654" y="31"/>
    </contour>
    <contour>
      <point x="692" y="271" type="curve"/>
      <point x="929" y="271" type="line"/>
      <point x="929" y="424" type="line"/>
      <point x="692" y="424" type="line"/>
      <point x="693" y="411"/>
      <point x="693" y="398"/>
      <point x="693" y="385" type="curve" smooth="yes"/>
      <point x="693" y="344" type="line" smooth="yes"/>
      <point x="693" y="331"/>
      <point x="693" y="318"/>
      <point x="693" y="306" type="curve" smooth="yes"/>
      <point x="693" y="294"/>
      <point x="693" y="282"/>
    </contour>
    <contour>
      <point x="686" y="535" type="curve"/>
      <point x="976" y="535" type="line"/>
      <point x="976" y="688" type="line"/>
      <point x="602" y="688" type="line"/>
      <point x="654" y="657"/>
      <point x="675" y="608"/>
    </contour>
  </outline>
</glyph>
<glyph name="florin" format="1">
  <advance width="545"/>
  <unicode hex="0192"/>
  <note>
    florin
  </note>
  <outline>
    <contour>
      <point x="-92" y="-197" type="line"/>
      <point x="37" y="-197"/>
      <point x="115" y="-196"/>
      <point x="164" y="-170" type="curve" smooth="yes"/>
      <point x="213" y="-144"/>
      <point x="236" y="-94"/>
      <point x="257" y="5" type="curve" smooth="yes"/>
      <point x="326" y="329" type="line"/>
      <point x="140" y="329" type="line"/>
      <point x="69" y="-9" type="line" smooth="yes"/>
      <point x="66" y="-24"/>
      <point x="62" y="-35"/>
      <point x="59" y="-43" type="curve"/>
      <point x="51" y="-59"/>
      <point x="35" y="-67"/>
      <point x="3" y="-68" type="curve" smooth="yes"/>
      <point x="-14" y="-69"/>
      <point x="-36" y="-69"/>
      <point x="-65" y="-69" type="curve"/>
    </contour>
    <contour>
      <point x="55" y="369" type="line"/>
      <point x="456" y="369" type="line"/>
      <point x="486" y="510" type="line"/>
      <point x="364" y="510" type="line"/>
      <point x="373" y="554" type="line" smooth="yes"/>
      <point x="376" y="569"/>
      <point x="380" y="580"/>
      <point x="384" y="588" type="curve"/>
      <point x="391" y="604"/>
      <point x="407" y="612"/>
      <point x="440" y="613" type="curve" smooth="yes"/>
      <point x="456" y="614"/>
      <point x="479" y="614"/>
      <point x="508" y="614" type="curve"/>
      <point x="535" y="742" type="line"/>
      <point x="448" y="742"/>
      <point x="385" y="742"/>
      <point x="338" y="734" type="curve" smooth="yes"/>
      <point x="291" y="726"/>
      <point x="260" y="711"/>
      <point x="237" y="681" type="curve" smooth="yes"/>
      <point x="213" y="651"/>
      <point x="198" y="605"/>
      <point x="185" y="540" type="curve" smooth="yes"/>
      <point x="179" y="510" type="line"/>
      <point x="85" y="510" type="line"/>
    </contour>
  </outline>
</glyph>
<glyph name="Nhookleft" format="1">
  <advance width="716"/>
  <unicode hex="019D"/>
  <outline>
    <contour>
      <point x="452" y="0" type="line"/>
      <point x="651" y="0" type="line"/>
      <point x="651" y="29" type="line"/>
      <point x="265" y="688" type="line"/>
      <point x="65" y="688" type="line"/>
      <point x="65" y="660" type="line"/>
    </contour>
    <contour>
      <point x="-15" y="-199" type="line"/>
      <point x="97" y="-199"/>
      <point x="166" y="-194"/>
      <point x="206" y="-162" type="curve" smooth="yes"/>
      <point x="245" y="-130"/>
      <point x="255" y="-71"/>
      <point x="255" y="37" type="curve" smooth="yes"/>
      <point x="255" y="252" type="line"/>
      <point x="65" y="577" type="line"/>
      <point x="65" y="-18" type="line" smooth="yes"/>
      <point x="65" y="-27"/>
      <point x="64" y="-35"/>
      <point x="63" y="-41" type="curve"/>
      <point x="60" y="-54"/>
      <point x="51" y="-62"/>
      <point x="29" y="-66" type="curve" smooth="yes"/>
      <point x="18" y="-68"/>
      <point x="4" y="-69"/>
      <point x="-15" y="-69" type="curve"/>
    </contour>
    <contour>
      <point x="651" y="112" type="line"/>
      <point x="651" y="688" type="line"/>
      <point x="461" y="688" type="line"/>
      <point x="461" y="437" type="line"/>
    </contour>
  </outline>
</glyph>
<glyph name="Oogonek" format="1">
  <advance width="698"/>
  <unicode hex="01EA"/>
  <outline>
    <contour>
      <point x="320" y="-8" type="curve" smooth="yes"/>
      <point x="349" y="-8" type="line" smooth="yes"/>
      <point x="448" y="-8"/>
      <point x="515" y="2"/>
      <point x="559" y="24" type="curve" smooth="yes"/>
      <point x="604" y="46"/>
      <point x="627" y="82"/>
      <point x="639" y="134" type="curve" smooth="yes"/>
      <point x="651" y="186"/>
      <point x="651" y="255"/>
      <point x="651" y="344" type="curve" smooth="yes"/>
      <point x="651" y="461"/>
      <point x="650" y="543"/>
      <point x="624" y="599" type="curve" smooth="yes"/>
      <point x="598" y="654"/>
      <point x="547" y="681"/>
      <point x="447" y="692" type="curve"/>
      <point x="447" y="344" type="line" smooth="yes"/>
      <point x="447" y="295"/>
      <point x="446" y="258"/>
      <point x="445" y="231" type="curve" smooth="yes"/>
      <point x="443" y="177"/>
      <point x="433" y="153"/>
      <point x="406" y="149" type="curve"/>
      <point x="393" y="146"/>
      <point x="374" y="145"/>
      <point x="349" y="145" type="curve" smooth="yes"/>
      <point x="325" y="145"/>
      <point x="308" y="145"/>
      <point x="293" y="148" type="curve"/>
      <point x="293" y="-7" type="line"/>
      <point x="302" y="-8"/>
      <point x="311" y="-8"/>
    </contour>
    <contour>
      <point x="433" y="-196" type="curve" smooth="yes"/>
      <point x="452" y="-196"/>
      <point x="469" y="-195"/>
      <point x="484" y="-194" type="curve"/>
      <point x="492" y="-193"/>
      <point x="500" y="-193"/>
      <point x="508" y="-192" type="curve"/>
      <point x="508" y="-103" type="line"/>
      <point x="506" y="-104"/>
      <point x="504" y="-104"/>
      <point x="502" y="-104" type="curve" smooth="yes"/>
      <point x="491" y="-104" type="line" smooth="yes"/>
      <point x="452" y="-104"/>
      <point x="444" y="-89"/>
      <point x="444" y="-70" type="curve" smooth="yes"/>
      <point x="444" y="-37"/>
      <point x="478" y="-4"/>
      <point x="532" y="13" type="curve"/>
      <point x="368" y="17" type="line"/>
      <point x="332" y="-16"/>
      <point x="300" y="-69"/>
      <point x="300" y="-108" type="curve" smooth="yes"/>
      <point x="300" y="-132"/>
      <point x="308" y="-154"/>
      <point x="328" y="-170" type="curve" smooth="yes"/>
      <point x="348" y="-186"/>
      <point x="381" y="-196"/>
    </contour>
    <contour>
      <point x="251" y="-4" type="curve"/>
      <point x="251" y="344" type="line" smooth="yes"/>
      <point x="251" y="393"/>
      <point x="251" y="431"/>
      <point x="252" y="458" type="curve" smooth="yes"/>
      <point x="254" y="512"/>
      <point x="265" y="535"/>
      <point x="292" y="540" type="curve" smooth="yes"/>
      <point x="305" y="542"/>
      <point x="324" y="543"/>
      <point x="349" y="543" type="curve" smooth="yes"/>
      <point x="373" y="543"/>
      <point x="392" y="543"/>
      <point x="405" y="539" type="curve"/>
      <point x="405" y="695" type="line"/>
      <point x="396" y="696"/>
      <point x="387" y="696"/>
      <point x="378" y="696" type="curve" smooth="yes"/>
      <point x="349" y="696" type="line" smooth="yes"/>
      <point x="201" y="696"/>
      <point x="124" y="675"/>
      <point x="86" y="621" type="curve" smooth="yes"/>
      <point x="48" y="567"/>
      <point x="47" y="477"/>
      <point x="47" y="344" type="curve" smooth="yes"/>
      <point x="47" y="227"/>
      <point x="48" y="144"/>
      <point x="74" y="89" type="curve" smooth="yes"/>
      <point x="100" y="34"/>
      <point x="151" y="5"/>
    </contour>
  </outline>
</glyph>
<glyph name="oogonek" format="1">
  <advance width="572"/>
  <unicode hex="01EB"/>
  <outline>
    <contour>
      <point x="272" y="-8" type="line"/>
      <point x="286" y="-8" type="line" smooth="yes"/>
      <point x="402" y="-8"/>
      <point x="463" y="8"/>
      <point x="495" y="49" type="curve" smooth="yes"/>
      <point x="527" y="90"/>
      <point x="530" y="155"/>
      <point x="530" y="254" type="curve" smooth="yes"/>
      <point x="530" y="343"/>
      <point x="528" y="407"/>
      <point x="503" y="449" type="curve" smooth="yes"/>
      <point x="479" y="491"/>
      <point x="431" y="511"/>
      <point x="342" y="516" type="curve"/>
      <point x="342" y="254" type="line" smooth="yes"/>
      <point x="342" y="225"/>
      <point x="342" y="203"/>
      <point x="341" y="187" type="curve" smooth="yes"/>
      <point x="340" y="155"/>
      <point x="334" y="140"/>
      <point x="318" y="136" type="curve" smooth="yes"/>
      <point x="311" y="134"/>
      <point x="300" y="133"/>
      <point x="286" y="133" type="curve" smooth="yes"/>
      <point x="272" y="133" type="line"/>
    </contour>
    <contour>
      <point x="360" y="-196" type="curve" smooth="yes"/>
      <point x="379" y="-196"/>
      <point x="396" y="-195"/>
      <point x="411" y="-194" type="curve"/>
      <point x="419" y="-193"/>
      <point x="427" y="-193"/>
      <point x="435" y="-192" type="curve"/>
      <point x="435" y="-103" type="line"/>
      <point x="433" y="-104"/>
      <point x="431" y="-104"/>
      <point x="429" y="-104" type="curve" smooth="yes"/>
      <point x="418" y="-104" type="line" smooth="yes"/>
      <point x="379" y="-104"/>
      <point x="371" y="-89"/>
      <point x="371" y="-70" type="curve" smooth="yes"/>
      <point x="371" y="-37"/>
      <point x="398" y="-10"/>
      <point x="452" y="16" type="curve"/>
      <point x="295" y="17" type="line"/>
      <point x="259" y="-16"/>
      <point x="227" y="-69"/>
      <point x="227" y="-108" type="curve" smooth="yes"/>
      <point x="227" y="-132"/>
      <point x="235" y="-154"/>
      <point x="255" y="-170" type="curve" smooth="yes"/>
      <point x="275" y="-186"/>
      <point x="308" y="-196"/>
    </contour>
    <contour>
      <point x="230" y="-6" type="curve"/>
      <point x="230" y="254" type="line" smooth="yes"/>
      <point x="230" y="283"/>
      <point x="230" y="305"/>
      <point x="231" y="322" type="curve" smooth="yes"/>
      <point x="232" y="354"/>
      <point x="238" y="370"/>
      <point x="253" y="374" type="curve" smooth="yes"/>
      <point x="261" y="376"/>
      <point x="272" y="377"/>
      <point x="286" y="377" type="curve" smooth="yes"/>
      <point x="300" y="377" type="line"/>
      <point x="300" y="518" type="line"/>
      <point x="286" y="518" type="line" smooth="yes"/>
      <point x="170" y="518"/>
      <point x="109" y="501"/>
      <point x="77" y="460" type="curve" smooth="yes"/>
      <point x="45" y="419"/>
      <point x="42" y="353"/>
      <point x="42" y="254" type="curve" smooth="yes"/>
      <point x="42" y="163"/>
      <point x="44" y="101"/>
      <point x="68" y="60" type="curve" smooth="yes"/>
      <point x="93" y="19"/>
      <point x="141" y="-1"/>
    </contour>
  </outline>
</glyph>
<glyph name="jdotless" format="1">
  <advance width="299"/>
  <unicode hex="0237"/>
  <outline>
    <contour>
      <point x="-25" y="-199" type="line"/>
      <point x="87" y="-199"/>
      <point x="153" y="-194"/>
      <point x="193" y="-162" type="curve" smooth="yes"/>
      <point x="232" y="-130"/>
      <point x="242" y="-71"/>
      <point x="242" y="37" type="curve" smooth="yes"/>
      <point x="242" y="510" type="line"/>
      <point x="57" y="510" type="line"/>
      <point x="57" y="-18" type="line" smooth="yes"/>
      <point x="57" y="-27"/>
      <point x="56" y="-35"/>
      <point x="55" y="-41" type="curve"/>
      <point x="52" y="-54"/>
      <point x="43" y="-62"/>
      <point x="21" y="-66" type="curve" smooth="yes"/>
      <point x="10" y="-68"/>
      <point x="-6" y="-69"/>
      <point x="-25" y="-69" type="curve"/>
    </contour>
    <contour>
      <point x="146" y="510" type="move" name="top"/>
    </contour>
  </outline>
</glyph>
<glyph name="primemod" format="1">
  <advance width="194"/>
  <unicode hex="02B9"/>
  <outline>
    <contour>
      <point x="128" y="508" type="line"/>
      <point x="185" y="716" type="line"/>
      <point x="194" y="764" type="line"/>
      <point x="26" y="794" type="line"/>
      <point x="18" y="745" type="line"/>
      <point x="0" y="530" type="line"/>
    </contour>
  </outline>
</glyph>
<glyph name="circumflex" format="1">
  <advance width="377"/>
  <unicode hex="02C6"/>
  <note>
    circumflex
  </note>
  <outline>
    <contour>
      <point x="10" y="596" type="line"/>
      <point x="133" y="596" type="line"/>
      <point x="188" y="671" type="line"/>
      <point x="244" y="596" type="line"/>
      <point x="367" y="596" type="line"/>
      <point x="367" y="604" type="line"/>
      <point x="276" y="743" type="line"/>
      <point x="101" y="743" type="line"/>
      <point x="10" y="604" type="line"/>
    </contour>
    <contour>
      <point x="189" y="510" type="move" name="_top"/>
    </contour>
  </outline>
</glyph>
<glyph name="caron" format="1">
  <advance width="377"/>
  <unicode hex="02C7"/>
  <note>
    caron
  </note>
  <outline>
    <contour>
      <point x="101" y="596" type="line"/>
      <point x="276" y="596" type="line"/>
      <point x="367" y="735" type="line"/>
      <point x="367" y="743" type="line"/>
      <point x="244" y="743" type="line"/>
      <point x="188" y="668" type="line"/>
      <point x="133" y="743" type="line"/>
      <point x="10" y="743" type="line"/>
      <point x="10" y="735" type="line"/>
    </contour>
    <contour>
      <point x="189" y="510" type="move" name="_top"/>
    </contour>
  </outline>
</glyph>
<glyph name="dotaccent" format="1">
  <advance width="193"/>
  <unicode hex="02D9"/>
  <note>
    dotaccent
  </note>
  <outline>
    <contour>
      <point x="20" y="611" type="line"/>
      <point x="173" y="611" type="line"/>
      <point x="173" y="730" type="line"/>
      <point x="20" y="730" type="line"/>
    </contour>
    <contour>
      <point x="98" y="510" type="move" name="_top"/>
    </contour>
  </outline>
</glyph>
<glyph name="ogonek" format="1">
  <advance width="247"/>
  <unicode hex="02DB"/>
  <note>
    ogonek
  </note>
  <outline>
    <contour>
      <point x="149" y="-196" type="curve" smooth="yes"/>
      <point x="168" y="-196"/>
      <point x="185" y="-195"/>
      <point x="200" y="-194" type="curve"/>
      <point x="208" y="-193"/>
      <point x="216" y="-193"/>
      <point x="224" y="-192" type="curve"/>
      <point x="224" y="-103" type="line"/>
      <point x="222" y="-104"/>
      <point x="220" y="-104"/>
      <point x="218" y="-104" type="curve" smooth="yes"/>
      <point x="207" y="-104" type="line" smooth="yes"/>
      <point x="168" y="-104"/>
      <point x="160" y="-89"/>
      <point x="160" y="-70" type="curve" smooth="yes"/>
      <point x="160" y="-57"/>
      <point x="169" y="-41"/>
      <point x="182" y="-28" type="curve"/>
      <point x="194" y="-15"/>
      <point x="210" y="-3"/>
      <point x="223" y="4" type="curve"/>
      <point x="84" y="17" type="line"/>
      <point x="48" y="-16"/>
      <point x="16" y="-69"/>
      <point x="16" y="-108" type="curve" smooth="yes"/>
      <point x="16" y="-132"/>
      <point x="24" y="-154"/>
      <point x="44" y="-170" type="curve" smooth="yes"/>
      <point x="64" y="-186"/>
      <point x="97" y="-196"/>
    </contour>
    <contour>
      <point x="135" y="0" type="move" name="_ogonek"/>
    </contour>
  </outline>
</glyph>
<glyph name="tilde" format="1">
  <advance width="443"/>
  <unicode hex="02DC"/>
  <note>
    tilde
  </note>
  <outline>
    <contour>
      <point x="20" y="579" type="curve"/>
      <point x="113" y="579" type="line"/>
      <point x="113" y="608"/>
      <point x="113" y="619"/>
      <point x="136" y="619" type="curve" smooth="yes"/>
      <point x="146" y="619"/>
      <point x="158" y="618"/>
      <point x="172" y="615" type="curve" smooth="yes"/>
      <point x="186" y="612"/>
      <point x="201" y="609"/>
      <point x="218" y="605" type="curve" smooth="yes"/>
      <point x="251" y="597"/>
      <point x="288" y="591"/>
      <point x="323" y="591" type="curve" smooth="yes"/>
      <point x="372" y="591"/>
      <point x="399" y="606"/>
      <point x="411" y="632" type="curve" smooth="yes"/>
      <point x="423" y="658"/>
      <point x="423" y="695"/>
      <point x="423" y="743" type="curve"/>
      <point x="330" y="743" type="line"/>
      <point x="330" y="714"/>
      <point x="330" y="703"/>
      <point x="307" y="703" type="curve" smooth="yes"/>
      <point x="297" y="703"/>
      <point x="285" y="705"/>
      <point x="271" y="708" type="curve" smooth="yes"/>
      <point x="257" y="711"/>
      <point x="242" y="713"/>
      <point x="225" y="717" type="curve" smooth="yes"/>
      <point x="192" y="725"/>
      <point x="155" y="731"/>
      <point x="120" y="731" type="curve" smooth="yes"/>
      <point x="71" y="731"/>
      <point x="46" y="717"/>
      <point x="33" y="691" type="curve" smooth="yes"/>
      <point x="20" y="665"/>
      <point x="20" y="627"/>
    </contour>
    <contour>
      <point x="221" y="510" type="move" name="_top"/>
    </contour>
  </outline>
</glyph>
<glyph name="strokeshortcomb" format="1">
  <advance width="493"/>
  <unicode hex="0335"/>
  <outline>
    <contour>
      <point x="66" y="231" type="line"/>
      <point x="427" y="231" type="line"/>
      <point x="427" y="380" type="line"/>
      <point x="66" y="380" type="line"/>
    </contour>
    <contour>
      <point x="253" y="306" type="move" name="_center"/>
    </contour>
  </outline>
</glyph>
<glyph name="strokelongcomb" format="1">
  <advance width="693"/>
  <unicode hex="0336"/>
  <outline>
    <contour>
      <point x="16" y="231" type="line"/>
      <point x="677" y="231" type="line"/>
      <point x="677" y="380" type="line"/>
      <point x="16" y="380" type="line"/>
    </contour>
    <contour>
      <point x="347" y="306" type="move" name="_center"/>
    </contour>
  </outline>
</glyph>
<glyph name="Delta" format="1">
  <advance width="687"/>
  <unicode hex="0394"/>
  <note>
    uni2206
  </note>
  <outline>
    <contour>
      <point x="245" y="0" type="line"/>
      <point x="685" y="0" type="line"/>
      <point x="466" y="688" type="line"/>
      <point x="283" y="688" type="line"/>
      <point x="436" y="154" type="line"/>
      <point x="287" y="154" type="line"/>
    </contour>
    <contour>
      <point x="2" y="0" type="line"/>
      <point x="202" y="0" type="line"/>
      <point x="317" y="414" type="line"/>
      <point x="238" y="688" type="line"/>
      <point x="221" y="688" type="line"/>
    </contour>
  </outline>
</glyph>
<glyph name="mu" format="1">
  <advance width="586"/>
  <unicode hex="03BC"/>
  <note>
    uni00B5
  </note>
  <outline>
    <contour>
      <point x="55" y="-189" type="line"/>
      <point x="240" y="-189" type="line"/>
      <point x="240" y="-3" type="line"/>
      <point x="263" y="0"/>
      <point x="283" y="6"/>
      <point x="302" y="21" type="curve"/>
      <point x="302" y="147" type="line"/>
      <point x="292" y="147" type="line" smooth="yes"/>
      <point x="265" y="147"/>
      <point x="253" y="147"/>
      <point x="247" y="163" type="curve"/>
      <point x="244" y="170"/>
      <point x="242" y="182"/>
      <point x="241" y="199" type="curve" smooth="yes"/>
      <point x="240" y="216"/>
      <point x="240" y="239"/>
      <point x="240" y="269" type="curve" smooth="yes"/>
      <point x="240" y="510" type="line"/>
      <point x="55" y="510" type="line"/>
    </contour>
    <contour>
      <point x="344" y="0" type="line"/>
      <point x="529" y="0" type="line"/>
      <point x="529" y="510" type="line"/>
      <point x="344" y="510" type="line"/>
    </contour>
  </outline>
</glyph>
<glyph name="endash" format="1">
  <advance width="480"/>
  <unicode hex="2013"/>
  <note>
    endash
  </note>
  <outline>
    <contour>
      <point x="40" y="238" type="line"/>
      <point x="440" y="238" type="line"/>
      <point x="440" y="371" type="line"/>
      <point x="40" y="371" type="line"/>
    </contour>
  </outline>
</glyph>
<glyph name="quoteleft" format="1">
  <advance width="320"/>
  <unicode hex="2018"/>
  <note>
    quoteleft
  </note>
  <outline>
    <contour>
      <point x="65" y="387" type="line"/>
      <point x="255" y="387" type="line"/>
      <point x="255" y="540" type="line"/>
      <point x="183" y="540" type="line"/>
      <point x="183" y="553" type="line" smooth="yes"/>
      <point x="183" y="577"/>
      <point x="185" y="595"/>
      <point x="195" y="605" type="curve" smooth="yes"/>
      <point x="205" y="615"/>
      <point x="223" y="619"/>
      <point x="255" y="619" type="curve"/>
      <point x="255" y="688" type="line"/>
      <point x="170" y="688"/>
      <point x="122" y="677"/>
      <point x="96" y="649" type="curve" smooth="yes"/>
      <point x="70" y="621"/>
      <point x="65" y="575"/>
      <point x="65" y="503" type="curve" smooth="yes"/>
    </contour>
  </outline>
</glyph>
<glyph name="quoteright" format="1">
  <advance width="320"/>
  <unicode hex="2019"/>
  <note>
    quoteright
  </note>
  <outline>
    <contour>
      <point x="65" y="387" type="line"/>
      <point x="150" y="387"/>
      <point x="199" y="398"/>
      <point x="225" y="426" type="curve" smooth="yes"/>
      <point x="251" y="454"/>
      <point x="255" y="500"/>
      <point x="255" y="572" type="curve" smooth="yes"/>
      <point x="255" y="688" type="line"/>
      <point x="65" y="688" type="line"/>
      <point x="65" y="535" type="line"/>
      <point x="137" y="535" type="line"/>
      <point x="137" y="522" type="line" smooth="yes"/>
      <point x="137" y="498"/>
      <point x="135" y="481"/>
      <point x="125" y="471" type="curve" smooth="yes"/>
      <point x="115" y="461"/>
      <point x="97" y="456"/>
      <point x="65" y="456" type="curve"/>
    </contour>
  </outline>
</glyph>
<glyph name="quotesinglbase" format="1">
  <advance width="320"/>
  <unicode hex="201A"/>
  <note>
    quotesinglbase
  </note>
  <outline>
    <contour>
      <point x="65" y="-148" type="line"/>
      <point x="150" y="-148"/>
      <point x="199" y="-137"/>
      <point x="225" y="-109" type="curve" smooth="yes"/>
      <point x="251" y="-81"/>
      <point x="255" y="-35"/>
      <point x="255" y="37" type="curve" smooth="yes"/>
      <point x="255" y="153" type="line"/>
      <point x="65" y="153" type="line"/>
      <point x="65" y="0" type="line"/>
      <point x="137" y="0" type="line"/>
      <point x="137" y="-13" type="line" smooth="yes"/>
      <point x="137" y="-37"/>
      <point x="135" y="-54"/>
      <point x="125" y="-64" type="curve" smooth="yes"/>
      <point x="115" y="-74"/>
      <point x="97" y="-79"/>
      <point x="65" y="-79" type="curve"/>
    </contour>
  </outline>
</glyph>
<glyph name="quotedblright" format="1">
  <advance width="565"/>
  <unicode hex="201D"/>
  <note>
    quotedblright
  </note>
  <outline>
    <contour>
      <point x="310" y="387" type="line"/>
      <point x="395" y="387"/>
      <point x="444" y="398"/>
      <point x="470" y="426" type="curve" smooth="yes"/>
      <point x="496" y="454"/>
      <point x="500" y="500"/>
      <point x="500" y="572" type="curve" smooth="yes"/>
      <point x="500" y="688" type="line"/>
      <point x="310" y="688" type="line"/>
      <point x="310" y="535" type="line"/>
      <point x="382" y="535" type="line"/>
      <point x="382" y="522" type="line" smooth="yes"/>
      <point x="382" y="498"/>
      <point x="380" y="481"/>
      <point x="370" y="471" type="curve" smooth="yes"/>
      <point x="360" y="461"/>
      <point x="342" y="456"/>
      <point x="310" y="456" type="curve"/>
    </contour>
    <contour>
      <point x="65" y="387" type="line"/>
      <point x="150" y="387"/>
      <point x="199" y="398"/>
      <point x="225" y="426" type="curve" smooth="yes"/>
      <point x="251" y="454"/>
      <point x="255" y="500"/>
      <point x="255" y="572" type="curve" smooth="yes"/>
      <point x="255" y="688" type="line"/>
      <point x="65" y="688" type="line"/>
      <point x="65" y="535" type="line"/>
      <point x="137" y="535" type="line"/>
      <point x="137" y="522" type="line" smooth="yes"/>
      <point x="137" y="498"/>
      <point x="135" y="481"/>
      <point x="125" y="471" type="curve" smooth="yes"/>
      <point x="115" y="461"/>
      <point x="97" y="456"/>
      <point x="65" y="456" type="curve"/>
    </contour>
  </outline>
</glyph>
<glyph name="quotedblbase" format="1">
  <advance width="565"/>
  <unicode hex="201E"/>
  <note>
    quotedblbase
  </note>
  <outline>
    <contour>
      <point x="310" y="-148" type="line"/>
      <point x="395" y="-148"/>
      <point x="444" y="-137"/>
      <point x="470" y="-109" type="curve" smooth="yes"/>
      <point x="496" y="-81"/>
      <point x="500" y="-35"/>
      <point x="500" y="37" type="curve" smooth="yes"/>
      <point x="500" y="153" type="line"/>
      <point x="310" y="153" type="line"/>
      <point x="310" y="0" type="line"/>
      <point x="382" y="0" type="line"/>
      <point x="382" y="-13" type="line" smooth="yes"/>
      <point x="382" y="-37"/>
      <point x="380" y="-54"/>
      <point x="370" y="-64" type="curve" smooth="yes"/>
      <point x="360" y="-74"/>
      <point x="342" y="-79"/>
      <point x="310" y="-79" type="curve"/>
    </contour>
    <contour>
      <point x="65" y="-148" type="line"/>
      <point x="150" y="-148"/>
      <point x="199" y="-137"/>
      <point x="225" y="-109" type="curve" smooth="yes"/>
      <point x="251" y="-81"/>
      <point x="255" y="-35"/>
      <point x="255" y="37" type="curve" smooth="yes"/>
      <point x="255" y="153" type="line"/>
      <point x="65" y="153" type="line"/>
      <point x="65" y="0" type="line"/>
      <point x="137" y="0" type="line"/>
      <point x="137" y="-13" type="line" smooth="yes"/>
      <point x="137" y="-37"/>
      <point x="135" y="-54"/>
      <point x="125" y="-64" type="curve" smooth="yes"/>
      <point x="115" y="-74"/>
      <point x="97" y="-79"/>
      <point x="65" y="-79" type="curve"/>
    </contour>
  </outline>
</glyph>
<glyph name="daggerdbl" format="1">
  <advance width="540"/>
  <unicode hex="2021"/>
  <note>
    daggerdbl
  </note>
  <outline>
    <contour>
      <point x="213" y="0" type="line"/>
      <point x="327" y="0" type="line"/>
      <point x="337" y="142" type="line"/>
      <point x="470" y="152" type="line"/>
      <point x="470" y="266" type="line"/>
      <point x="337" y="276" type="line"/>
      <point x="337" y="372" type="line"/>
      <point x="203" y="372" type="line"/>
      <point x="203" y="276" type="line"/>
      <point x="70" y="266" type="line"/>
      <point x="70" y="152" type="line"/>
      <point x="203" y="142" type="line"/>
    </contour>
    <contour>
      <point x="203" y="412" type="line"/>
      <point x="337" y="412" type="line"/>
      <point x="470" y="422" type="line"/>
      <point x="470" y="536" type="line"/>
      <point x="337" y="546" type="line"/>
      <point x="327" y="688" type="line"/>
      <point x="213" y="688" type="line"/>
      <point x="203" y="546" type="line"/>
      <point x="70" y="536" type="line"/>
      <point x="70" y="422" type="line"/>
    </contour>
  </outline>
</glyph>
<glyph name="guilsinglleft" format="1">
  <advance width="312"/>
  <unicode hex="2039"/>
  <note>
    guilsinglleft
  </note>
  <outline>
    <contour>
      <point x="146" y="99" type="line"/>
      <point x="267" y="99" type="line"/>
      <point x="166" y="304" type="line"/>
      <point x="267" y="510" type="line"/>
      <point x="146" y="510" type="line"/>
      <point x="14" y="304" type="line"/>
    </contour>
  </outline>
</glyph>
<glyph name="fraction" format="1">
  <advance width="446"/>
  <unicode hex="2044"/>
  <note>
    fraction
  </note>
  <outline>
    <contour>
      <point x="-60" y="0" type="line"/>
      <point x="57" y="0" type="line"/>
      <point x="506" y="688" type="line"/>
      <point x="389" y="688" type="line"/>
    </contour>
  </outline>
</glyph>
<glyph name="foursuperior" format="1">
  <advance width="370"/>
  <unicode hex="2074"/>
  <outline>
    <contour>
      <point x="19" y="480" type="line"/>
      <point x="90" y="480" type="line"/>
      <point x="264" y="788" type="line"/>
      <point x="139" y="788" type="line"/>
      <point x="19" y="556" type="line"/>
    </contour>
    <contour>
      <point x="197" y="408" type="line"/>
      <point x="311" y="408" type="line"/>
      <point x="311" y="480" type="line"/>
      <point x="355" y="480" type="line"/>
      <point x="355" y="566" type="line"/>
      <point x="311" y="566" type="line"/>
      <point x="311" y="642" type="line"/>
      <point x="237" y="642" type="line"/>
      <point x="201" y="566" type="line"/>
      <point x="181" y="566" type="line"/>
      <point x="132" y="480" type="line"/>
      <point x="197" y="480" type="line"/>
    </contour>
  </outline>
</glyph>
<glyph name="sevensuperior" format="1">
  <advance width="328"/>
  <unicode hex="2077"/>
  <outline>
    <contour>
      <point x="51" y="408" type="line"/>
      <point x="179" y="408" type="line"/>
      <point x="289" y="664" type="line"/>
      <point x="170" y="664" type="line"/>
    </contour>
    <contour>
      <point x="19" y="701" type="line"/>
      <point x="187" y="701" type="line"/>
      <point x="308" y="701" type="line"/>
      <point x="308" y="788" type="line"/>
      <point x="19" y="788" type="line"/>
    </contour>
  </outline>
</glyph>
<glyph name="ninesuperior" format="1">
  <advance width="378"/>
  <unicode hex="2079"/>
  <outline>
    <contour>
      <point x="231" y="407" type="line"/>
      <point x="286" y="414"/>
      <point x="319" y="436"/>
      <point x="334" y="479" type="curve" smooth="yes"/>
      <point x="344" y="507"/>
      <point x="348" y="547"/>
      <point x="348" y="599" type="curve" smooth="yes"/>
      <point x="348" y="662"/>
      <point x="344" y="705"/>
      <point x="335" y="727" type="curve" smooth="yes"/>
      <point x="311" y="785"/>
      <point x="266" y="793"/>
      <point x="181" y="793" type="curve" smooth="yes"/>
      <point x="179" y="793"/>
      <point x="176" y="793"/>
      <point x="174" y="793" type="curve"/>
      <point x="174" y="709" type="line"/>
      <point x="177" y="709"/>
      <point x="181" y="709"/>
      <point x="185" y="709" type="curve" smooth="yes"/>
      <point x="219" y="709"/>
      <point x="231" y="708"/>
      <point x="231" y="667" type="curve"/>
    </contour>
    <contour>
      <point x="177" y="404" type="curve" smooth="yes"/>
      <point x="183" y="404"/>
      <point x="189" y="404"/>
      <point x="194" y="404" type="curve"/>
      <point x="194" y="493" type="line"/>
      <point x="184" y="492"/>
      <point x="172" y="491"/>
      <point x="156" y="491" type="curve" smooth="yes"/>
      <point x="136" y="491"/>
      <point x="94" y="494"/>
      <point x="50" y="498" type="curve"/>
      <point x="50" y="416" type="line"/>
      <point x="93" y="408"/>
      <point x="146" y="404"/>
    </contour>
    <contour>
      <point x="149" y="546" type="curve" smooth="yes"/>
      <point x="168" y="546"/>
      <point x="183" y="548"/>
      <point x="194" y="551" type="curve"/>
      <point x="194" y="630" type="line"/>
      <point x="191" y="630"/>
      <point x="188" y="630"/>
      <point x="185" y="630" type="curve" smooth="yes"/>
      <point x="145" y="630"/>
      <point x="137" y="634"/>
      <point x="137" y="670" type="curve"/>
      <point x="137" y="791" type="line"/>
      <point x="48" y="781"/>
      <point x="26" y="741"/>
      <point x="26" y="660" type="curve" smooth="yes"/>
      <point x="26" y="564"/>
      <point x="71" y="546"/>
    </contour>
  </outline>
</glyph>
<glyph name="peseta" format="1">
  <advance width="704"/>
  <unicode hex="20A7"/>
  <outline>
    <contour>
      <point x="430" y="401" type="curve"/>
      <point x="634" y="401" type="line"/>
      <point x="635" y="417"/>
      <point x="635" y="433"/>
      <point x="635" y="451" type="curve" smooth="yes"/>
      <point x="635" y="530"/>
      <point x="628" y="589"/>
      <point x="596" y="629" type="curve" smooth="yes"/>
      <point x="564" y="668"/>
      <point x="506" y="688"/>
      <point x="405" y="688" type="curve" smooth="yes"/>
      <point x="322" y="688" type="line"/>
      <point x="322" y="545" type="line"/>
      <point x="346" y="545" type="line" smooth="yes"/>
      <point x="385" y="545"/>
      <point x="406" y="543"/>
      <point x="418" y="532" type="curve"/>
      <point x="430" y="520"/>
      <point x="432" y="500"/>
      <point x="432" y="451" type="curve" smooth="yes"/>
      <point x="432" y="429"/>
      <point x="432" y="413"/>
    </contour>
    <contour>
      <point x="80" y="0" type="line"/>
      <point x="280" y="0" type="line"/>
      <point x="280" y="356" type="line"/>
      <point x="80" y="356" type="line"/>
    </contour>
    <contour>
      <point x="80" y="400" type="line"/>
      <point x="280" y="400" type="line"/>
      <point x="280" y="688" type="line"/>
      <point x="80" y="688" type="line"/>
    </contour>
    <contour>
      <point x="322" y="214" type="line"/>
      <point x="405" y="214" type="line" smooth="yes"/>
      <point x="509" y="214"/>
      <point x="566" y="238"/>
      <point x="598" y="279" type="curve" smooth="yes"/>
      <point x="614" y="300"/>
      <point x="625" y="326"/>
      <point x="629" y="356" type="curve"/>
      <point x="322" y="356" type="line"/>
    </contour>
    <contour>
      <point x="5" y="400" type="line"/>
      <point x="699" y="400" type="line"/>
      <point x="699" y="509" type="line"/>
      <point x="5" y="509" type="line"/>
    </contour>
  </outline>
</glyph>
<glyph name="dong" format="1">
  <advance width="578"/>
  <unicode hex="20AB"/>
  <outline>
    <contour>
      <point x="61" y="-149" type="line"/>
      <point x="522" y="-149" type="line"/>
      <point x="522" y="-62" type="line"/>
      <point x="61" y="-62" type="line"/>
    </contour>
    <component base="dcroat"/>
  </outline>
</glyph>
<glyph name="euro" format="1">
  <advance width="607"/>
  <unicode hex="20AC"/>
  <note>
    Euro
  </note>
  <outline>
    <contour>
      <point x="388" y="-8" type="curve" smooth="yes"/>
      <point x="414" y="-8"/>
      <point x="438" y="-7"/>
      <point x="461" y="-5" type="curve" smooth="yes"/>
      <point x="505" y="-2"/>
      <point x="538" y="3"/>
      <point x="569" y="10" type="curve"/>
      <point x="569" y="155" type="line"/>
      <point x="557" y="153"/>
      <point x="544" y="151"/>
      <point x="531" y="150" type="curve"/>
      <point x="507" y="147"/>
      <point x="475" y="145"/>
      <point x="438" y="145" type="curve" smooth="yes"/>
      <point x="387" y="145"/>
      <point x="356" y="147"/>
      <point x="336" y="159" type="curve"/>
      <point x="315" y="170"/>
      <point x="306" y="191"/>
      <point x="302" y="228" type="curve"/>
      <point x="516" y="228" type="line"/>
      <point x="516" y="325" type="line"/>
      <point x="30" y="325" type="line"/>
      <point x="30" y="228" type="line"/>
      <point x="100" y="228" type="line"/>
      <point x="108" y="140"/>
      <point x="127" y="81"/>
      <point x="171" y="44" type="curve" smooth="yes"/>
      <point x="215" y="7"/>
      <point x="283" y="-8"/>
    </contour>
    <contour>
      <point x="30" y="365" type="line"/>
      <point x="516" y="365" type="line"/>
      <point x="516" y="462" type="line"/>
      <point x="303" y="462" type="line"/>
      <point x="307" y="498"/>
      <point x="316" y="518"/>
      <point x="337" y="530" type="curve" smooth="yes"/>
      <point x="357" y="541"/>
      <point x="389" y="543"/>
      <point x="438" y="543" type="curve" smooth="yes"/>
      <point x="459" y="543"/>
      <point x="490" y="541"/>
      <point x="517" y="538" type="curve" smooth="yes"/>
      <point x="532" y="536"/>
      <point x="548" y="534"/>
      <point x="565" y="533" type="curve"/>
      <point x="565" y="676" type="line"/>
      <point x="550" y="680"/>
      <point x="534" y="683"/>
      <point x="516" y="686" type="curve" smooth="yes"/>
      <point x="485" y="691"/>
      <point x="440" y="696"/>
      <point x="388" y="696" type="curve" smooth="yes"/>
      <point x="284" y="696"/>
      <point x="215" y="681"/>
      <point x="171" y="645" type="curve" smooth="yes"/>
      <point x="127" y="608"/>
      <point x="108" y="549"/>
      <point x="100" y="462" type="curve"/>
      <point x="30" y="462" type="line"/>
    </contour>
  </outline>
</glyph>
<glyph name="published" format="1">
  <advance width="754"/>
  <unicode hex="2117"/>
  <outline>
    <contour>
      <point x="75" y="364" type="curve"/>
      <point x="148" y="364" type="line"/>
      <point x="148" y="449"/>
      <point x="149" y="508"/>
      <point x="159" y="547" type="curve" smooth="yes"/>
      <point x="169" y="586"/>
      <point x="186" y="605"/>
      <point x="220" y="616" type="curve" smooth="yes"/>
      <point x="254" y="627"/>
      <point x="304" y="627"/>
      <point x="377" y="627" type="curve" smooth="yes"/>
      <point x="450" y="627"/>
      <point x="501" y="627"/>
      <point x="534" y="616" type="curve" smooth="yes"/>
      <point x="567" y="605"/>
      <point x="586" y="586"/>
      <point x="595" y="547" type="curve" smooth="yes"/>
      <point x="604" y="508"/>
      <point x="606" y="449"/>
      <point x="606" y="364" type="curve"/>
      <point x="679" y="364" type="line"/>
      <point x="679" y="461"/>
      <point x="677" y="532"/>
      <point x="663" y="581" type="curve" smooth="yes"/>
      <point x="649" y="630"/>
      <point x="624" y="659"/>
      <point x="580" y="676" type="curve" smooth="yes"/>
      <point x="535" y="692"/>
      <point x="470" y="696"/>
      <point x="377" y="696" type="curve" smooth="yes"/>
      <point x="237" y="696"/>
      <point x="161" y="687"/>
      <point x="121" y="641" type="curve" smooth="yes"/>
      <point x="81" y="595"/>
      <point x="75" y="511"/>
    </contour>
    <contour>
      <point x="377" y="-8" type="curve" smooth="yes"/>
      <point x="517" y="-8"/>
      <point x="592" y="2"/>
      <point x="633" y="48" type="curve" smooth="yes"/>
      <point x="673" y="94"/>
      <point x="679" y="176"/>
      <point x="679" y="324" type="curve"/>
      <point x="606" y="324" type="line"/>
      <point x="606" y="237"/>
      <point x="604" y="180"/>
      <point x="595" y="141" type="curve" smooth="yes"/>
      <point x="586" y="102"/>
      <point x="567" y="83"/>
      <point x="534" y="72" type="curve" smooth="yes"/>
      <point x="501" y="61"/>
      <point x="450" y="61"/>
      <point x="377" y="61" type="curve" smooth="yes"/>
      <point x="304" y="61"/>
      <point x="254" y="61"/>
      <point x="220" y="72" type="curve" smooth="yes"/>
      <point x="186" y="83"/>
      <point x="169" y="102"/>
      <point x="159" y="141" type="curve" smooth="yes"/>
      <point x="149" y="180"/>
      <point x="148" y="239"/>
      <point x="148" y="324" type="curve"/>
      <point x="75" y="324" type="line"/>
      <point x="75" y="176"/>
      <point x="81" y="94"/>
      <point x="121" y="48" type="curve" smooth="yes"/>
      <point x="161" y="2"/>
      <point x="237" y="-8"/>
    </contour>
    <contour>
      <point x="241" y="160" type="line"/>
      <point x="348" y="160" type="line"/>
      <point x="348" y="527" type="line"/>
      <point x="241" y="527" type="line"/>
    </contour>
    <contour>
      <point x="385" y="275" type="line"/>
      <point x="416" y="275" type="line" smooth="yes"/>
      <point x="456" y="275"/>
      <point x="487" y="277"/>
      <point x="509" y="294" type="curve" smooth="yes"/>
      <point x="530" y="310"/>
      <point x="542" y="340"/>
      <point x="542" y="401" type="curve" smooth="yes"/>
      <point x="542" y="446"/>
      <point x="538" y="476"/>
      <point x="522" y="497" type="curve" smooth="yes"/>
      <point x="506" y="517"/>
      <point x="477" y="527"/>
      <point x="426" y="527" type="curve" smooth="yes"/>
      <point x="385" y="527" type="line"/>
      <point x="385" y="445" type="line"/>
      <point x="406" y="445"/>
      <point x="419" y="444"/>
      <point x="426" y="439" type="curve" smooth="yes"/>
      <point x="433" y="434"/>
      <point x="434" y="418"/>
      <point x="434" y="401" type="curve" smooth="yes"/>
      <point x="434" y="360"/>
      <point x="429" y="356"/>
      <point x="385" y="356" type="curve"/>
    </contour>
  </outline>
</glyph>
<glyph name="trademark" format="1">
  <advance width="820"/>
  <unicode hex="2122"/>
  <note>
    trademark
  </note>
  <outline>
    <contour>
      <point x="534" y="388" type="line"/>
      <point x="598" y="388" type="line"/>
      <point x="615" y="421" type="line"/>
      <point x="472" y="688" type="line"/>
      <point x="381" y="688" type="line"/>
      <point x="381" y="675" type="line"/>
    </contour>
    <contour>
      <point x="155" y="388" type="line"/>
      <point x="254" y="388" type="line"/>
      <point x="254" y="584" type="line"/>
      <point x="155" y="584" type="line"/>
    </contour>
    <contour>
      <point x="65" y="604" type="line"/>
      <point x="344" y="604" type="line"/>
      <point x="344" y="688" type="line"/>
      <point x="65" y="688" type="line"/>
    </contour>
    <contour>
      <point x="381" y="388" type="line"/>
      <point x="472" y="388" type="line"/>
      <point x="472" y="461" type="line"/>
      <point x="381" y="632" type="line"/>
    </contour>
    <contour>
      <point x="662" y="388" type="line"/>
      <point x="755" y="388" type="line"/>
      <point x="755" y="688" type="line"/>
      <point x="661" y="688" type="line"/>
      <point x="583" y="524" type="line"/>
      <point x="626" y="443" type="line"/>
      <point x="658" y="514" type="line"/>
      <point x="662" y="514" type="line"/>
    </contour>
  </outline>
</glyph>
<glyph name="estimated" format="1">
  <advance width="645"/>
  <unicode hex="212E"/>
  <outline>
    <contour>
      <point x="325" y="-12" type="curve" smooth="yes"/>
      <point x="402" y="-12"/>
      <point x="478" y="20"/>
      <point x="540" y="105" type="curve"/>
      <point x="518" y="127" type="line"/>
      <point x="459" y="57"/>
      <point x="412" y="32"/>
      <point x="331" y="32" type="curve" smooth="yes"/>
      <point x="268" y="32"/>
      <point x="213" y="49"/>
      <point x="213" y="114" type="curve" smooth="yes"/>
      <point x="214" y="502" type="line"/>
      <point x="128" y="466"/>
      <point x="70" y="383"/>
      <point x="70" y="256" type="curve" smooth="yes"/>
      <point x="70" y="80"/>
      <point x="182" y="-12"/>
    </contour>
    <contour>
      <point x="263" y="252" type="line"/>
      <point x="575" y="252" type="line"/>
      <point x="575" y="296" type="line"/>
      <point x="263" y="296" type="line"/>
    </contour>
    <contour>
      <point x="263" y="471" type="line"/>
      <point x="263" y="518" type="line"/>
    </contour>
    <contour>
      <point x="429" y="266" type="line"/>
      <point x="575" y="266" type="line"/>
      <point x="575" y="440"/>
      <point x="456" y="524"/>
      <point x="325" y="524" type="curve" smooth="yes"/>
      <point x="304" y="524"/>
      <point x="283" y="522"/>
      <point x="263" y="518" type="curve"/>
      <point x="263" y="471" type="line"/>
      <point x="281" y="477"/>
      <point x="302" y="479"/>
      <point x="325" y="479" type="curve" smooth="yes"/>
      <point x="385" y="479"/>
      <point x="429" y="464"/>
      <point x="429" y="398" type="curve" smooth="yes"/>
    </contour>
  </outline>
</glyph>
<glyph name="notequal" format="1">
  <advance width="540"/>
  <unicode hex="2260"/>
  <note>
    notequal
  </note>
  <outline>
    <contour>
      <point x="91" y="0" type="line"/>
      <point x="204" y="0" type="line"/>
      <point x="244" y="86" type="line"/>
      <point x="470" y="86" type="line"/>
      <point x="470" y="220" type="line"/>
      <point x="306" y="220" type="line"/>
      <point x="337" y="286" type="line"/>
      <point x="470" y="286" type="line"/>
      <point x="470" y="420" type="line"/>
      <point x="400" y="420" type="line"/>
      <point x="442" y="510" type="line"/>
      <point x="329" y="510" type="line"/>
      <point x="287" y="420" type="line"/>
      <point x="70" y="420" type="line"/>
      <point x="70" y="286" type="line"/>
      <point x="224" y="286" type="line"/>
      <point x="193" y="220" type="line"/>
      <point x="70" y="220" type="line"/>
      <point x="70" y="86" type="line"/>
      <point x="131" y="86" type="line"/>
    </contour>
  </outline>
</glyph>
<glyph name="lessequal" format="1">
  <advance width="541"/>
  <unicode hex="2264"/>
  <note>
    lessequal
  </note>
  <outline>
    <contour>
      <point x="470" y="174" type="curve"/>
      <point x="470" y="308" type="line"/>
      <point x="235" y="382" type="line"/>
      <point x="470" y="456" type="line"/>
      <point x="470" y="590" type="line"/>
      <point x="70" y="448" type="line"/>
      <point x="70" y="316" type="line"/>
      <point x="87" y="310" type="line" smooth="yes"/>
      <point x="110" y="302"/>
      <point x="148" y="288"/>
      <point x="196" y="271" type="curve" smooth="yes"/>
      <point x="220" y="262"/>
      <point x="245" y="254"/>
      <point x="270" y="245" type="curve" smooth="yes"/>
      <point x="329" y="224"/>
      <point x="395" y="200"/>
    </contour>
    <contour>
      <point x="70" y="0" type="line"/>
      <point x="470" y="0" type="line"/>
      <point x="470" y="134" type="line"/>
      <point x="70" y="134" type="line"/>
    </contour>
  </outline>
</glyph>
<glyph name="greaterequal" format="1">
  <advance width="541"/>
  <unicode hex="2265"/>
  <note>
    greaterequal
  </note>
  <outline>
    <contour>
      <point x="70" y="174" type="line"/>
      <point x="145" y="200"/>
      <point x="212" y="224"/>
      <point x="271" y="245" type="curve" smooth="yes"/>
      <point x="296" y="254"/>
      <point x="321" y="262"/>
      <point x="344" y="271" type="curve" smooth="yes"/>
      <point x="367" y="280"/>
      <point x="389" y="287"/>
      <point x="408" y="294" type="curve"/>
      <point x="430" y="301"/>
      <point x="451" y="309"/>
      <point x="471" y="316" type="curve"/>
      <point x="471" y="448" type="line"/>
      <point x="70" y="590" type="line"/>
      <point x="70" y="456" type="line"/>
      <point x="306" y="382" type="line"/>
      <point x="70" y="308" type="line"/>
    </contour>
    <contour>
      <point x="70" y="0" type="line"/>
      <point x="471" y="0" type="line"/>
      <point x="471" y="134" type="line"/>
      <point x="70" y="134" type="line"/>
    </contour>
  </outline>
</glyph>
<glyph name="uniF8FF" format="1">
  <advance width="841"/>
  <unicode hex="F8FF"/>
  <note>
    uniF8FF
  </note>
  <outline>
    <contour>
      <point x="72" y="0" type="line"/>
      <point x="769" y="0" type="line"/>
      <point x="769" y="698" type="line"/>
      <point x="72" y="698" type="line"/>
    </contour>
    <contour>
      <point x="422" y="135" type="curve" smooth="yes"/>
      <point x="359" y="135"/>
      <point x="311" y="155"/>
      <point x="277" y="188" type="curve" smooth="yes"/>
      <point x="243" y="221"/>
      <point x="224" y="265"/>
      <point x="224" y="316" type="curve" smooth="yes"/>
      <point x="224" y="382" type="line" smooth="yes"/>
      <point x="224" y="431"/>
      <point x="243" y="477"/>
      <point x="277" y="510" type="curve" smooth="yes"/>
      <point x="311" y="543"/>
      <point x="359" y="563"/>
      <point x="422" y="563" type="curve" smooth="yes"/>
      <point x="483" y="563"/>
      <point x="533" y="543"/>
      <point x="567" y="510" type="curve" smooth="yes"/>
      <point x="601" y="477"/>
      <point x="618" y="431"/>
      <point x="618" y="382" type="curve" smooth="yes"/>
      <point x="618" y="316" type="line" smooth="yes"/>
      <point x="618" y="265"/>
      <point x="601" y="221"/>
      <point x="567" y="188" type="curve" smooth="yes"/>
      <point x="533" y="155"/>
      <point x="483" y="135"/>
    </contour>
    <contour>
      <point x="422" y="230" type="curve" smooth="yes"/>
      <point x="457" y="230"/>
      <point x="483" y="257"/>
      <point x="483" y="290" type="curve" smooth="yes"/>
      <point x="483" y="408" type="line" smooth="yes"/>
      <point x="483" y="441"/>
      <point x="457" y="468"/>
      <point x="422" y="468" type="curve" smooth="yes"/>
      <point x="387" y="468"/>
      <point x="360" y="441"/>
      <point x="360" y="408" type="curve" smooth="yes"/>
      <point x="360" y="290" type="line" smooth="yes"/>
      <point x="360" y="257"/>
      <point x="387" y="230"/>
    </contour>
  </outline>
</glyph>
<glyph name="G.salt" format="1">
  <advance width="690"/>
  <note>
    G.salt
  </note>
  <outline>
    <contour>
      <point x="364" y="-8" type="curve" smooth="yes"/>
      <point x="379" y="-8" type="line" smooth="yes"/>
      <point x="384" y="-8"/>
      <point x="389" y="-8"/>
      <point x="394" y="-7" type="curve"/>
      <point x="394" y="146" type="line"/>
      <point x="389" y="145"/>
      <point x="383" y="145"/>
      <point x="376" y="145" type="curve" smooth="yes"/>
      <point x="351" y="145" type="line" smooth="yes"/>
      <point x="329" y="145"/>
      <point x="312" y="146"/>
      <point x="299" y="149" type="curve"/>
      <point x="273" y="154"/>
      <point x="259" y="179"/>
      <point x="255" y="232" type="curve"/>
      <point x="252" y="259"/>
      <point x="251" y="296"/>
      <point x="251" y="344" type="curve" smooth="yes"/>
      <point x="251" y="689" type="line"/>
      <point x="168" y="678"/>
      <point x="118" y="652"/>
      <point x="87" y="598" type="curve" smooth="yes"/>
      <point x="56" y="544"/>
      <point x="47" y="463"/>
      <point x="47" y="344" type="curve" smooth="yes"/>
      <point x="47" y="200"/>
      <point x="56" y="112"/>
      <point x="100" y="60" type="curve" smooth="yes"/>
      <point x="144" y="8"/>
      <point x="224" y="-8"/>
    </contour>
    <contour>
      <point x="436" y="-5" type="line"/>
      <point x="535" y="2"/>
      <point x="585" y="24"/>
      <point x="610" y="67" type="curve" smooth="yes"/>
      <point x="634" y="110"/>
      <point x="635" y="173"/>
      <point x="635" y="261" type="curve" smooth="yes"/>
      <point x="635" y="418" type="line"/>
      <point x="350" y="418" type="line"/>
      <point x="350" y="273" type="line"/>
      <point x="436" y="273" type="line"/>
    </contour>
    <contour>
      <point x="293" y="527" type="line"/>
      <point x="320" y="542"/>
      <point x="364" y="543"/>
      <point x="439" y="543" type="curve" smooth="yes"/>
      <point x="453" y="543"/>
      <point x="470" y="542"/>
      <point x="489" y="541" type="curve"/>
      <point x="508" y="539"/>
      <point x="527" y="537"/>
      <point x="544" y="536" type="curve"/>
      <point x="565" y="533"/>
      <point x="586" y="531"/>
      <point x="607" y="529" type="curve"/>
      <point x="607" y="672" type="line"/>
      <point x="584" y="677"/>
      <point x="560" y="681"/>
      <point x="534" y="684" type="curve"/>
      <point x="490" y="691"/>
      <point x="430" y="696"/>
      <point x="369" y="696" type="curve" smooth="yes"/>
      <point x="341" y="696"/>
      <point x="316" y="695"/>
      <point x="293" y="694" type="curve"/>
    </contour>
    <contour>
      <point x="358" y="0" type="move" name="bottom"/>
    </contour>
    <contour>
      <point x="366" y="688" type="move" name="top"/>
    </contour>
  </outline>
</glyph>
<glyph name=".notdef" format="1">
  <advance width="500"/>
  <note>
    .notdef
  </note>
  <outline>
    <contour>
      <point x="0" y="0" type="line"/>
      <point x="500" y="0" type="line"/>
      <point x="500" y="700" type="line"/>
      <point x="0" y="700" type="line"/>
    </contour>
    <contour>
      <point x="225" y="99" type="line"/>
      <point x="285" y="99" type="line"/>
      <point x="285" y="169" type="line"/>
      <point x="225" y="169" type="line"/>
    </contour>
    <contour>
      <point x="50" y="50" type="line"/>
      <point x="50" y="650" type="line"/>
      <point x="450" y="650" type="line"/>
      <point x="450" y="50" type="line"/>
    </contour>
    <contour>
      <point x="229" y="215" type="line"/>
      <point x="282" y="215" type="line"/>
      <point x="282" y="268" type="line" smooth="yes"/>
      <point x="282" y="301"/>
      <point x="303" y="319"/>
      <point x="326" y="338" type="curve" smooth="yes"/>
      <point x="341" y="351"/>
      <point x="358" y="367"/>
      <point x="371" y="388" type="curve" smooth="yes"/>
      <point x="383" y="408"/>
      <point x="393" y="434"/>
      <point x="393" y="467" type="curve"/>
      <point x="391" y="493" type="line"/>
      <point x="389" y="508"/>
      <point x="383" y="523"/>
      <point x="374" y="539" type="curve" smooth="yes"/>
      <point x="355" y="571"/>
      <point x="319" y="602"/>
      <point x="250" y="602" type="curve" smooth="yes"/>
      <point x="179" y="602"/>
      <point x="142" y="572"/>
      <point x="122" y="538" type="curve" smooth="yes"/>
      <point x="102" y="504"/>
      <point x="99" y="467"/>
      <point x="99" y="455" type="curve" smooth="yes"/>
      <point x="99" y="450"/>
      <point x="99" y="446"/>
      <point x="100" y="443" type="curve"/>
      <point x="100" y="436"/>
      <point x="102" y="429"/>
      <point x="103" y="424" type="curve"/>
      <point x="152" y="424" type="line"/>
      <point x="152" y="452" type="line" smooth="yes"/>
      <point x="152" y="464"/>
      <point x="154" y="489"/>
      <point x="167" y="511" type="curve" smooth="yes"/>
      <point x="180" y="533"/>
      <point x="205" y="552"/>
      <point x="250" y="552" type="curve" smooth="yes"/>
      <point x="289" y="552"/>
      <point x="311" y="538"/>
      <point x="324" y="519" type="curve"/>
      <point x="336" y="500"/>
      <point x="339" y="478"/>
      <point x="339" y="465" type="curve" smooth="yes"/>
      <point x="339" y="414"/>
      <point x="311" y="390"/>
      <point x="283" y="367" type="curve" smooth="yes"/>
      <point x="255" y="344"/>
      <point x="229" y="321"/>
      <point x="229" y="278" type="curve" smooth="yes"/>
    </contour>
  </outline>
</glyph>
<glyph name="acute.loclPLK.case" format="1">
  <advance width="245"/>
  <outline>
    <contour>
      <point x="20" y="751" type="line"/>
      <point x="149" y="751" type="line"/>
      <point x="225" y="925" type="line"/>
      <point x="225" y="930" type="line"/>
      <point x="53" y="930" type="line"/>
      <point x="20" y="756" type="line"/>
    </contour>
    <contour>
      <point x="70" y="688" type="move" name="_top"/>
    </contour>
  </outline>
</glyph>
<glyph name="apostrophe" format="1">
  <advance width="330"/>
  <outline>
    <contour>
      <point x="73" y="538" type="line"/>
      <point x="156" y="538"/>
      <point x="201" y="548"/>
      <point x="227" y="576" type="curve" smooth="yes"/>
      <point x="252" y="603"/>
      <point x="257" y="648"/>
      <point x="257" y="717" type="curve" smooth="yes"/>
      <point x="257" y="828" type="line"/>
      <point x="73" y="828" type="line"/>
      <point x="73" y="680" type="line"/>
      <point x="139" y="680" type="line"/>
      <point x="139" y="667" type="line" smooth="yes"/>
      <point x="139" y="642"/>
      <point x="137" y="628"/>
      <point x="128" y="618" type="curve" smooth="yes"/>
      <point x="119" y="608"/>
      <point x="102" y="604"/>
      <point x="73" y="604" type="curve"/>
    </contour>
    <contour>
      <point x="283" y="510" type="move" name="_top"/>
    </contour>
  </outline>
</glyph>
<glyph name="baraccentlong" format="1">
  <advance width="750"/>
  <outline>
    <contour>
      <point x="20" y="269" type="line"/>
      <point x="730" y="269" type="line"/>
      <point x="730" y="428" type="line"/>
      <point x="20" y="428" type="line"/>
    </contour>
    <contour>
      <point x="375" y="348" type="move" name="_center"/>
    </contour>
  </outline>
</glyph>
<glyph name="baraccentmedium" format="1">
  <advance width="620"/>
  <outline>
    <contour>
      <point x="20" y="269" type="line"/>
      <point x="600" y="269" type="line"/>
      <point x="600" y="428" type="line"/>
      <point x="20" y="428" type="line"/>
    </contour>
    <contour>
      <point x="311" y="348" type="move" name="_center"/>
    </contour>
  </outline>
</glyph>
<glyph name="brevegrave.case" format="1">
  <advance width="337"/>
  <outline>
    <component base="brevegrave" yOffset="159"/>
    <contour>
      <point x="168" y="688" type="move" name="_top"/>
    </contour>
  </outline>
</glyph>
<glyph name="breveinverted.case" format="1">
  <advance width="337"/>
  <outline>
    <contour>
      <point x="10" y="751" type="curve"/>
      <point x="113" y="751" type="line"/>
      <point x="113" y="766"/>
      <point x="113" y="780"/>
      <point x="120" y="789" type="curve"/>
      <point x="128" y="798"/>
      <point x="141" y="804"/>
      <point x="169" y="804" type="curve" smooth="yes"/>
      <point x="197" y="804"/>
      <point x="210" y="798"/>
      <point x="217" y="789" type="curve" smooth="yes"/>
      <point x="224" y="780"/>
      <point x="224" y="766"/>
      <point x="224" y="751" type="curve"/>
      <point x="327" y="751" type="line"/>
      <point x="327" y="795"/>
      <point x="322" y="832"/>
      <point x="299" y="859" type="curve" smooth="yes"/>
      <point x="276" y="887"/>
      <point x="237" y="902"/>
      <point x="169" y="902" type="curve" smooth="yes"/>
      <point x="101" y="902"/>
      <point x="62" y="887"/>
      <point x="38" y="859" type="curve" smooth="yes"/>
      <point x="15" y="832"/>
      <point x="10" y="795"/>
    </contour>
    <contour>
      <point x="168" y="688" type="move" name="_top"/>
    </contour>
  </outline>
</glyph>
<glyph name="caron.case" format="1">
  <advance width="337"/>
  <outline>
    <contour>
      <point x="81" y="750" type="line"/>
      <point x="256" y="750" type="line"/>
      <point x="347" y="889" type="line"/>
      <point x="347" y="897" type="line"/>
      <point x="224" y="897" type="line"/>
      <point x="168" y="822" type="line"/>
      <point x="113" y="897" type="line"/>
      <point x="-10" y="897" type="line"/>
      <point x="-10" y="889" type="line"/>
    </contour>
    <contour>
      <point x="168" y="688" type="move" name="_top"/>
    </contour>
  </outline>
</glyph>
<glyph name="circumflex.case" format="1">
  <advance width="337"/>
  <outline>
    <contour>
      <point x="-10" y="750" type="line"/>
      <point x="113" y="750" type="line"/>
      <point x="169" y="825" type="line"/>
      <point x="224" y="750" type="line"/>
      <point x="347" y="750" type="line"/>
      <point x="347" y="758" type="line"/>
      <point x="256" y="897" type="line"/>
      <point x="81" y="897" type="line"/>
      <point x="-10" y="758" type="line"/>
    </contour>
    <contour>
      <point x="168" y="688" type="move" name="_top"/>
    </contour>
  </outline>
</glyph>
<glyph name="circumflexgrave.case" format="1">
  <advance width="337"/>
  <outline>
    <contour>
      <point x="-9" y="750" type="line"/>
      <point x="119" y="750" type="line"/>
      <point x="170" y="805" type="line"/>
      <point x="220" y="750" type="line"/>
      <point x="348" y="750" type="line"/>
      <point x="348" y="758" type="line"/>
      <point x="257" y="877" type="line"/>
      <point x="82" y="877" type="line"/>
      <point x="-9" y="758" type="line"/>
    </contour>
    <contour>
      <point x="116" y="911" type="line"/>
      <point x="242" y="911" type="line"/>
      <point x="242" y="916" type="line"/>
      <point x="167" y="1038" type="line"/>
      <point x="-11" y="1038" type="line"/>
      <point x="-11" y="1033" type="line"/>
    </contour>
    <contour>
      <point x="169" y="688" type="move" name="_top"/>
    </contour>
  </outline>
</glyph>
<glyph name="circumflexhook.case" format="1">
  <advance width="337"/>
  <outline>
    <contour>
      <point x="-10" y="750" type="line"/>
      <point x="118" y="750" type="line"/>
      <point x="169" y="805" type="line"/>
      <point x="219" y="750" type="line"/>
      <point x="347" y="750" type="line"/>
      <point x="347" y="758" type="line"/>
      <point x="256" y="877" type="line"/>
      <point x="81" y="877" type="line"/>
      <point x="-10" y="758" type="line"/>
    </contour>
    <contour>
      <point x="129" y="911" type="line"/>
      <point x="204" y="911" type="line"/>
      <point x="204" y="938" type="line" smooth="yes"/>
      <point x="204" y="948"/>
      <point x="212" y="954"/>
      <point x="218" y="959" type="curve" smooth="yes"/>
      <point x="228" y="968"/>
      <point x="238" y="973"/>
      <point x="243" y="982" type="curve" smooth="yes"/>
      <point x="250" y="994"/>
      <point x="253" y="1008"/>
      <point x="253" y="1037" type="curve" smooth="yes"/>
      <point x="253" y="1078"/>
      <point x="237" y="1095"/>
      <point x="208" y="1104" type="curve" smooth="yes"/>
      <point x="183" y="1112"/>
      <point x="149" y="1112"/>
      <point x="118" y="1111" type="curve"/>
      <point x="118" y="1039" type="line"/>
      <point x="164" y="1039"/>
      <point x="175" y="1037"/>
      <point x="175" y="1017" type="curve" smooth="yes"/>
      <point x="175" y="1001"/>
      <point x="171" y="998"/>
      <point x="160" y="989" type="curve" smooth="yes"/>
      <point x="138" y="971"/>
      <point x="129" y="967"/>
      <point x="129" y="945" type="curve" smooth="yes"/>
    </contour>
    <contour>
      <point x="168" y="688" type="move" name="_top"/>
    </contour>
  </outline>
</glyph>
<glyph name="commaturnedabovecomb.case" format="1">
  <advance width="216"/>
  <outline>
    <component base="commaturnedabove"/>
    <contour>
      <point x="108" y="688" type="move" name="_top"/>
    </contour>
    <contour>
      <point x="108" y="869" type="move" name="top"/>
    </contour>
  </outline>
</glyph>
<glyph name="dieresis.case" format="1">
  <advance width="401"/>
  <outline>
    <contour>
      <point x="228" y="751" type="line"/>
      <point x="381" y="751" type="line"/>
      <point x="381" y="870" type="line"/>
      <point x="228" y="870" type="line"/>
    </contour>
    <contour>
      <point x="20" y="751" type="line"/>
      <point x="173" y="751" type="line"/>
      <point x="173" y="870" type="line"/>
      <point x="20" y="870" type="line"/>
    </contour>
    <contour>
      <point x="201" y="688" type="move" name="_top"/>
    </contour>
  </outline>
</glyph>
<glyph name="dieresisacute.case" format="1">
  <advance width="401"/>
  <outline>
    <contour>
      <point x="129" y="925" type="line"/>
      <point x="255" y="925" type="line"/>
      <point x="382" y="1047" type="line"/>
      <point x="382" y="1052" type="line"/>
      <point x="204" y="1052" type="line"/>
      <point x="129" y="930" type="line"/>
    </contour>
    <contour>
      <point x="20" y="751" type="line"/>
      <point x="173" y="751" type="line"/>
      <point x="173" y="870" type="line"/>
      <point x="20" y="870" type="line"/>
    </contour>
    <contour>
      <point x="228" y="751" type="line"/>
      <point x="381" y="751" type="line"/>
      <point x="381" y="870" type="line"/>
      <point x="228" y="870" type="line"/>
    </contour>
    <contour>
      <point x="201" y="688" type="move" name="_top"/>
    </contour>
  </outline>
</glyph>
<glyph name="dieresisacute" format="1">
  <advance width="401"/>
  <outline>
    <contour>
      <point x="129" y="785" type="line"/>
      <point x="255" y="785" type="line"/>
      <point x="382" y="907" type="line"/>
      <point x="382" y="912" type="line"/>
      <point x="204" y="912" type="line"/>
      <point x="129" y="790" type="line"/>
    </contour>
    <contour>
      <point x="20" y="611" type="line"/>
      <point x="173" y="611" type="line"/>
      <point x="173" y="730" type="line"/>
      <point x="20" y="730" type="line"/>
    </contour>
    <contour>
      <point x="228" y="611" type="line"/>
      <point x="381" y="611" type="line"/>
      <point x="381" y="730" type="line"/>
      <point x="228" y="730" type="line"/>
    </contour>
    <contour>
      <point x="201" y="510" type="move" name="_top"/>
    </contour>
  </outline>
</glyph>
<glyph name="dieresisbelow" format="1">
  <advance width="401"/>
  <outline>
    <contour>
      <point x="228" y="-196" type="line"/>
      <point x="381" y="-196" type="line"/>
      <point x="381" y="-77" type="line"/>
      <point x="228" y="-77" type="line"/>
    </contour>
    <contour>
      <point x="20" y="-196" type="line"/>
      <point x="173" y="-196" type="line"/>
      <point x="173" y="-77" type="line"/>
      <point x="20" y="-77" type="line"/>
    </contour>
    <contour>
      <point x="201" y="0" type="move" name="bottom"/>
    </contour>
  </outline>
</glyph>
<glyph name="dieresisbelowcomb.case" format="1">
  <advance width="401"/>
  <outline>
    <component base="dieresisbelow"/>
    <contour>
      <point x="201" y="0" type="move" name="_bottom"/>
    </contour>
    <contour>
      <point x="201" y="-196" type="move" name="bottom"/>
    </contour>
  </outline>
</glyph>
<glyph name="dotaccent.case" format="1">
  <advance width="193"/>
  <outline>
    <contour>
      <point x="20" y="751" type="line"/>
      <point x="173" y="751" type="line"/>
      <point x="173" y="870" type="line"/>
      <point x="20" y="870" type="line"/>
    </contour>
    <contour>
      <point x="97" y="688" type="move" name="_top"/>
    </contour>
  </outline>
</glyph>
<glyph name="dotaccentmacron.case" format="1">
  <advance width="401"/>
  <outline>
    <contour>
      <point x="20" y="915" type="line"/>
      <point x="381" y="915" type="line"/>
      <point x="381" y="1034" type="line"/>
      <point x="20" y="1034" type="line"/>
    </contour>
    <contour>
      <point x="125" y="751" type="line"/>
      <point x="278" y="751" type="line"/>
      <point x="278" y="870" type="line"/>
      <point x="125" y="870" type="line"/>
    </contour>
    <contour>
      <point x="201" y="688" type="move" name="_top"/>
    </contour>
  </outline>
</glyph>
<glyph name="dotaccentmacron" format="1">
  <advance width="401"/>
  <outline>
    <contour>
      <point x="20" y="775" type="line"/>
      <point x="381" y="775" type="line"/>
      <point x="381" y="894" type="line"/>
      <point x="20" y="894" type="line"/>
    </contour>
    <contour>
      <point x="125" y="611" type="line"/>
      <point x="278" y="611" type="line"/>
      <point x="278" y="730" type="line"/>
      <point x="125" y="730" type="line"/>
    </contour>
    <contour>
      <point x="201" y="510" type="move" name="_top"/>
    </contour>
  </outline>
</glyph>
<glyph name="dotbelow" format="1">
  <advance width="216"/>
  <outline>
    <contour>
      <point x="30" y="-198" type="line"/>
      <point x="183" y="-198" type="line"/>
      <point x="183" y="-79" type="line"/>
      <point x="30" y="-79" type="line"/>
    </contour>
    <contour>
      <point x="107" y="0" type="move" name="_bottom"/>
    </contour>
  </outline>
</glyph>
<glyph name="eight.osf" format="1">
  <advance width="636"/>
  <outline>
    <contour>
      <point x="321" y="-8" type="curve" smooth="yes"/>
      <point x="328" y="-8"/>
      <point x="336" y="-8"/>
      <point x="343" y="-7" type="curve"/>
      <point x="343" y="139" type="line"/>
      <point x="332" y="137"/>
      <point x="317" y="137"/>
      <point x="295" y="137" type="curve" smooth="yes"/>
      <point x="258" y="137"/>
      <point x="251" y="168"/>
      <point x="251" y="197" type="curve" smooth="yes"/>
      <point x="251" y="249"/>
      <point x="266" y="259"/>
      <point x="318" y="259" type="curve" smooth="yes"/>
      <point x="372" y="259"/>
      <point x="385" y="247"/>
      <point x="385" y="197" type="curve" smooth="yes"/>
      <point x="385" y="-4" type="line"/>
      <point x="513" y="9"/>
      <point x="589" y="55"/>
      <point x="589" y="174" type="curve" smooth="yes"/>
      <point x="589" y="255"/>
      <point x="554" y="309"/>
      <point x="464" y="329" type="curve"/>
      <point x="464" y="333" type="line"/>
      <point x="544" y="352"/>
      <point x="583" y="398"/>
      <point x="583" y="485" type="curve" smooth="yes"/>
      <point x="583" y="611"/>
      <point x="478" y="656"/>
      <point x="338" y="656" type="curve" smooth="yes"/>
      <point x="328" y="656"/>
      <point x="308" y="656"/>
      <point x="299" y="655" type="curve"/>
      <point x="299" y="509" type="line"/>
      <point x="310" y="511"/>
      <point x="319" y="511"/>
      <point x="328" y="511" type="curve" smooth="yes"/>
      <point x="344" y="511"/>
      <point x="354" y="510"/>
      <point x="366" y="500" type="curve"/>
      <point x="377" y="490"/>
      <point x="379" y="482"/>
      <point x="379" y="453" type="curve" smooth="yes"/>
      <point x="379" y="403"/>
      <point x="367" y="396"/>
      <point x="318" y="396" type="curve" smooth="yes"/>
      <point x="268" y="396"/>
      <point x="257" y="406"/>
      <point x="257" y="453" type="curve" smooth="yes"/>
      <point x="257" y="652" type="line"/>
      <point x="126" y="640"/>
      <point x="53" y="594"/>
      <point x="53" y="485" type="curve" smooth="yes"/>
      <point x="53" y="398"/>
      <point x="92" y="352"/>
      <point x="172" y="333" type="curve"/>
      <point x="172" y="329" type="line"/>
      <point x="79" y="308"/>
      <point x="47" y="253"/>
      <point x="47" y="174" type="curve" smooth="yes"/>
      <point x="47" y="28"/>
      <point x="163" y="-8"/>
    </contour>
  </outline>
</glyph>
<glyph name="hook" format="1">
  <advance width="211"/>
  <outline>
    <contour>
      <point x="34" y="570" type="line"/>
      <point x="129" y="570" type="line"/>
      <point x="129" y="604" type="line" smooth="yes"/>
      <point x="129" y="617"/>
      <point x="139" y="624"/>
      <point x="147" y="631" type="curve" smooth="yes"/>
      <point x="160" y="642"/>
      <point x="171" y="650"/>
      <point x="178" y="660" type="curve" smooth="yes"/>
      <point x="188" y="675"/>
      <point x="191" y="693"/>
      <point x="191" y="735" type="curve" smooth="yes"/>
      <point x="191" y="787"/>
      <point x="171" y="815"/>
      <point x="134" y="827" type="curve" smooth="yes"/>
      <point x="103" y="837"/>
      <point x="60" y="837"/>
      <point x="20" y="836" type="curve"/>
      <point x="20" y="738" type="line"/>
      <point x="78" y="738"/>
      <point x="93" y="736"/>
      <point x="93" y="704" type="curve" smooth="yes"/>
      <point x="93" y="684"/>
      <point x="87" y="679"/>
      <point x="73" y="668" type="curve" smooth="yes"/>
      <point x="45" y="646"/>
      <point x="34" y="640"/>
      <point x="34" y="613" type="curve" smooth="yes"/>
    </contour>
    <contour>
      <point x="64" y="510" type="move" name="_top"/>
    </contour>
  </outline>
</glyph>
<glyph name="horn" format="1">
  <advance width="337"/>
  <outline>
    <contour>
      <point x="71" y="412" type="line"/>
      <point x="138" y="412" type="line" smooth="yes"/>
      <point x="206" y="412"/>
      <point x="245" y="427"/>
      <point x="269" y="455" type="curve" smooth="yes"/>
      <point x="292" y="482"/>
      <point x="297" y="519"/>
      <point x="297" y="563" type="curve"/>
      <point x="194" y="563" type="line"/>
      <point x="194" y="548"/>
      <point x="194" y="534"/>
      <point x="187" y="525" type="curve"/>
      <point x="179" y="516"/>
      <point x="166" y="510"/>
      <point x="138" y="510" type="curve" smooth="yes"/>
      <point x="71" y="510" type="line"/>
    </contour>
    <contour>
      <point x="22" y="510" type="move" name="_topright"/>
    </contour>
  </outline>
</glyph>
<glyph name="horncomb.case" format="1">
  <advance width="0"/>
  <outline>
    <contour>
      <point x="-266" y="590" type="line"/>
      <point x="-199" y="590" type="line" smooth="yes"/>
      <point x="-131" y="590"/>
      <point x="-92" y="605"/>
      <point x="-68" y="633" type="curve" smooth="yes"/>
      <point x="-45" y="660"/>
      <point x="-40" y="697"/>
      <point x="-40" y="741" type="curve"/>
      <point x="-143" y="741" type="line"/>
      <point x="-143" y="726"/>
      <point x="-143" y="712"/>
      <point x="-150" y="703" type="curve"/>
      <point x="-158" y="694"/>
      <point x="-171" y="688"/>
      <point x="-199" y="688" type="curve" smooth="yes"/>
      <point x="-266" y="688" type="line"/>
    </contour>
    <contour>
      <point x="-315" y="688" type="move" name="_topright"/>
    </contour>
  </outline>
</glyph>
<glyph name="macron.case" format="1">
  <advance width="315"/>
  <outline>
    <contour>
      <point x="15" y="751" type="line"/>
      <point x="300" y="751" type="line"/>
      <point x="300" y="900" type="line"/>
      <point x="15" y="900" type="line"/>
    </contour>
    <contour>
      <point x="157" y="688" type="move" name="_top"/>
    </contour>
  </outline>
</glyph>
<glyph name="nine.osf" format="1">
  <advance width="622"/>
  <outline>
    <contour>
      <point x="371" y="-139" type="line"/>
      <point x="454" y="-130"/>
      <point x="505" y="-106"/>
      <point x="535" y="-52" type="curve" smooth="yes"/>
      <point x="565" y="2"/>
      <point x="575" y="84"/>
      <point x="575" y="208" type="curve" smooth="yes"/>
      <point x="575" y="296"/>
      <point x="567" y="354"/>
      <point x="551" y="406" type="curve" smooth="yes"/>
      <point x="535" y="458"/>
      <point x="500" y="488"/>
      <point x="455" y="504" type="curve" smooth="yes"/>
      <point x="396" y="525"/>
      <point x="315" y="527"/>
      <point x="283" y="522" type="curve"/>
      <point x="283" y="368" type="line"/>
      <point x="289" y="369"/>
      <point x="296" y="370"/>
      <point x="303" y="370" type="curve" smooth="yes"/>
      <point x="308" y="370" type="line" smooth="yes"/>
      <point x="319" y="370"/>
      <point x="339" y="370"/>
      <point x="352" y="360" type="curve" smooth="yes"/>
      <point x="365" y="350"/>
      <point x="371" y="332"/>
      <point x="371" y="293" type="curve" smooth="yes"/>
    </contour>
    <contour>
      <point x="293" y="-144" type="curve" smooth="yes"/>
      <point x="309" y="-144"/>
      <point x="314" y="-144"/>
      <point x="329" y="-143" type="curve"/>
      <point x="329" y="22" type="line"/>
      <point x="313" y="11"/>
      <point x="289" y="9"/>
      <point x="275" y="9" type="curve" smooth="yes"/>
      <point x="226" y="9"/>
      <point x="129" y="16"/>
      <point x="85" y="23" type="curve"/>
      <point x="85" y="-120" type="line"/>
      <point x="145" y="-133"/>
      <point x="238" y="-144"/>
    </contour>
    <contour>
      <point x="243" y="112" type="curve" smooth="yes"/>
      <point x="277" y="112"/>
      <point x="309" y="122"/>
      <point x="329" y="133" type="curve"/>
      <point x="329" y="268" type="line"/>
      <point x="318" y="266"/>
      <point x="305" y="265"/>
      <point x="308" y="265" type="curve" smooth="yes"/>
      <point x="324" y="265"/>
      <point x="271" y="266"/>
      <point x="258" y="276" type="curve" smooth="yes"/>
      <point x="245" y="286"/>
      <point x="241" y="305"/>
      <point x="241" y="337" type="curve" smooth="yes"/>
      <point x="241" y="520" type="line"/>
      <point x="164" y="513"/>
      <point x="113" y="493"/>
      <point x="85" y="455" type="curve" smooth="yes"/>
      <point x="57" y="417"/>
      <point x="47" y="378"/>
      <point x="47" y="298" type="curve" smooth="yes"/>
      <point x="47" y="206"/>
      <point x="66" y="173"/>
      <point x="103" y="145" type="curve" smooth="yes"/>
      <point x="140" y="117"/>
      <point x="194" y="112"/>
    </contour>
  </outline>
</glyph>
<glyph name="nine.salt" format="1">
  <advance width="645"/>
  <note>
    nine.salt
  </note>
  <outline>
    <contour>
      <point x="104" y="0" type="line"/>
      <point x="343" y="0" type="line"/>
      <point x="393" y="41"/>
      <point x="438" y="86"/>
      <point x="478" y="134" type="curve" smooth="yes"/>
      <point x="511" y="175"/>
      <point x="546" y="223"/>
      <point x="571" y="276" type="curve" smooth="yes"/>
      <point x="596" y="329"/>
      <point x="613" y="386"/>
      <point x="613" y="445" type="curve" smooth="yes"/>
      <point x="613" y="518"/>
      <point x="603" y="582"/>
      <point x="562" y="626" type="curve" smooth="yes"/>
      <point x="521" y="670"/>
      <point x="448" y="696"/>
      <point x="323" y="696" type="curve" smooth="yes"/>
      <point x="304" y="696"/>
      <point x="285" y="695"/>
      <point x="268" y="694" type="curve"/>
      <point x="268" y="541" type="line"/>
      <point x="275" y="542"/>
      <point x="283" y="543"/>
      <point x="292" y="543" type="curve" smooth="yes"/>
      <point x="321" y="543" type="line" smooth="yes"/>
      <point x="354" y="543"/>
      <point x="377" y="544"/>
      <point x="391" y="534" type="curve" smooth="yes"/>
      <point x="405" y="524"/>
      <point x="410" y="505"/>
      <point x="410" y="466" type="curve"/>
      <point x="405" y="377"/>
      <point x="375" y="311"/>
      <point x="346" y="263" type="curve" smooth="yes"/>
      <point x="307" y="199"/>
      <point x="256" y="141"/>
      <point x="210" y="97" type="curve" smooth="yes"/>
      <point x="164" y="52"/>
      <point x="123" y="20"/>
      <point x="104" y="7" type="curve"/>
    </contour>
    <contour>
      <point x="234" y="250" type="curve" smooth="yes"/>
      <point x="251" y="250"/>
      <point x="270" y="251"/>
      <point x="291" y="254" type="curve"/>
      <point x="315" y="289"/>
      <point x="346" y="343"/>
      <point x="361" y="403" type="curve"/>
      <point x="350" y="402"/>
      <point x="337" y="401"/>
      <point x="321" y="401" type="curve" smooth="yes"/>
      <point x="282" y="401"/>
      <point x="259" y="403"/>
      <point x="245" y="413" type="curve" smooth="yes"/>
      <point x="231" y="423"/>
      <point x="226" y="441"/>
      <point x="226" y="473" type="curve" smooth="yes"/>
      <point x="226" y="690" type="line"/>
      <point x="143" y="679"/>
      <point x="95" y="654"/>
      <point x="67" y="616" type="curve" smooth="yes"/>
      <point x="39" y="578"/>
      <point x="32" y="528"/>
      <point x="32" y="472" type="curve" smooth="yes"/>
      <point x="32" y="413"/>
      <point x="39" y="358"/>
      <point x="67" y="318" type="curve" smooth="yes"/>
      <point x="95" y="277"/>
      <point x="146" y="250"/>
    </contour>
  </outline>
</glyph>
<glyph name="periodcentered.loclCAT" format="1">
  <advance width="600"/>
  <outline>
    <contour>
      <point x="204" y="238" type="line"/>
      <point x="406" y="238" type="line"/>
      <point x="406" y="401" type="line"/>
      <point x="204" y="401" type="line"/>
    </contour>
    <contour>
      <point x="147" y="329" type="move" name="center"/>
    </contour>
  </outline>
</glyph>
<glyph name="ringacute.case" format="1">
  <advance width="311"/>
  <outline>
    <contour>
      <point x="210" y="753" type="line"/>
      <point x="257" y="758"/>
      <point x="281" y="770"/>
      <point x="294" y="790" type="curve" smooth="yes"/>
      <point x="307" y="810"/>
      <point x="308" y="837"/>
      <point x="308" y="872" type="curve" smooth="yes"/>
      <point x="308" y="912"/>
      <point x="307" y="943"/>
      <point x="286" y="964" type="curve" smooth="yes"/>
      <point x="266" y="984"/>
      <point x="228" y="994"/>
      <point x="155" y="994" type="curve" smooth="yes"/>
      <point x="143" y="994" type="line"/>
      <point x="143" y="921" type="line"/>
      <point x="155" y="921" type="line" smooth="yes"/>
      <point x="169" y="921"/>
      <point x="180" y="920"/>
      <point x="187" y="919" type="curve"/>
      <point x="194" y="917"/>
      <point x="200" y="914"/>
      <point x="203" y="911" type="curve"/>
      <point x="210" y="903"/>
      <point x="210" y="891"/>
      <point x="210" y="872" type="curve" smooth="yes"/>
    </contour>
    <contour>
      <point x="155" y="751" type="curve" smooth="yes"/>
      <point x="168" y="751" type="line"/>
      <point x="168" y="824" type="line"/>
      <point x="155" y="824" type="line" smooth="yes"/>
      <point x="142" y="824"/>
      <point x="131" y="825"/>
      <point x="124" y="826" type="curve" smooth="yes"/>
      <point x="117" y="827"/>
      <point x="111" y="830"/>
      <point x="108" y="834" type="curve"/>
      <point x="101" y="841"/>
      <point x="101" y="853"/>
      <point x="101" y="872" type="curve" smooth="yes"/>
      <point x="101" y="991" type="line"/>
      <point x="54" y="986"/>
      <point x="30" y="974"/>
      <point x="17" y="954" type="curve" smooth="yes"/>
      <point x="4" y="934"/>
      <point x="3" y="907"/>
      <point x="3" y="872" type="curve" smooth="yes"/>
      <point x="3" y="832"/>
      <point x="5" y="801"/>
      <point x="25" y="781" type="curve" smooth="yes"/>
      <point x="45" y="761"/>
      <point x="83" y="751"/>
    </contour>
    <contour>
      <point x="82" y="1036" type="line"/>
      <point x="208" y="1036" type="line"/>
      <point x="335" y="1158" type="line"/>
      <point x="335" y="1163" type="line"/>
      <point x="157" y="1163" type="line"/>
      <point x="82" y="1041" type="line"/>
    </contour>
    <contour>
      <point x="156" y="688" type="move" name="_top"/>
    </contour>
  </outline>
</glyph>
<glyph name="ringacute" format="1">
  <advance width="311"/>
  <outline>
    <contour>
      <point x="210" y="594" type="line"/>
      <point x="257" y="599"/>
      <point x="281" y="611"/>
      <point x="294" y="631" type="curve" smooth="yes"/>
      <point x="307" y="651"/>
      <point x="308" y="678"/>
      <point x="308" y="713" type="curve" smooth="yes"/>
      <point x="308" y="753"/>
      <point x="307" y="784"/>
      <point x="286" y="805" type="curve" smooth="yes"/>
      <point x="266" y="825"/>
      <point x="228" y="835"/>
      <point x="155" y="835" type="curve" smooth="yes"/>
      <point x="143" y="835" type="line"/>
      <point x="143" y="762" type="line"/>
      <point x="155" y="762" type="line" smooth="yes"/>
      <point x="169" y="762"/>
      <point x="180" y="761"/>
      <point x="187" y="760" type="curve"/>
      <point x="194" y="758"/>
      <point x="200" y="755"/>
      <point x="203" y="752" type="curve"/>
      <point x="210" y="744"/>
      <point x="210" y="732"/>
      <point x="210" y="713" type="curve" smooth="yes"/>
    </contour>
    <contour>
      <point x="155" y="592" type="curve" smooth="yes"/>
      <point x="168" y="592" type="line"/>
      <point x="168" y="665" type="line"/>
      <point x="155" y="665" type="line" smooth="yes"/>
      <point x="142" y="665"/>
      <point x="131" y="666"/>
      <point x="124" y="667" type="curve" smooth="yes"/>
      <point x="117" y="668"/>
      <point x="111" y="671"/>
      <point x="108" y="675" type="curve"/>
      <point x="101" y="682"/>
      <point x="101" y="694"/>
      <point x="101" y="713" type="curve" smooth="yes"/>
      <point x="101" y="832" type="line"/>
      <point x="54" y="827"/>
      <point x="30" y="815"/>
      <point x="17" y="795" type="curve" smooth="yes"/>
      <point x="4" y="775"/>
      <point x="3" y="748"/>
      <point x="3" y="713" type="curve" smooth="yes"/>
      <point x="3" y="673"/>
      <point x="5" y="642"/>
      <point x="25" y="622" type="curve" smooth="yes"/>
      <point x="45" y="602"/>
      <point x="83" y="592"/>
    </contour>
    <contour>
      <point x="82" y="877" type="line"/>
      <point x="208" y="877" type="line"/>
      <point x="335" y="999" type="line"/>
      <point x="335" y="1004" type="line"/>
      <point x="157" y="1004" type="line"/>
      <point x="82" y="882" type="line"/>
    </contour>
    <contour>
      <point x="156" y="510" type="move" name="_top"/>
    </contour>
  </outline>
</glyph>
<glyph name="six.salt" format="1">
  <advance width="645"/>
  <note>
    six.salt
  </note>
  <outline>
    <contour>
      <point x="322" y="-8" type="curve" smooth="yes"/>
      <point x="341" y="-8"/>
      <point x="360" y="-7"/>
      <point x="377" y="-6" type="curve"/>
      <point x="377" y="147" type="line"/>
      <point x="370" y="146"/>
      <point x="362" y="145"/>
      <point x="354" y="145" type="curve" smooth="yes"/>
      <point x="324" y="145" type="line" smooth="yes"/>
      <point x="291" y="145"/>
      <point x="269" y="145"/>
      <point x="255" y="155" type="curve" smooth="yes"/>
      <point x="241" y="165"/>
      <point x="235" y="183"/>
      <point x="235" y="222" type="curve"/>
      <point x="240" y="311"/>
      <point x="270" y="377"/>
      <point x="299" y="425" type="curve" smooth="yes"/>
      <point x="338" y="489"/>
      <point x="390" y="547"/>
      <point x="436" y="592" type="curve" smooth="yes"/>
      <point x="482" y="636"/>
      <point x="522" y="668"/>
      <point x="541" y="681" type="curve"/>
      <point x="541" y="688" type="line"/>
      <point x="302" y="688" type="line"/>
      <point x="251" y="647"/>
      <point x="206" y="602"/>
      <point x="167" y="554" type="curve" smooth="yes"/>
      <point x="132" y="513"/>
      <point x="99" y="464"/>
      <point x="74" y="412" type="curve" smooth="yes"/>
      <point x="49" y="359"/>
      <point x="32" y="302"/>
      <point x="32" y="243" type="curve" smooth="yes"/>
      <point x="32" y="168"/>
      <point x="42" y="106"/>
      <point x="83" y="62" type="curve" smooth="yes"/>
      <point x="124" y="18"/>
      <point x="197" y="-8"/>
    </contour>
    <contour>
      <point x="419" y="-2" type="line"/>
      <point x="500" y="9"/>
      <point x="549" y="35"/>
      <point x="577" y="73" type="curve" smooth="yes"/>
      <point x="605" y="111"/>
      <point x="613" y="160"/>
      <point x="613" y="216" type="curve" smooth="yes"/>
      <point x="613" y="273"/>
      <point x="606" y="330"/>
      <point x="578" y="371" type="curve" smooth="yes"/>
      <point x="550" y="411"/>
      <point x="499" y="438"/>
      <point x="411" y="438" type="curve" smooth="yes"/>
      <point x="394" y="438"/>
      <point x="375" y="437"/>
      <point x="354" y="434" type="curve"/>
      <point x="330" y="399"/>
      <point x="299" y="345"/>
      <point x="284" y="285" type="curve"/>
      <point x="295" y="286"/>
      <point x="308" y="287"/>
      <point x="324" y="287" type="curve" smooth="yes"/>
      <point x="363" y="287"/>
      <point x="387" y="286"/>
      <point x="401" y="276" type="curve" smooth="yes"/>
      <point x="415" y="266"/>
      <point x="419" y="247"/>
      <point x="419" y="215" type="curve" smooth="yes"/>
    </contour>
  </outline>
</glyph>
<glyph name="slashlongcomb.case" format="1">
  <advance width="698"/>
  <outline>
    <contour>
      <point x="400" y="578" type="line"/>
      <point x="560" y="578" type="line"/>
      <point x="651" y="743" type="line"/>
      <point x="490" y="743" type="line"/>
    </contour>
    <contour>
      <point x="47" y="-55" type="line"/>
      <point x="207" y="-55" type="line"/>
      <point x="293" y="93" type="line"/>
      <point x="130" y="93" type="line"/>
    </contour>
    <contour>
      <point x="344" y="337" type="move" name="_center"/>
    </contour>
  </outline>
</glyph>
<glyph name="three.osf" format="1">
  <advance width="570"/>
  <outline>
    <contour>
      <point x="319" y="-136" type="line"/>
      <point x="400" y="-128"/>
      <point x="453" y="-107"/>
      <point x="483" y="-75" type="curve" smooth="yes"/>
      <point x="513" y="-43"/>
      <point x="523" y="0"/>
      <point x="523" y="52" type="curve" smooth="yes"/>
      <point x="523" y="108"/>
      <point x="512" y="125"/>
      <point x="491" y="150" type="curve" smooth="yes"/>
      <point x="470" y="174"/>
      <point x="438" y="188"/>
      <point x="398" y="197" type="curve"/>
      <point x="398" y="201" type="line"/>
      <point x="478" y="220"/>
      <point x="517" y="253"/>
      <point x="517" y="343" type="curve" smooth="yes"/>
      <point x="517" y="446"/>
      <point x="461" y="505"/>
      <point x="313" y="520" type="curve"/>
      <point x="313" y="331" type="line" smooth="yes"/>
      <point x="313" y="304"/>
      <point x="311" y="290"/>
      <point x="300" y="282" type="curve" smooth="yes"/>
      <point x="289" y="274"/>
      <point x="269" y="272"/>
      <point x="236" y="272" type="curve" smooth="yes"/>
      <point x="146" y="272" type="line"/>
      <point x="146" y="119" type="line"/>
      <point x="236" y="119" type="line" smooth="yes"/>
      <point x="269" y="119"/>
      <point x="291" y="117"/>
      <point x="303" y="109" type="curve"/>
      <point x="315" y="100"/>
      <point x="319" y="84"/>
      <point x="319" y="55" type="curve" smooth="yes"/>
    </contour>
    <contour>
      <point x="236" y="-140" type="curve" smooth="yes"/>
      <point x="257" y="-140" type="line" smooth="yes"/>
      <point x="264" y="-140"/>
      <point x="270" y="-140"/>
      <point x="277" y="-139" type="curve"/>
      <point x="277" y="15" type="line"/>
      <point x="258" y="14"/>
      <point x="238" y="13"/>
      <point x="217" y="13" type="curve" smooth="yes"/>
      <point x="162" y="13"/>
      <point x="103" y="18"/>
      <point x="47" y="27" type="curve"/>
      <point x="47" y="-116" type="line"/>
      <point x="112" y="-134"/>
      <point x="160" y="-140"/>
    </contour>
    <contour>
      <point x="51" y="357" type="line"/>
      <point x="88" y="361"/>
      <point x="109" y="365"/>
      <point x="155" y="369" type="curve"/>
      <point x="178" y="370"/>
      <point x="201" y="371"/>
      <point x="226" y="371" type="curve" smooth="yes"/>
      <point x="233" y="371"/>
      <point x="255" y="370"/>
      <point x="271" y="368" type="curve"/>
      <point x="271" y="523" type="line"/>
      <point x="200" y="524"/>
      <point x="114" y="513"/>
      <point x="51" y="500" type="curve"/>
    </contour>
  </outline>
</glyph>
<glyph name="tildemacron.case" format="1">
  <advance width="443"/>
  <outline>
    <contour>
      <point x="20" y="751" type="curve"/>
      <point x="113" y="751" type="line"/>
      <point x="113" y="780"/>
      <point x="113" y="791"/>
      <point x="136" y="791" type="curve" smooth="yes"/>
      <point x="146" y="791"/>
      <point x="158" y="790"/>
      <point x="172" y="787" type="curve" smooth="yes"/>
      <point x="186" y="784"/>
      <point x="201" y="781"/>
      <point x="218" y="777" type="curve" smooth="yes"/>
      <point x="251" y="769"/>
      <point x="288" y="763"/>
      <point x="323" y="763" type="curve" smooth="yes"/>
      <point x="372" y="763"/>
      <point x="399" y="778"/>
      <point x="411" y="804" type="curve" smooth="yes"/>
      <point x="423" y="830"/>
      <point x="423" y="867"/>
      <point x="423" y="915" type="curve"/>
      <point x="330" y="915" type="line"/>
      <point x="330" y="886"/>
      <point x="330" y="875"/>
      <point x="307" y="875" type="curve" smooth="yes"/>
      <point x="297" y="875"/>
      <point x="285" y="877"/>
      <point x="271" y="880" type="curve" smooth="yes"/>
      <point x="257" y="883"/>
      <point x="242" y="885"/>
      <point x="225" y="889" type="curve" smooth="yes"/>
      <point x="192" y="897"/>
      <point x="155" y="903"/>
      <point x="120" y="903" type="curve" smooth="yes"/>
      <point x="71" y="903"/>
      <point x="46" y="889"/>
      <point x="33" y="863" type="curve" smooth="yes"/>
      <point x="20" y="837"/>
      <point x="20" y="799"/>
    </contour>
    <contour>
      <point x="41" y="958" type="line"/>
      <point x="402" y="958" type="line"/>
      <point x="402" y="1077" type="line"/>
      <point x="41" y="1077" type="line"/>
    </contour>
    <contour>
      <point x="222" y="688" type="move" name="_top"/>
    </contour>
  </outline>
</glyph>
<glyph name="two.osf" format="1">
  <advance width="584"/>
  <outline>
    <contour>
      <point x="47" y="0" type="line"/>
      <point x="240" y="0" type="line"/>
      <point x="240" y="68" type="line" smooth="yes"/>
      <point x="240" y="134"/>
      <point x="241" y="146"/>
      <point x="273" y="158" type="curve" smooth="yes"/>
      <point x="405" y="207" type="line" smooth="yes"/>
      <point x="505" y="244"/>
      <point x="535" y="289"/>
      <point x="535" y="392" type="curve" smooth="yes"/>
      <point x="535" y="476"/>
      <point x="468" y="523"/>
      <point x="335" y="523" type="curve"/>
      <point x="335" y="403" type="line" smooth="yes"/>
      <point x="335" y="380"/>
      <point x="333" y="369"/>
      <point x="324" y="359" type="curve" smooth="yes"/>
      <point x="315" y="349"/>
      <point x="296" y="342"/>
      <point x="264" y="328" type="curve" smooth="yes"/>
      <point x="177" y="291" type="line" smooth="yes"/>
      <point x="77" y="248"/>
      <point x="47" y="191"/>
      <point x="47" y="85" type="curve" smooth="yes"/>
    </contour>
    <contour>
      <point x="282" y="0" type="line"/>
      <point x="525" y="0" type="line"/>
      <point x="525" y="125" type="line"/>
      <point x="282" y="125" type="line"/>
    </contour>
    <contour>
      <point x="61" y="355" type="line"/>
      <point x="81" y="358"/>
      <point x="102" y="361"/>
      <point x="123" y="363" type="curve" smooth="yes"/>
      <point x="159" y="366"/>
      <point x="195" y="371"/>
      <point x="234" y="371" type="curve" smooth="yes"/>
      <point x="269" y="371"/>
      <point x="274" y="371"/>
      <point x="293" y="368" type="curve"/>
      <point x="293" y="524" type="line"/>
      <point x="207" y="524"/>
      <point x="136" y="514"/>
      <point x="61" y="499" type="curve"/>
    </contour>
  </outline>
</glyph>
<glyph name="zero.tf.zero" format="1">
  <advance width="660"/>
  <outline>
    <contour>
      <point x="409" y="-5" type="line"/>
      <point x="509" y="3"/>
      <point x="560" y="31"/>
      <point x="586" y="86" type="curve" smooth="yes"/>
      <point x="612" y="141"/>
      <point x="613" y="224"/>
      <point x="613" y="258" type="curve" smooth="yes"/>
      <point x="613" y="305"/>
      <point x="612" y="395"/>
      <point x="576" y="449" type="curve" smooth="yes"/>
      <point x="540" y="503"/>
      <point x="469" y="524"/>
      <point x="330" y="524" type="curve" smooth="yes"/>
      <point x="311" y="524" type="line" smooth="yes"/>
      <point x="305" y="524"/>
      <point x="299" y="524"/>
      <point x="293" y="523" type="curve"/>
      <point x="293" y="369" type="line"/>
      <point x="304" y="370"/>
      <point x="315" y="371"/>
      <point x="330" y="371" type="curve" smooth="yes"/>
      <point x="370" y="371"/>
      <point x="390" y="370"/>
      <point x="400" y="345" type="curve" smooth="yes"/>
      <point x="405" y="332"/>
      <point x="407" y="313"/>
      <point x="408" y="286" type="curve" smooth="yes"/>
      <point x="409" y="259"/>
      <point x="409" y="281"/>
      <point x="409" y="233" type="curve" smooth="yes"/>
    </contour>
    <contour>
      <point x="330" y="-8" type="curve" smooth="yes"/>
      <point x="349" y="-8" type="line" smooth="yes"/>
      <point x="355" y="-8"/>
      <point x="361" y="-8"/>
      <point x="367" y="-7" type="curve"/>
      <point x="367" y="147" type="line"/>
      <point x="362" y="146"/>
      <point x="356" y="145"/>
      <point x="350" y="145" type="curve" smooth="yes"/>
      <point x="330" y="145" type="line" smooth="yes"/>
      <point x="290" y="145"/>
      <point x="271" y="146"/>
      <point x="261" y="171" type="curve" smooth="yes"/>
      <point x="256" y="184"/>
      <point x="253" y="204"/>
      <point x="252" y="231" type="curve" smooth="yes"/>
      <point x="251" y="258"/>
      <point x="251" y="233"/>
      <point x="251" y="282" type="curve" smooth="yes"/>
      <point x="251" y="521" type="line"/>
      <point x="151" y="513"/>
      <point x="100" y="485"/>
      <point x="74" y="430" type="curve" smooth="yes"/>
      <point x="48" y="375"/>
      <point x="47" y="293"/>
      <point x="47" y="258" type="curve" smooth="yes"/>
      <point x="47" y="209"/>
      <point x="48" y="122"/>
      <point x="84" y="68" type="curve" smooth="yes"/>
      <point x="120" y="14"/>
      <point x="191" y="-8"/>
    </contour>
    <contour>
      <point x="239" y="198" type="line"/>
      <point x="423" y="198" type="line"/>
      <point x="423" y="323" type="line"/>
      <point x="239" y="323" type="line"/>
    </contour>
  </outline>
</glyph>
<glyph name="zero.zero" format="1">
  <advance width="660"/>
  <note>
    zero.zero
  </note>
  <outline>
    <contour>
      <point x="330" y="-8" type="curve" smooth="yes"/>
      <point x="346" y="-8" type="line" smooth="yes"/>
      <point x="351" y="-8"/>
      <point x="357" y="-8"/>
      <point x="362" y="-7" type="curve"/>
      <point x="362" y="146" type="line"/>
      <point x="357" y="145"/>
      <point x="352" y="145"/>
      <point x="347" y="145" type="curve" smooth="yes"/>
      <point x="330" y="145" type="line" smooth="yes"/>
      <point x="314" y="145"/>
      <point x="301" y="146"/>
      <point x="292" y="148" type="curve"/>
      <point x="273" y="151"/>
      <point x="263" y="166"/>
      <point x="259" y="200" type="curve" smooth="yes"/>
      <point x="257" y="217"/>
      <point x="256" y="240"/>
      <point x="256" y="271" type="curve"/>
      <point x="404" y="271" type="line"/>
      <point x="404" y="-5" type="line"/>
      <point x="504" y="3"/>
      <point x="555" y="29"/>
      <point x="581" y="85" type="curve" smooth="yes"/>
      <point x="607" y="140"/>
      <point x="608" y="224"/>
      <point x="608" y="344" type="curve" smooth="yes"/>
      <point x="608" y="477"/>
      <point x="607" y="567"/>
      <point x="572" y="621" type="curve" smooth="yes"/>
      <point x="536" y="675"/>
      <point x="466" y="696"/>
      <point x="330" y="696" type="curve" smooth="yes"/>
      <point x="314" y="696" type="line" smooth="yes"/>
      <point x="309" y="696"/>
      <point x="303" y="696"/>
      <point x="298" y="695" type="curve"/>
      <point x="298" y="541" type="line"/>
      <point x="306" y="542"/>
      <point x="317" y="543"/>
      <point x="330" y="543" type="curve" smooth="yes"/>
      <point x="346" y="543"/>
      <point x="359" y="542"/>
      <point x="368" y="541" type="curve"/>
      <point x="387" y="537"/>
      <point x="397" y="522"/>
      <point x="401" y="488" type="curve"/>
      <point x="404" y="416" type="line"/>
      <point x="256" y="416" type="line"/>
      <point x="256" y="693" type="line"/>
      <point x="156" y="685"/>
      <point x="105" y="658"/>
      <point x="79" y="603" type="curve" smooth="yes"/>
      <point x="53" y="548"/>
      <point x="52" y="464"/>
      <point x="52" y="344" type="curve" smooth="yes"/>
      <point x="52" y="209"/>
      <point x="53" y="122"/>
      <point x="89" y="68" type="curve" smooth="yes"/>
      <point x="124" y="14"/>
      <point x="194" y="-8"/>
    </contour>
  </outline>
</glyph>
